<svg xmlns="http://www.w3.org/2000/svg" viewBox="0 0 200 180" fill="none">
  <!-- Cloud shape -->
  <g transform="translate(40, 0)">
    <path d="M95 45c0-16.5-13.5-30-30-30-12.5 0-23.5 7.5-28 18.5C34 32 31 31 27 31c-12 0-22 10-22 22 0 1 0 2 .2 3C2 58.5 0 64 0 70c0 12 10 22 22 22h70c14 0 25-11 25-25 0-12.5-9-23-21.5-25-.3-1-.5-2-.5-3z" fill="#fce4ec" stroke="#c2185b" stroke-width="6" stroke-linejoin="round"/>
    
    <!-- Cube -->
    <g transform="translate(32, 32)">
      <path d="M28 0 L56 16 L56 48 L28 64 L0 48 L0 16 Z" fill="none" stroke="#c2185b" stroke-width="5"/>
      <path d="M28 0 L56 16 L28 32 L0 16 Z" fill="#fce4ec" stroke="#c2185b" stroke-width="4"/>
      <path d="M0 16 L28 32 L28 64 L0 48 Z" fill="#f48fb1" stroke="#c2185b" stroke-width="4"/>
      <path d="M56 16 L28 32 L28 64 L56 48 Z" fill="#880e4f" stroke="#c2185b" stroke-width="4"/>
      <path d="M28 44 L56 28 L56 36 L28 52 Z" fill="#fce4ec"/>
    </g>
  </g>
  
  <!-- Text: CLOUD NATIVE -->
  <text x="100" y="125" text-anchor="middle" font-family="Arial, sans-serif" font-size="22" font-weight="bold" fill="#c2185b">CLOUD NATIVE</text>
  
  <!-- Text: LATVIA -->
  <text x="100" y="155" text-anchor="middle" font-family="Arial, sans-serif" font-size="28" font-weight="900" fill="#880e4f">LATVIA</text>
</svg>
