<?xml version="1.0" encoding="UTF-8" standalone="no"?>
<svg
   version="1.1"
   viewBox="0.00 0.00 1024.00 1024.00"
   id="svg71"
   sodipodi:docname="cnl_logo_singal.svg"
   inkscape:version="1.4 (e7c3feb1, 2024-10-09)"
   inkscape:export-filename="cnl_logo_singal.png"
   inkscape:export-xdpi="96"
   inkscape:export-ydpi="96"
   xmlns:inkscape="http://www.inkscape.org/namespaces/inkscape"
   xmlns:sodipodi="http://sodipodi.sourceforge.net/DTD/sodipodi-0.dtd"
   xmlns="http://www.w3.org/2000/svg"
   xmlns:svg="http://www.w3.org/2000/svg">
  <defs
     id="defs71" />
  <sodipodi:namedview
     id="namedview71"
     pagecolor="#ffffff"
     bordercolor="#000000"
     borderopacity="0.25"
     inkscape:showpageshadow="2"
     inkscape:pageopacity="0.0"
     inkscape:pagecheckerboard="0"
     inkscape:deskcolor="#d1d1d1"
     inkscape:zoom="0.40650328"
     inkscape:cx="238.62046"
     inkscape:cy="487.08094"
     inkscape:window-width="1720"
     inkscape:window-height="979"
     inkscape:window-x="7"
     inkscape:window-y="46"
     inkscape:window-maximized="0"
     inkscape:current-layer="svg71" />
  <path
     id="path40"
     d="M 513.2793 137.96094 C 500.0093 137.90094 486.80023 138.98023 475.74023 141.74023 C 462.1269 145.1469 449.28737 150.06356 437.2207 156.49023 C 398.2907 177.25023 369.42062 216.93078 360.39062 260.05078 C 360.305 260.46505 359.93234 260.76077 359.5 260.75977 C 331.4 260.63977 303.15977 271.29977 282.50977 290.00977 C 271.87644 299.64977 262.98341 311.09938 255.83008 324.35938 C 242.15008 349.73937 238.56977 379.78 244.00977 408 C 248.5831 431.75333 259.41333 452.1669 276.5 469.24023 C 289.16667 481.89356 304.92286 491.41411 323.76953 497.80078 C 332.63953 500.81078 343.6893 502.03953 353.2793 502.26953 C 353.71496 502.27366 354.07331 502.60942 354.09961 503.03906 C 354.66961 510.54906 360.37078 513.93906 366.30078 517.53906 C 395.66078 535.37239 442.23286 564.21388 506.01953 604.06055 C 510.61953 606.93388 515.46722 606.77961 520.56055 603.59961 C 535.38055 594.33294 575.77356 569.13023 641.74023 527.99023 C 651.48023 521.9169 658.77753 517.04753 663.63086 513.38086 C 667.42086 510.52086 668.4407 507.53906 669.7207 503.28906 C 669.87857 502.77341 670.32651 502.40351 670.85938 502.34961 C 709.75937 498.42961 744.16031 473.82064 763.32031 440.14062 C 771.68031 425.46062 777.68031 407.67914 779.82031 391.36914 C 785.68031 346.90914 767.10914 302.18086 732.61914 273.63086 C 711.58581 256.21086 687.32961 246.56589 659.84961 244.69922 C 659.21438 244.65753 658.66929 244.23569 658.4707 243.63086 C 639.0507 186.17086 589.42945 144.80992 528.68945 138.66992 C 524.34945 138.22992 519.21263 137.99424 513.2793 137.96094 z M 515.03516 168.22266 C 533.46958 168.6746 551.76836 173.22383 568.86914 181.99023 C 590.80914 193.23023 608.88961 212.07016 621.09961 233.66016 C 625.68628 241.78016 628.98356 250.01271 630.99023 258.35938 C 632.29023 263.77936 633.38286 267.07977 634.26953 268.25977 C 639.45953 275.16977 643.50023 275.09945 652.99023 275.18945 C 676.63023 275.40945 697.52325 283.45984 715.66992 299.33984 C 723.21659 305.95317 729.54992 313.45008 734.66992 321.83008 C 735.50992 323.21008 737.42039 326.83761 740.40039 332.71094 C 748.39039 348.43094 751.38064 365.83047 749.89062 383.48047 C 746.54063 423.34047 719.5393 457.82953 681.0293 469.26953 C 677.6093 470.28953 674.06086 471.02094 670.38086 471.46094 C 670.12843 471.48513 669.91092 471.29224 669.91992 471.05078 C 669.94692 415.01078 669.95622 369.74333 669.94922 335.25 C 669.94922 329.45 669.71055 322.61992 665.56055 317.91992 C 663.87388 316.01325 661.67737 314.21906 658.9707 312.53906 C 610.24403 282.25239 566.22969 254.77294 526.92969 230.09961 C 522.10969 227.06628 518.40388 225.31008 515.81055 224.83008 C 510.45722 223.83008 505.12388 224.99364 499.81055 228.32031 C 450.90388 258.93364 408.77945 285.29062 373.43945 307.39062 C 368.21945 310.65062 363.15008 313.7493 358.83008 317.7793 C 354.26008 322.0393 354.16992 331.75 354.16992 338.75 C 354.16992 424.33 354.16369 468.30945 354.15039 470.68945 C 354.15087 470.9998 353.88995 471.24767 353.58008 471.23047 C 322.50008 469.59047 295.84047 453.55953 281.98047 425.76953 C 272.64047 407.04953 269.30984 384.44055 274.08984 364.06055 C 277.59984 349.06055 284.1007 333.4093 293.9707 321.7793 C 309.7607 303.1593 335.37977 290.37977 360.25977 291.00977 C 362.35977 291.0631 366.77023 291.31 373.49023 291.75 C 379.14023 292.12 384.69969 288.10039 387.17969 282.90039 C 387.89302 281.40039 388.55039 278.56706 389.15039 274.40039 C 390.11039 267.74706 390.93247 263.25325 391.61914 260.91992 C 402.98914 222.47992 431.10906 188.8807 469.53906 175.4707 C 481.83156 171.1807 494.47658 168.77049 507.12891 168.2793 C 509.76481 168.17696 512.40167 168.15809 515.03516 168.22266 z M 512.36719 256.17773 C 513.18805 256.13456 513.98508 256.28964 514.56836 256.6543 L 628.82227 328.08203 C 629.98877 328.81136 629.84778 330.07197 628.50195 330.92383 L 514.54883 403.05273 C 513.20343 403.90485 511.16536 404.02171 510.00586 403.28125 L 396.0957 330.53711 C 394.93619 329.79665 395.06432 328.53782 396.41602 327.69531 L 510.02539 256.88281 C 510.70125 256.46156 511.54633 256.22091 512.36719 256.17773 z M 639.94922 357.94922 C 640.10013 357.85684 640.29578 357.96376 640.30078 358.14062 L 640.18945 409.66992 L 640.0293 443.82031 C 640.1093 443.87364 640.1926 443.9333 640.2793 444 C 640.3169 444.0259 640.33985 444.06637 640.33984 444.10938 L 640.33984 492.82031 C 640.34008 493.51722 639.98225 494.16526 639.39062 494.53906 L 527.83984 565.2207 C 527.68282 565.31148 527.48647 565.20081 527.48047 565.01953 L 527.31055 515.26953 L 527.15039 480.96094 L 526.89062 480.93945 C 526.87403 480.93945 526.85937 480.92676 526.85938 480.91016 L 526.85938 430.7207 C 526.85861 430.02466 527.21917 429.37684 527.81055 429.00977 L 639.94922 357.94922 z M 384.92188 358.14844 C 385.97813 358.10612 387.54372 358.59829 388.38086 359.13672 L 498.5918 430.02148 C 499.93142 430.88308 498.91511 431.48755 498.91211 432.86328 L 498.64844 562.92188 C 497.27267 562.92188 495.45691 563.5363 494.10547 562.69336 L 384.38086 494.25391 C 383.02944 493.41097 384.0645 492.78787 384.0625 491.41211 L 383.83789 358.90625 C 383.83702 358.39034 384.28812 358.17383 384.92188 358.14844 z "
     style="fill:#cd4a77;fill-opacity:1" />
  <path
     fill="#9c213b"
     d="   M 640.19 409.67   L 527.15 480.96   Q 527.02 480.95 526.89 480.94   A 0.03 0.03 0.0 0 1 526.86 480.91   L 526.86 430.72   A 2.01 2.01 0.0 0 1 527.81 429.01   L 639.95 357.95   A 0.23 0.23 0.0 0 1 640.30 358.14   L 640.19 409.67   Z"
     id="path47" />
  <path
     fill="#e9d4db"
     d="   M 640.19 409.67   L 640.03 443.82   L 527.31 515.27   L 527.15 480.96   L 640.19 409.67   Z"
     id="path49"
     style="fill:#ffffff" />
  <path
     fill="#9c213b"
     d="   M 527.31 515.27   L 640.03 443.82   Q 640.15 443.90 640.28 444.00   A 0.14 0.13 17.4 0 1 640.34 444.11   L 640.34 492.82   A 2.04 2.03 -16.2 0 1 639.39 494.54   L 527.84 565.22   A 0.24 0.24 0.0 0 1 527.48 565.02   L 527.31 515.27   Z"
     id="path50" />
  <path
     id="path40-7"
     d="m 1533.4531,195.01546 c -13.27,-0.06 -26.479,1.01929 -37.539,3.77929 -13.6134,3.40667 -26.4529,8.32333 -38.5196,14.75 -38.93,20.76 -67.8,60.44055 -76.83,103.56055 -0.086,0.41427 -0.4583,0.70999 -0.8907,0.70899 -28.1,-0.12 -56.3402,10.54 -76.9902,29.25 -10.6333,9.64 -19.5264,21.08961 -26.6797,34.34961 -13.68,25.37999 -17.2603,55.42062 -11.8203,83.64062 4.5733,23.75333 15.4036,44.1669 32.4902,61.24023 12.6667,12.65333 28.4229,22.17388 47.2696,28.56055 8.87,3.01 19.9197,4.23875 29.5097,4.46875 0.4357,0.004 0.794,0.33989 0.8203,0.76953 0.57,7.51 6.2712,10.9 12.2012,14.5 29.36,17.83333 75.9321,46.67482 139.7188,86.52149 4.6,2.87333 9.4477,2.71906 14.541,-0.46094 14.82,-9.26667 55.213,-34.46938 121.1797,-75.60938 9.74,-6.07333 17.0373,-10.9427 21.8906,-14.60937 3.79,-2.86 4.8098,-5.8418 6.0898,-10.0918 0.1579,-0.51565 0.6058,-0.88555 1.1387,-0.93945 38.9,-3.92 73.3009,-28.52897 92.4609,-62.20899 8.36,-14.68 14.36,-32.46148 16.5,-48.77148 5.86,-44.46 -12.7111,-89.18828 -47.2011,-117.73828 -21.0334,-17.42 -45.2896,-27.06497 -72.7696,-28.93164 -0.6352,-0.0417 -1.1803,-0.46353 -1.3789,-1.06836 -19.42,-57.46 -69.0412,-98.82094 -129.7812,-104.96094 -4.34,-0.44 -9.4768,-0.67568 -15.4102,-0.70898 z m 1.7559,30.26172 c 18.4344,0.45194 36.7332,5.00117 53.834,13.76757 21.94,11.24 40.0204,30.07993 52.2304,51.66993 4.5867,8.12 7.884,16.35255 9.8907,24.69922 1.3,5.41998 2.3926,8.72039 3.2793,9.90039 5.19,6.91 9.2307,6.83968 18.7207,6.92968 23.64,0.22 44.533,8.27039 62.6797,24.15039 7.5466,6.61333 13.88,14.11024 19,22.49024 0.84,1.38 2.7504,5.00753 5.7304,10.88086 7.99,15.72 10.9803,33.11953 9.4903,50.76953 -3.35,39.86 -30.3514,74.34906 -68.8614,85.78906 -3.42,1.02 -6.9684,1.75141 -10.6484,2.19141 -0.2524,0.0242 -0.4699,-0.1687 -0.4609,-0.41016 0.027,-56.04 0.036,-101.30745 0.029,-135.80078 0,-5.8 -0.2387,-12.63008 -4.3887,-17.33008 -1.6867,-1.90667 -3.8832,-3.70086 -6.5899,-5.38086 -48.7266,-30.28667 -92.741,-57.76612 -132.041,-82.43945 -4.82,-3.03333 -8.5258,-4.78953 -11.1191,-5.26953 -5.3533,-1 -10.6867,0.16356 -16,3.49023 -48.9067,30.61333 -91.0311,56.97031 -126.3711,79.07031 -5.22,3.26 -10.2894,6.35868 -14.6094,10.38868 -4.57,4.26 -4.6601,13.9707 -4.6601,20.9707 0,85.58 -0.01,129.55945 -0.02,131.93945 4e-4,0.31035 -0.2605,0.55822 -0.5704,0.54102 -31.08,-1.64 -57.7396,-17.67094 -71.5996,-45.46094 -9.34,-18.72 -12.6706,-41.32898 -7.8906,-61.70898 3.51,-15 10.0109,-30.65125 19.8809,-42.28125 15.79,-18.62 41.409,-31.39953 66.289,-30.76953 2.1,0.0533 6.5105,0.30023 13.2305,0.74023 5.65,0.37 11.2095,-3.64961 13.6895,-8.84961 0.7133,-1.5 1.3707,-4.33333 1.9707,-8.5 0.96,-6.65333 1.782,-11.14714 2.4687,-13.48047 11.37,-38.44 39.4899,-72.03922 77.9199,-85.44922 12.2925,-4.29 24.9375,-6.70021 37.5899,-7.1914 2.6359,-0.10234 5.2727,-0.12121 7.9062,-0.0566 z m -2.668,87.95507 c 0.8209,-0.0432 1.6179,0.11191 2.2012,0.47657 l 114.2539,71.42773 c 1.1665,0.72933 1.0255,1.98994 -0.3203,2.8418 l -113.9531,72.1289 c -1.3454,0.85212 -3.3835,0.96898 -4.543,0.22852 l -113.9102,-72.74414 c -1.1595,-0.74046 -1.0313,-1.99929 0.3204,-2.8418 l 113.6093,-70.8125 c 0.6759,-0.42125 1.521,-0.6619 2.3418,-0.70508 z m 127.5821,101.77149 c 0.1509,-0.0924 0.3465,0.0145 0.3515,0.1914 l -0.1113,51.5293 -0.1602,34.15039 c 0.08,0.0533 0.1633,0.11299 0.25,0.17969 0.038,0.0259 0.061,0.0664 0.061,0.10938 v 48.71093 c 3e-4,0.69691 -0.3576,1.34495 -0.9492,1.71875 l -111.5507,70.68164 c -0.157,0.0908 -0.3534,-0.0199 -0.3594,-0.20117 l -0.1699,-49.75 -0.1602,-34.30859 -0.2597,-0.0215 c -0.017,0 -0.031,-0.0127 -0.031,-0.0293 v -50.18944 c -8e-4,-0.69604 0.3597,-1.34386 0.9511,-1.71093 z m -255.0274,0.19922 c 1.0563,-0.0423 2.6219,0.44985 3.459,0.98828 l 110.2109,70.88476 c 1.3397,0.8616 0.3233,1.46607 0.3203,2.8418 l -0.2636,130.0586 c -1.3758,0 -3.1916,0.61442 -4.543,-0.22852 l -109.7246,-68.43945 c -1.3514,-0.84294 -0.3164,-1.46604 -0.3184,-2.8418 l -0.2246,-132.50586 c -8e-4,-0.51591 0.4503,-0.73242 1.084,-0.75781 z"
     style="fill:#1a1a1a;fill-opacity:1" />
  <path
     fill="#9c213b"
     d="m 1660.3638,466.72452 -113.04,71.29 q -0.13,-0.01 -0.26,-0.02 a 0.03,0.03 0 0 1 -0.03,-0.03 v -50.19 a 2.01,2.01 0 0 1 0.95,-1.71 l 112.14,-71.06 a 0.23,0.23 0 0 1 0.35,0.19 z"
     id="path47-7" />
  <path
     fill="#e9d4db"
     d="m 1660.3638,466.72452 -0.16,34.15 -112.72,71.45 -0.16,-34.31 z"
     id="path49-5"
     style="fill:#ffffff" />
  <path
     fill="#9c213b"
     d="m 1547.4838,572.32452 112.72,-71.45 q 0.12,0.08 0.25,0.18 a 0.14,0.13 17.4 0 1 0.06,0.11 v 48.71 a 2.03,2.04 73.8 0 1 -0.95,1.72 l -111.55,70.68 a 0.24,0.24 0 0 1 -0.36,-0.2 z"
     id="path50-1" />
  <path
     fill="#cd4a77"
     d="   M 170.49 655.89   Q 170.47 655.88 167.12 653.15   C 156.42 644.41 140.23 647.50 133.30 659.40   C 129.61 665.73 129.17 674.63 131.75 681.23   C 134.48 688.25 140.67 693.53 148.39 694.78   Q 161.38 696.90 170.46 687.22   A 1.24 1.23 44.2 0 1 172.23 687.20   L 181.74 696.70   A 0.67 0.66 44.7 0 1 181.75 697.64   C 174.97 704.69 167.27 708.89 157.44 709.80   C 133.13 712.06 112.86 695.33 113.88 670.27   C 114.58 652.94 125.56 639.16 142.20 634.76   C 155.87 631.14 171.93 634.11 181.84 645.06   A 0.53 0.52 47.0 0 1 181.82 645.79   L 171.69 655.73   A 1.02 1.02 0.0 0 1 170.49 655.89   Z"
     id="path53" />
  <path
     fill="#cd4a77"
     d="   M 321.9937 668.7212   A 39.58 38.59 -4.2 0 1 285.3463 710.1064   A 39.58 38.59 -4.2 0 1 243.0463 674.5188   A 39.58 38.59 -4.2 0 1 279.6937 633.1336   A 39.58 38.59 -4.2 0 1 321.9937 668.7212   Z   M 282.2718 648.0218   A 23.59 23.08 -90.7 0 0 259.4817 671.8920   A 23.59 23.08 -90.7 0 0 282.8482 695.1982   A 23.59 23.08 -90.7 0 0 305.6383 671.3280   A 23.59 23.08 -90.7 0 0 282.2718 648.0218   Z"
     id="path54" />
  <path
     fill="#cd4a77"
     d="   M 571.25 684.22   A 0.31 0.31 0.0 0 0 571.81 684.04   L 571.81 634.79   A 0.60 0.60 0.0 0 1 572.41 634.19   L 586.69 634.19   A 0.81 0.81 0.0 0 1 587.50 635.00   L 587.50 707.49   A 0.50 0.49 88.8 0 1 587.03 707.99   Q 578.55 708.44 571.07 707.99   C 569.34 707.88 568.37 706.29 567.40 704.90   Q 565.29 701.91 536.10 661.25   A 0.19 0.19 0.0 0 0 535.76 661.36   L 535.76 707.50   A 0.76 0.76 0.0 0 1 535.00 708.26   L 520.99 708.26   A 0.99 0.99 0.0 0 1 520.00 707.27   L 520.00 635.04   A 0.88 0.88 0.0 0 1 520.88 634.16   L 533.71 634.16   A 3.13 3.10 -17.8 0 1 536.24 635.45   L 571.25 684.22   Z"
     id="path55" />
  <path
     fill="#cd4a77"
     d="   M 636.13 634.01   Q 639.61 634.02 643.53 634.10   A 2.30 2.29 79.8 0 1 645.62 635.56   L 674.00 707.58   A 0.46 0.46 0.0 0 1 673.57 708.21   L 658.71 708.21   A 2.02 2.02 0.0 0 1 656.81 706.87   L 652.24 694.19   A 1.30 1.29 82.7 0 0 651.15 693.34   Q 649.55 693.18 636.08 693.17   Q 622.61 693.16 621.01 693.32   A 1.30 1.29 -82.6 0 0 619.92 694.16   L 615.33 706.84   A 2.02 2.02 0.0 0 1 613.43 708.17   L 598.57 708.15   A 0.46 0.46 0.0 0 1 598.14 707.52   L 626.63 635.55   A 2.30 2.29 -79.7 0 1 628.72 634.09   Q 632.64 634.01 636.13 634.01   Z   M 625.89 678.63   A 0.35 0.35 0.0 0 0 626.22 679.11   L 646.05 679.21   A 0.35 0.35 0.0 0 0 646.38 678.74   L 636.60 652.08   A 0.35 0.35 0.0 0 0 635.95 652.08   L 625.89 678.63   Z"
     id="path56" />
  <path
     fill="#cd4a77"
     d="   M 364.39 695.06   C 371.02 695.04 376.22 692.38 378.58 687.12   Q 380.41 683.04 380.23 672.17   Q 379.97 657.18 380.06 634.95   A 0.64 0.63 0.0 0 1 380.70 634.32   L 395.40 634.32   A 0.63 0.63 0.0 0 1 396.03 634.95   Q 395.94 644.01 396.14 667.57   Q 396.29 685.09 395.00 689.77   C 391.15 703.70 379.19 709.97 364.43 710.00   C 349.67 710.04 337.68 703.83 333.76 689.92   Q 332.45 685.24 332.52 667.72   Q 332.60 644.16 332.47 635.10   A 0.63 0.63 0.0 0 1 333.10 634.47   L 347.80 634.40   A 0.64 0.63 -0.3 0 1 348.44 635.03   Q 348.64 657.26 348.45 672.25   Q 348.32 683.12 350.17 687.19   C 352.55 692.44 357.77 695.07 364.39 695.06   Z"
     id="path57" />
  <path
     fill="#cd4a77"
     d="   M 411.44 635.03   A 0.43 0.43 0.0 0 1 411.87 634.60   L 442.02 634.55   A 36.38 35.32 -0.1 0 1 478.46 669.80   L 478.46 672.72   A 36.38 35.32 -0.1 0 1 442.14 708.11   L 411.99 708.16   A 0.43 0.43 0.0 0 1 411.56 707.73   L 411.44 635.03   Z   M 427.40 649.39   L 427.40 693.53   A 0.37 0.37 0.0 0 0 427.77 693.90   L 440.25 693.90   A 21.81 20.49 0.0 0 0 462.06 673.41   L 462.06 669.51   A 21.81 20.49 -0.0 0 0 440.25 649.02   L 427.77 649.02   A 0.37 0.37 0.0 0 0 427.40 649.39   Z"
     id="path58" />
  <path
     fill="#cd4a77"
     d="   M 192.09 707.42   L 192.09 635.31   A 0.70 0.70 0.0 0 1 192.79 634.61   L 207.28 634.61   A 0.70 0.70 0.0 0 1 207.98 635.31   L 207.98 693.09   A 0.70 0.70 0.0 0 0 208.68 693.79   L 238.88 693.79   A 0.70 0.70 0.0 0 1 239.58 694.49   L 239.58 707.42   A 0.70 0.70 0.0 0 1 238.88 708.12   L 192.79 708.12   A 0.70 0.70 0.0 0 1 192.09 707.42   Z"
     id="path59" />
  <rect
     fill="#cd4a77"
     x="745.01"
     y="634.60"
     width="15.90"
     height="73.68"
     rx="0.78"
     id="rect59" />
  <path
     fill="#cd4a77"
     d="   M 701.91 634.96   Q 730.39 635.00 732.89 635.09   A 0.59 0.59 0.0 0 1 733.46 635.68   L 733.46 648.48   A 0.77 0.76 -90.0 0 1 732.70 649.25   L 710.27 649.25   A 0.56 0.56 0.0 0 0 709.71 649.81   L 709.71 707.37   A 0.77 0.76 -1.3 0 1 708.98 708.13   Q 707.05 708.21 701.80 708.20   Q 696.55 708.19 694.62 708.11   A 0.77 0.76 1.4 0 1 693.89 707.34   L 694.07 649.79   A 0.56 0.56 0.0 0 0 693.51 649.22   L 671.08 649.15   A 0.77 0.76 -89.8 0 1 670.32 648.38   L 670.37 635.58   A 0.59 0.59 0.0 0 1 670.94 634.99   Q 673.44 634.91 701.91 634.96   Z"
     id="path60" />
  <path
     fill="#cd4a77"
     d="   M 809.79 690.35   Q 810.01 690.35 810.14 689.98   Q 818.12 667.78 829.83 635.99   A 1.50 1.50 0.0 0 1 831.24 635.01   L 847.16 635.01   A 0.51 0.51 0.0 0 1 847.63 635.70   L 819.74 707.12   A 1.72 1.71 -80.3 0 1 818.21 708.21   Q 817.13 708.25 809.82 708.26   Q 802.51 708.27 801.43 708.24   A 1.72 1.71 80.2 0 1 799.90 707.15   L 771.79 635.82   A 0.51 0.51 0.0 0 1 772.26 635.12   L 788.18 635.08   A 1.50 1.50 0.0 0 1 789.59 636.05   Q 801.40 667.81 809.44 689.98   Q 809.58 690.35 809.79 690.35   Z"
     id="path61" />
  <path
     fill="#cd4a77"
     d="   M 908.35 694.75   L 908.35 707.51   A 0.70 0.70 0.0 0 1 907.65 708.21   L 859.04 708.21   A 0.70 0.70 0.0 0 1 858.34 707.51   L 858.34 635.78   A 0.70 0.70 0.0 0 1 859.04 635.08   L 907.21 635.08   A 0.70 0.70 0.0 0 1 907.91 635.78   L 907.91 648.44   A 0.70 0.70 0.0 0 1 907.21 649.14   L 874.76 649.14   A 0.70 0.70 0.0 0 0 874.06 649.84   L 874.06 664.05   A 0.70 0.70 0.0 0 0 874.76 664.75   L 903.09 664.75   A 0.70 0.70 0.0 0 1 903.79 665.45   L 903.79 677.65   A 0.70 0.70 0.0 0 1 903.09 678.35   L 874.81 678.35   A 0.70 0.70 0.0 0 0 874.11 679.05   L 874.11 693.35   A 0.70 0.70 0.0 0 0 874.81 694.05   L 907.65 694.05   A 0.70 0.70 0.0 0 1 908.35 694.75   Z"
     id="path62" />
  <path
     fill="#9c213b"
     d="   M 604.51 735.46   L 628.29 735.46   A 0.49 0.49 0.0 0 1 628.74 736.13   L 587.56 840.04   A 0.49 0.49 0.0 0 1 587.11 840.35   L 560.86 840.35   A 0.49 0.49 0.0 0 1 560.41 840.04   L 519.48 736.16   A 0.49 0.49 0.0 0 1 519.94 735.49   L 544.39 735.49   A 0.49 0.49 0.0 0 1 544.85 735.81   L 573.94 816.51   A 0.49 0.49 0.0 0 0 574.86 816.51   L 604.05 735.78   A 0.49 0.49 0.0 0 1 604.51 735.46   Z"
     id="path65" />
  <path
     fill="#9c213b"
     d="   M 270.69 819.68   L 314.40 819.68   A 0.57 0.57 0.0 0 1 314.97 820.25   L 314.97 839.78   A 0.57 0.57 0.0 0 1 314.40 840.35   L 248.36 840.35   A 0.57 0.57 0.0 0 1 247.79 839.78   L 247.79 736.20   A 0.57 0.57 0.0 0 1 248.36 735.63   L 269.55 735.63   A 0.57 0.57 0.0 0 1 270.12 736.20   L 270.12 819.11   A 0.57 0.57 0.0 0 0 270.69 819.68   Z"
     id="path66" />
  <path
     fill="#9c213b"
     d="   M 468.15 735.54   Q 494.01 735.53 509.06 735.50   A 0.55 0.55 0.0 0 1 509.61 736.05   L 509.61 754.84   A 0.59 0.59 0.0 0 1 509.02 755.43   L 479.99 755.43   A 0.59 0.59 0.0 0 0 479.40 756.02   L 479.40 839.68   A 0.68 0.68 0.0 0 1 478.71 840.36   Q 476.98 840.33 468.20 840.33   Q 459.43 840.34 457.70 840.37   A 0.68 0.68 0.0 0 1 457.01 839.69   L 456.93 756.03   A 0.59 0.59 0.0 0 0 456.34 755.44   L 427.31 755.47   A 0.59 0.59 0.0 0 1 426.72 754.88   L 426.70 736.09   A 0.55 0.55 0.0 0 1 427.25 735.54   Q 442.30 735.55 468.15 735.54   Z"
     id="path67" />
  <rect
     fill="#9c213b"
     x="644.02"
     y="735.48"
     width="22.14"
     height="104.90"
     rx="0.52"
     id="rect67" />
  <path
     fill="#9c213b"
     d="   M 401.42 819.94   L 357.43 819.94   A 0.51 0.51 0.0 0 0 356.95 820.28   L 349.80 840.03   A 0.51 0.51 0.0 0 1 349.32 840.37   L 327.02 840.37   A 0.51 0.51 0.0 0 1 326.54 839.67   L 367.02 735.99   A 0.51 0.51 0.0 0 1 367.50 735.67   L 392.13 735.67   A 0.51 0.51 0.0 0 1 392.61 736.00   L 432.73 839.71   A 0.51 0.51 0.0 0 1 432.26 840.40   L 409.52 840.40   A 0.51 0.51 0.0 0 1 409.04 840.06   L 401.90 820.28   A 0.51 0.51 0.0 0 0 401.42 819.94   Z   M 364.41 800.28   A 0.38 0.38 0.0 0 0 364.76 800.79   L 394.39 801.10   A 0.38 0.38 0.0 0 0 394.75 800.60   L 380.35 760.81   A 0.38 0.38 0.0 0 0 379.64 760.80   L 364.41 800.28   Z"
     id="path68" />
  <path
     fill="#9c213b"
     d="   M 722.47 735.65   L 747.74 735.65   A 0.48 0.48 0.0 0 1 748.19 735.96   L 788.32 839.69   A 0.48 0.48 0.0 0 1 787.87 840.34   L 764.79 840.34   A 0.48 0.48 0.0 0 1 764.34 840.02   L 757.20 820.26   A 0.48 0.48 0.0 0 0 756.75 819.94   L 712.54 819.94   A 0.48 0.48 0.0 0 0 712.09 820.26   L 704.94 840.00   A 0.48 0.48 0.0 0 1 704.49 840.32   L 681.96 840.32   A 0.48 0.48 0.0 0 1 681.52 839.67   L 722.02 735.96   A 0.48 0.48 0.0 0 1 722.47 735.65   Z   M 719.59 800.14   A 0.49 0.49 0.0 0 0 720.05 800.80   L 749.61 801.06   A 0.49 0.49 0.0 0 0 750.08 800.40   L 735.64 760.90   A 0.49 0.49 0.0 0 0 734.72 760.89   L 719.59 800.14   Z"
     id="path69" />
</svg>
