<?xml version="1.0" encoding="UTF-8" standalone="no"?>
<svg
   width="407.27985"
   height="353.5379"
   viewBox="0 0 407.27985 353.5379"
   fill="none"
   version="1.1"
   id="svg21"
   sodipodi:docname="logo_big copy.svg"
   inkscape:version="1.4 (e7c3feb1, 2024-10-09)"
   xmlns:inkscape="http://www.inkscape.org/namespaces/inkscape"
   xmlns:sodipodi="http://sodipodi.sourceforge.net/DTD/sodipodi-0.dtd"
   xmlns="http://www.w3.org/2000/svg"
   xmlns:svg="http://www.w3.org/2000/svg">
  <defs
     id="defs21" />
  <sodipodi:namedview
     id="namedview21"
     pagecolor="#ffffff"
     bordercolor="#000000"
     borderopacity="0.25"
     inkscape:showpageshadow="2"
     inkscape:pageopacity="0.0"
     inkscape:pagecheckerboard="0"
     inkscape:deskcolor="#d1d1d1"
     inkscape:zoom="0.40695941"
     inkscape:cx="232.20989"
     inkscape:cy="561.48105"
     inkscape:window-width="1728"
     inkscape:window-height="1002"
     inkscape:window-x="0"
     
     inkscape:window-y="33"
     inkscape:window-maximized="1"
     inkscape:current-layer="svg21" />
  <path
     d="m 205.18512,0.0017823 c -10.022,-0.04531111 -19.997,0.76975869 -28.349,2.8540677 -10.281,2.57267 -19.977,6.28566 -29.09,11.13895 -29.399,15.6777 -51.201001,45.6439 -58.021001,78.2075 -0.064,0.3128 -0.346,0.5361 -0.672,0.5354 -21.221,-0.0906 -42.548,7.9593 -58.142,22.0893 -8.03,7.28 -14.746,15.926 -20.148,25.94 -10.33110049,19.167 -13.0349005,41.853 -8.9267005,63.164 3.4537,17.939 11.6327005,33.355 24.5357005,46.248 9.566,9.556 21.465,16.745 35.698,21.569 6.698,2.273 15.043,3.201 22.285,3.374 0.329,0.003 0.6,0.257 0.619,0.581 0.431,5.672 4.736,8.232 9.215,10.951 22.172001,13.467 57.342001,35.248 105.513001,65.339 3.474,2.17 7.135,2.054 10.981,-0.348 11.192,-6.998 41.696,-26.03 91.513,-57.099 7.356,-4.586 12.867,-8.263 16.532,-11.033 2.862,-2.159 3.632,-4.411 4.599,-7.621 0.119,-0.389 0.457,-0.668 0.86,-0.709 29.376,-2.96 55.355,-21.545 69.825,-46.979 6.313,-11.087 10.844,-24.515 12.46,-36.832 4.426,-33.576 -9.599,-67.354 -35.645,-88.914 -15.884,-13.1556 -34.202,-20.4393 -54.955,-21.849 -0.48,-0.0315 -0.891,-0.3501 -1.041,-0.8068 -14.666,-43.393 -52.139,-74.62816 -98.009,-79.26500301 -3.277,-0.332282 -7.157,-0.510267 -11.637,-0.53541469 z m 1.326,22.8532177 c 13.921,0.3413 27.74,3.7768 40.654,10.3971 16.569,8.4883 30.223,22.7159 39.444,39.0203 3.464,6.1322 5.954,12.3493 7.469,18.6525 0.982,4.0931 1.807,6.5856 2.476,7.4767 3.92,5.2184 6.971,5.1654 14.138,5.2334 17.853,0.166 33.631,6.245 47.335,18.238 5.699,4.994 10.482,10.656 14.348,16.984 0.635,1.042 2.077,3.782 4.328,8.217 6.034,11.872 8.292,25.012 7.167,38.341 -2.53,30.101 -22.921,56.147 -52.003,64.786 -2.583,0.771 -5.263,1.323 -8.042,1.655 -0.19,0.018 -0.355,-0.127 -0.348,-0.31 0.021,-42.32 0.028,-76.506 0.022,-102.554 0,-4.38 -0.18,-9.538 -3.314,-13.088 -1.274,-1.44 -2.933,-2.795 -4.977,-4.063 -36.797,-22.872 -70.036,-43.6245 -99.715,-62.2574 -3.64,-2.2908 -6.438,-3.617 -8.397,-3.9795 -4.043,-0.7552 -8.07,0.1235 -12.083,2.6358 -36.933,23.1187 -68.745,43.0231 -95.433001,59.7131 -3.942,2.462 -7.771,4.802 -11.033,7.845 -3.451,3.217 -3.519,10.55 -3.519,15.837 0,64.629 -0.005,97.841 -0.015,99.639 0,0.234 -0.197,0.421 -0.431,0.408 -23.471,-1.238 -43.604,-13.345 -54.071,-34.331 -7.053,-14.137 -9.568,-31.211 -5.959,-46.602 2.651,-11.328 7.56,-23.147 15.014,-31.93 11.924,-14.062 31.272,-23.713 50.061,-23.237 1.585,0.04 4.916,0.227 9.991,0.559 4.267001,0.279 8.465001,-2.756 10.338001,-6.683 0.539,-1.133 1.035,-3.272 1.488,-6.419 0.725,-5.0246 1.346,-8.4183 1.865,-10.1804 8.586,-29.0293 29.822,-54.4029 58.844,-64.53 9.283,-3.2397 18.832,-5.0599 28.387,-5.4308 1.99,-0.0773 3.982,-0.0916 5.971,-0.0428 z m -2.015,66.4224 c 0.62,-0.0326 1.222,0.0845 1.662,0.3599 l 86.283,53.9407 c 0.881,0.551 0.774,1.503 -0.242,2.147 l -86.056,54.47 c -1.016,0.644 -2.555,0.732 -3.431,0.173 l -86.023,-54.935 c -0.875,-0.56 -0.779,-1.51 0.242,-2.147 l 85.796,-53.4761 c 0.511,-0.3182 1.149,-0.4999 1.769,-0.5325 z m 96.348,76.8566 c 0.114,-0.07 0.261,0.011 0.265,0.144 l -0.084,38.914 -0.121,25.79 c 0.061,0.041 0.123,0.086 0.189,0.136 0.028,0.02 0.046,0.05 0.046,0.083 v 36.785 c 0,0.527 -0.27,1.016 -0.717,1.298 l -84.242,53.378 c -0.118,0.069 -0.266,-0.015 -0.271,-0.152 l -0.128,-37.57 -0.121,-25.91 -0.196,-0.016 c -0.013,0 -0.024,-0.009 -0.024,-0.022 V 221.09 c -0.001,-0.526 0.272,-1.015 0.718,-1.292 z m -192.593,0.15 c 0.798,-0.032 1.98,0.34 2.612,0.747 l 83.23,53.531 c 1.011,0.65 0.244,1.107 0.242,2.146 l -0.199,98.218 c -1.039,0 -2.411,0.464 -3.431,-0.172 l -82.863,-51.685 c -1.02,-0.637 -0.239,-1.107 -0.24,-2.146 l -0.17,-100.067 c 0,-0.389 0.34,-0.553 0.819,-0.572 z"
     fill="#cd4a77"
     id="path1" />
  <path
     d="m 301.02612,205.193 -85.366,53.837 c -0.065,-0.005 -0.131,-0.01 -0.196,-0.015 -0.006,0 -0.012,-0.003 -0.016,-0.007 -0.004,-0.004 -0.007,-0.01 -0.007,-0.016 v -37.903 c 0,-0.258 0.066,-0.513 0.191,-0.739 0.126,-0.226 0.307,-0.416 0.527,-0.552 l 84.686,-53.664 c 0.026,-0.015 0.056,-0.024 0.086,-0.025 0.031,-0.001 0.061,0.006 0.088,0.021 0.026,0.014 0.049,0.036 0.065,0.062 0.016,0.026 0.025,0.055 0.025,0.086 z"
     fill="#9c213b"
     id="path2" />
  <path
     d="m 301.02612,205.192 -0.121,25.79 -85.124,53.958 -0.121,-25.91 z"
     fill="#ffffff"
     id="path3" />
  <path
     d="m 215.78112,284.94 85.125,-53.958 c 0.06,0.04 0.123,0.086 0.188,0.136 0.014,0.01 0.026,0.022 0.034,0.037 0.008,0.014 0.012,0.03 0.012,0.046 v 36.785 c 0,0.259 -0.066,0.514 -0.191,0.741 -0.126,0.227 -0.307,0.419 -0.527,0.558 l -84.241,53.376 c -0.027,0.016 -0.057,0.024 -0.089,0.025 -0.031,0 -0.062,-0.008 -0.089,-0.023 -0.028,-0.015 -0.051,-0.037 -0.067,-0.064 -0.016,-0.027 -0.025,-0.057 -0.026,-0.089 z"
     fill="#9c213b"
     id="path4" />
</svg>
