<svg width="1016" height="265" viewBox="0 0 1016 265" fill="none" xmlns="http://www.w3.org/2000/svg">
<path d="M72.3877 29.2192C72.3706 29.2107 70.9351 28.0436 68.0812 25.7179C54.408 14.5492 33.7192 18.4979 24.8635 33.7046C20.1481 41.7936 19.5859 53.1666 22.8828 61.6006C26.3714 70.5713 34.2814 77.3186 44.1466 78.9159C55.213 80.722 64.6139 77.5016 72.3493 69.2551C72.4935 69.1023 72.667 68.9803 72.8596 68.8961C73.0523 68.8119 73.2602 68.7673 73.471 68.7649C73.6818 68.7626 73.8914 68.8025 74.0872 68.8823C74.283 68.9621 74.4612 69.0801 74.6112 69.2296L86.7638 81.3694C86.9247 81.5294 87.0164 81.7458 87.0188 81.9711C87.0212 82.1963 86.9341 82.412 86.7765 82.5706C78.1126 91.5796 68.2729 96.9467 55.7114 98.1096C24.6463 100.998 -1.25629 79.6187 0.0471429 47.5951C0.941656 25.4495 14.9727 7.84036 36.2366 2.2177C53.7051 -2.40821 74.2278 1.38706 86.8916 15.3798C87.0091 15.5105 87.0722 15.681 87.0674 15.855C87.0627 16.0291 86.9904 16.1932 86.866 16.3126L73.9211 29.0147C73.7209 29.2081 73.4639 29.3323 73.188 29.3691C72.9121 29.4059 72.6316 29.3534 72.3877 29.2192Z" fill="#CD4A77"/>
<path d="M265.991 45.6159C266.465 52.0744 265.63 58.5655 263.533 64.7186C261.436 70.8716 258.119 76.5662 253.77 81.477C249.422 86.3878 244.127 90.4188 238.188 93.3398C232.25 96.2608 225.784 98.0146 219.16 98.5011C212.536 98.9875 205.883 98.1971 199.581 96.175C193.28 94.1528 187.453 90.9385 182.434 86.7156C177.414 82.4927 173.301 77.344 170.328 71.5632C167.354 65.7825 165.58 59.483 165.106 53.0245C164.631 46.566 165.466 40.0749 167.563 33.9219C169.66 27.7688 172.977 22.0742 177.326 17.1634C181.675 12.2525 186.969 8.22158 192.908 5.30058C198.846 2.37958 205.312 0.625772 211.937 0.139314C218.561 -0.347143 225.213 0.443228 231.515 2.46537C237.816 4.48752 243.643 7.70184 248.663 11.9247C253.682 16.1476 257.796 21.2964 260.769 27.0771C263.742 32.8579 265.516 39.1573 265.991 45.6159ZM215.231 19.1646C211.358 19.2119 207.533 20.0384 203.973 21.5969C200.414 23.1555 197.19 25.4155 194.485 28.248C191.781 31.0805 189.649 34.4299 188.212 38.1051C186.775 41.7804 186.06 45.7094 186.108 49.6678C186.206 57.6622 189.407 65.2911 195.006 70.8764C200.606 76.4617 208.146 79.5458 215.968 79.4502C219.84 79.4029 223.666 78.5764 227.225 77.0178C230.785 75.4593 234.009 73.1993 236.713 70.3668C239.417 67.5343 241.549 64.1849 242.987 60.5096C244.424 56.8344 245.139 52.9055 245.09 48.9471C244.993 40.9527 241.792 33.3237 236.192 27.7384C230.593 22.1531 223.053 19.069 215.231 19.1646Z" fill="#CD4A77"/>
<path d="M584.511 65.4212C584.56 65.4883 584.629 65.5382 584.708 65.5639C584.787 65.5895 584.872 65.5896 584.951 65.5642C585.031 65.5387 585.1 65.489 585.149 65.4221C585.198 65.3551 585.225 65.2743 585.226 65.1912V2.25575C585.226 2.0524 585.307 1.8574 585.451 1.71361C585.595 1.56982 585.79 1.48906 585.993 1.48906H604.241C604.516 1.48906 604.779 1.59811 604.973 1.79223C605.167 1.98634 605.276 2.24961 605.276 2.52413V95.1574C605.276 95.3225 605.214 95.4813 605.102 95.6004C604.99 95.7196 604.837 95.7898 604.676 95.7964C597.451 96.1797 590.653 96.1797 584.281 95.7964C582.07 95.6558 580.83 93.624 579.591 91.8478C577.793 89.3005 564.461 70.7074 539.593 36.0684C539.563 36.029 539.521 36 539.473 35.9853C539.425 35.9706 539.374 35.9709 539.327 35.9863C539.279 36.0016 539.238 36.0312 539.208 36.0711C539.178 36.1109 539.161 36.1591 539.159 36.209V95.1702C539.159 95.4278 539.057 95.6748 538.874 95.857C538.692 96.0391 538.445 96.1414 538.188 96.1414H520.285C519.949 96.1414 519.627 96.0081 519.39 95.7709C519.153 95.5336 519.02 95.2119 519.02 94.8763V2.57522C519.02 2.27698 519.138 1.99095 519.349 1.78006C519.56 1.56917 519.846 1.45068 520.144 1.45068H536.539C537.173 1.45081 537.796 1.60037 538.358 1.88699C538.92 2.17361 539.405 2.58911 539.772 3.09919L584.511 65.4212Z" fill="#CD4A77"/>
<path d="M667.418 1.25928C670.383 1.2678 673.535 1.30609 676.874 1.37424C677.453 1.38555 678.016 1.56887 678.491 1.90095C678.966 2.23303 679.333 2.69899 679.545 3.23997L715.811 95.2727C715.847 95.3621 715.86 95.4589 715.849 95.5546C715.839 95.6502 715.805 95.7418 715.751 95.8213C715.696 95.9008 715.623 95.9657 715.538 96.0105C715.453 96.0552 715.358 96.0783 715.262 96.0778H696.273C695.741 96.0772 695.222 95.9124 694.788 95.6059C694.353 95.2994 694.024 94.8661 693.845 94.3654L688.005 78.1619C687.898 77.867 687.71 77.6084 687.464 77.4162C687.217 77.224 686.922 77.106 686.612 77.0757C685.249 76.9394 678.83 76.867 667.354 76.8584C655.879 76.8499 649.46 76.9139 648.097 77.0502C647.788 77.0793 647.494 77.1954 647.247 77.3853C647.001 77.5752 646.813 77.831 646.704 78.1235L640.838 94.3271C640.657 94.8255 640.327 95.2559 639.893 95.56C639.458 95.8641 638.941 96.027 638.41 96.0266L619.421 96.0011C619.325 96.0016 619.23 95.9785 619.145 95.9338C619.06 95.8891 618.987 95.8241 618.932 95.7446C618.878 95.6652 618.844 95.5736 618.834 95.4779C618.823 95.3822 618.836 95.2855 618.872 95.196L655.278 3.22718C655.49 2.6862 655.857 2.22023 656.333 1.88815C656.808 1.55608 657.37 1.37284 657.949 1.36153C661.289 1.29338 664.445 1.25928 667.418 1.25928ZM654.333 58.2781C654.305 58.3465 654.295 58.4206 654.303 58.4938C654.312 58.567 654.338 58.637 654.379 58.6977C654.421 58.7584 654.477 58.8078 654.543 58.8417C654.608 58.8755 654.681 58.8926 654.754 58.8915L680.095 59.0193C680.167 59.0196 680.238 59.0024 680.302 58.9693C680.366 58.9361 680.421 58.888 680.462 58.829C680.504 58.77 680.53 58.702 680.54 58.6305C680.549 58.5591 680.541 58.4864 680.516 58.4187L668.019 24.3505C667.986 24.2675 667.928 24.1963 667.854 24.1462C667.78 24.096 667.693 24.0693 667.603 24.0693C667.514 24.0693 667.427 24.096 667.353 24.1462C667.279 24.1963 667.221 24.2675 667.188 24.3505L654.333 58.2781Z" fill="#CD4A77"/>
<path d="M320.167 79.273C328.639 79.2475 335.284 75.8483 338.3 69.1267C339.859 65.6508 340.562 59.2827 340.408 50.0224C340.187 37.2521 340.114 21.398 340.191 2.45985C340.191 2.24634 340.277 2.04154 340.431 1.89057C340.584 1.73959 340.792 1.65479 341.009 1.65479H359.794C360.007 1.65479 360.212 1.73959 360.363 1.89057C360.514 2.04154 360.599 2.24634 360.599 2.45985C360.522 10.1782 360.569 24.073 360.739 44.1442C360.867 59.0698 360.381 68.5261 359.283 72.5131C354.363 90.3139 339.079 98.3262 320.218 98.3645C301.356 98.4156 286.035 90.48 281.025 72.7047C279.909 68.7177 279.381 59.2614 279.441 44.3358C279.509 24.2646 279.488 10.3699 279.377 2.65149C279.377 2.43797 279.462 2.23326 279.613 2.08228C279.764 1.9313 279.969 1.84642 280.182 1.84642L298.967 1.75704C299.074 1.75702 299.181 1.77781 299.28 1.81826C299.379 1.85871 299.469 1.91798 299.545 1.99274C299.621 2.0675 299.681 2.15626 299.722 2.25395C299.764 2.35163 299.785 2.45637 299.785 2.56211C299.955 21.5002 299.959 37.3544 299.797 50.1246C299.687 59.385 300.419 65.7488 301.995 69.2161C305.037 75.925 311.707 79.2858 320.167 79.273Z" fill="#CD4A77"/>
<path d="M380.291 2.56272C380.291 2.41699 380.349 2.2772 380.452 2.17415C380.555 2.0711 380.695 2.01317 380.84 2.01317L419.368 1.94929C431.696 1.92829 443.527 6.66198 452.26 15.1093C460.992 23.5566 465.911 35.0258 465.934 46.9944V50.7258C465.946 56.6539 464.754 62.5262 462.428 68.0073C460.102 73.4885 456.686 78.4711 452.376 82.6707C448.066 86.8703 442.946 90.2045 437.309 92.483C431.672 94.7615 425.628 95.9395 419.522 95.9499L380.994 96.0138C380.848 96.0138 380.708 95.9559 380.605 95.8529C380.502 95.7498 380.444 95.61 380.444 95.4643L380.291 2.56272ZM400.686 20.913V77.3185C400.686 77.4439 400.736 77.5641 400.824 77.6528C400.913 77.7415 401.033 77.7913 401.159 77.7913H417.107C424.498 77.7913 431.587 75.0327 436.814 70.1223C442.041 65.2119 444.977 58.5519 444.977 51.6076V46.6239C444.977 39.6795 442.041 33.0196 436.814 28.1092C431.587 23.1988 424.498 20.4402 417.107 20.4402H401.159C401.097 20.4402 401.035 20.4524 400.978 20.4762C400.92 20.4999 400.868 20.5347 400.824 20.5786C400.78 20.6226 400.746 20.6747 400.722 20.7321C400.698 20.7894 400.686 20.8509 400.686 20.913Z" fill="#CD4A77"/>
<path d="M99.9883 95.0681V2.92041C99.9883 2.68317 100.083 2.45562 100.25 2.28787C100.418 2.12011 100.646 2.02588 100.883 2.02588H119.399C119.636 2.02588 119.864 2.12011 120.032 2.28787C120.199 2.45562 120.294 2.68317 120.294 2.92041V76.7562C120.294 76.9934 120.388 77.2209 120.556 77.3886C120.723 77.5564 120.951 77.6506 121.188 77.6506H159.78C159.898 77.6506 160.014 77.6738 160.122 77.7187C160.231 77.7637 160.33 77.8296 160.413 77.9126C160.496 77.9957 160.562 78.0943 160.607 78.2028C160.651 78.3114 160.675 78.4277 160.675 78.5452V95.0681C160.675 95.3053 160.58 95.5329 160.413 95.7006C160.245 95.8684 160.017 95.9626 159.78 95.9626H100.883C100.646 95.9626 100.418 95.8684 100.25 95.7006C100.083 95.5329 99.9883 95.3053 99.9883 95.0681Z" fill="#CD4A77"/>
<path d="M825.872 2.0127H807.547C806.997 2.0127 806.551 2.45899 806.551 3.00948V95.17C806.551 95.7204 806.997 96.1667 807.547 96.1667H825.872C826.423 96.1667 826.869 95.7204 826.869 95.17V3.00948C826.869 2.45899 826.423 2.0127 825.872 2.0127Z" fill="#CD4A77"/>
<path d="M751.475 2.47332C775.738 2.5074 788.934 2.56278 791.064 2.63945C791.26 2.64608 791.445 2.72839 791.581 2.86907C791.717 3.00975 791.793 3.19774 791.792 3.39335V19.7502C791.792 20.0111 791.69 20.2614 791.508 20.446C791.326 20.6305 791.079 20.7342 790.821 20.7342H762.159C761.969 20.7342 761.787 20.8095 761.653 20.9437C761.518 21.0779 761.443 21.26 761.443 21.4498V95.0044C761.443 95.2533 761.346 95.4929 761.173 95.6736C760.999 95.8544 760.762 95.9625 760.51 95.9756C758.866 96.0437 755.807 96.0735 751.335 96.065C746.862 96.0565 743.804 96.0181 742.16 95.95C741.906 95.9368 741.666 95.8269 741.493 95.6435C741.319 95.46 741.223 95.2172 741.227 94.9661L741.457 21.4242C741.459 21.3291 741.441 21.2347 741.406 21.1464C741.371 21.0581 741.319 20.9777 741.252 20.9099C741.185 20.8421 741.106 20.7882 741.018 20.7515C740.93 20.7147 740.836 20.6958 740.741 20.6958L712.079 20.6064C711.951 20.6064 711.825 20.581 711.707 20.5315C711.589 20.4821 711.482 20.4096 711.392 20.3182C711.302 20.2268 711.23 20.1184 711.181 19.999C711.132 19.8796 711.107 19.7516 711.107 19.6224L711.171 3.2656C711.171 3.06999 711.247 2.88199 711.383 2.74131C711.519 2.60063 711.704 2.51824 711.9 2.51161C714.029 2.44346 727.221 2.43072 751.475 2.47332Z" fill="#CD4A77"/>
<path d="M889.333 73.2553C889.52 73.2553 889.669 73.0977 889.78 72.7825C896.578 53.8699 904.965 30.8724 914.941 3.7899C915.077 3.42182 915.323 3.10435 915.645 2.88039C915.968 2.65644 916.351 2.53681 916.743 2.5376H937.087C937.192 2.53907 937.294 2.56572 937.386 2.61528C937.479 2.66485 937.557 2.73588 937.616 2.82236C937.675 2.90885 937.713 3.00821 937.725 3.11212C937.737 3.21603 937.724 3.32143 937.688 3.41934L902.048 94.6853C901.891 95.0833 901.623 95.427 901.276 95.6744C900.929 95.9218 900.517 96.0622 900.092 96.0782C899.172 96.1123 895.599 96.1336 889.371 96.1421C883.144 96.1506 879.57 96.1421 878.65 96.1165C878.225 96.1005 877.813 95.9602 877.466 95.7128C877.119 95.4654 876.851 95.1216 876.695 94.7237L840.773 3.57268C840.734 3.47411 840.719 3.36735 840.73 3.26171C840.741 3.15607 840.778 3.05476 840.837 2.96658C840.896 2.87839 840.976 2.80602 841.07 2.75575C841.163 2.70549 841.268 2.67883 841.374 2.67815L861.718 2.62706C862.109 2.6253 862.491 2.74307 862.813 2.96463C863.135 3.18618 863.382 3.50088 863.52 3.86657C873.581 30.9235 882.036 53.8954 888.885 72.7825C889.005 73.0977 889.154 73.2553 889.333 73.2553Z" fill="#CD4A77"/>
<path d="M1015.28 78.8774V95.1831C1015.28 95.3006 1015.26 95.4169 1015.21 95.5254C1015.17 95.6339 1015.1 95.7326 1015.02 95.8156C1014.94 95.8987 1014.84 95.9646 1014.73 96.0095C1014.62 96.0545 1014.5 96.0776 1014.39 96.0776H952.269C952.152 96.0776 952.036 96.0545 951.927 96.0095C951.819 95.9646 951.72 95.8987 951.637 95.8156C951.554 95.7326 951.488 95.6339 951.443 95.5254C951.398 95.4169 951.375 95.3006 951.375 95.1831V3.52099C951.375 3.28375 951.469 3.05621 951.637 2.88845C951.805 2.7207 952.032 2.62646 952.269 2.62646H1013.82C1014.06 2.62646 1014.29 2.7207 1014.46 2.88845C1014.62 3.05621 1014.72 3.28375 1014.72 3.52099V19.6989C1014.72 19.9361 1014.62 20.1637 1014.46 20.3314C1014.29 20.4992 1014.06 20.5934 1013.82 20.5934H972.358C972.12 20.5934 971.893 20.6876 971.725 20.8554C971.557 21.0232 971.463 21.2507 971.463 21.4879V39.6465C971.463 39.8838 971.557 40.1113 971.725 40.2791C971.893 40.4468 972.12 40.5411 972.358 40.5411H1008.56C1008.8 40.5411 1009.02 40.6353 1009.19 40.803C1009.36 40.9708 1009.45 41.1983 1009.45 41.4356V57.0257C1009.45 57.2629 1009.36 57.4904 1009.19 57.6582C1009.02 57.8259 1008.8 57.9201 1008.56 57.9201H972.422C972.184 57.9201 971.957 58.0145 971.789 58.1822C971.621 58.35 971.527 58.5774 971.527 58.8147V77.0883C971.527 77.3255 971.621 77.5531 971.789 77.7208C971.957 77.8886 972.184 77.9828 972.422 77.9828H1014.39C1014.62 77.9828 1014.85 78.0771 1015.02 78.2448C1015.19 78.4126 1015.28 78.6401 1015.28 78.8774Z" fill="#CD4A77"/>
<path d="M627.01 130.9H657.398C657.499 130.902 657.599 130.927 657.688 130.976C657.778 131.024 657.854 131.093 657.91 131.177C657.967 131.262 658.002 131.358 658.013 131.459C658.024 131.56 658.01 131.662 657.973 131.757L605.35 264.541C605.304 264.656 605.225 264.756 605.123 264.826C605.021 264.897 604.899 264.935 604.775 264.937H571.231C571.106 264.935 570.985 264.897 570.883 264.826C570.781 264.756 570.701 264.656 570.656 264.541L518.352 131.795C518.315 131.699 518.301 131.596 518.313 131.494C518.324 131.392 518.361 131.295 518.419 131.21C518.477 131.126 518.554 131.057 518.645 131.01C518.736 130.962 518.838 130.938 518.94 130.939H550.184C550.312 130.939 550.437 130.978 550.542 131.051C550.647 131.124 550.728 131.228 550.772 131.348L587.945 234.472C587.99 234.593 588.07 234.697 588.175 234.77C588.28 234.843 588.405 234.883 588.533 234.883C588.662 234.883 588.787 234.843 588.892 234.77C588.997 234.697 589.077 234.593 589.121 234.472L626.422 131.309C626.467 131.189 626.547 131.086 626.652 131.012C626.757 130.939 626.882 130.9 627.01 130.9Z" fill="#9C213B"/>
<path d="M200.429 238.522H256.285C256.381 238.522 256.476 238.541 256.564 238.578C256.652 238.614 256.733 238.668 256.8 238.736C256.868 238.803 256.922 238.884 256.958 238.972C256.995 239.06 257.014 239.155 257.014 239.251V264.208C257.014 264.303 256.995 264.398 256.958 264.486C256.922 264.575 256.868 264.655 256.8 264.723C256.733 264.79 256.652 264.844 256.564 264.881C256.476 264.917 256.381 264.936 256.285 264.936H171.894C171.799 264.936 171.704 264.917 171.616 264.881C171.527 264.844 171.447 264.79 171.379 264.723C171.312 264.655 171.258 264.575 171.221 264.486C171.185 264.398 171.166 264.303 171.166 264.208V131.845C171.166 131.749 171.185 131.655 171.221 131.566C171.258 131.478 171.312 131.398 171.379 131.33C171.447 131.262 171.527 131.209 171.616 131.172C171.704 131.136 171.799 131.117 171.894 131.117H198.973C199.166 131.117 199.351 131.193 199.488 131.33C199.624 131.467 199.701 131.652 199.701 131.845V237.794C199.701 237.987 199.778 238.172 199.914 238.309C200.051 238.446 200.236 238.522 200.429 238.522Z" fill="#9C213B"/>
<path d="M452.761 131.002C474.791 130.993 492.217 130.976 505.039 130.951C505.225 130.951 505.404 131.025 505.536 131.157C505.668 131.288 505.742 131.467 505.742 131.654V155.665C505.742 155.865 505.662 156.057 505.521 156.198C505.379 156.339 505.188 156.419 504.988 156.419H467.891C467.792 156.419 467.694 156.438 467.602 156.476C467.511 156.514 467.428 156.57 467.358 156.64C467.288 156.71 467.232 156.793 467.194 156.884C467.156 156.976 467.137 157.074 467.137 157.173V264.08C467.137 264.195 467.114 264.309 467.07 264.415C467.025 264.522 466.96 264.618 466.878 264.699C466.796 264.78 466.699 264.844 466.592 264.886C466.485 264.929 466.37 264.951 466.255 264.949C464.781 264.923 460.305 264.911 452.825 264.911C445.353 264.919 440.881 264.936 439.407 264.962C439.292 264.963 439.178 264.942 439.071 264.899C438.964 264.856 438.866 264.793 438.784 264.712C438.702 264.631 438.637 264.534 438.593 264.428C438.548 264.322 438.525 264.208 438.525 264.093L438.423 157.186C438.423 156.986 438.344 156.794 438.202 156.652C438.061 156.511 437.869 156.432 437.669 156.432L400.572 156.47C400.372 156.47 400.181 156.39 400.039 156.249C399.898 156.108 399.819 155.916 399.819 155.716L399.793 131.705C399.793 131.518 399.867 131.339 399.999 131.208C400.131 131.076 400.309 131.002 400.496 131.002C413.317 131.01 430.739 131.01 452.761 131.002Z" fill="#9C213B"/>
<path d="M705.13 130.925H678.166C677.799 130.925 677.502 131.222 677.502 131.589V264.31C677.502 264.677 677.799 264.974 678.166 264.974H705.13C705.497 264.974 705.794 264.677 705.794 264.31V131.589C705.794 131.222 705.497 130.925 705.13 130.925Z" fill="#9C213B"/>
<path d="M367.488 238.855H311.274C311.14 238.855 311.009 238.897 310.899 238.975C310.789 239.052 310.706 239.162 310.661 239.289L301.524 264.527C301.479 264.654 301.396 264.764 301.286 264.842C301.177 264.92 301.045 264.962 300.911 264.962H272.414C272.307 264.963 272.201 264.938 272.106 264.889C272.01 264.839 271.929 264.767 271.868 264.679C271.807 264.59 271.77 264.488 271.758 264.381C271.746 264.275 271.761 264.167 271.801 264.067L323.529 131.577C323.578 131.455 323.663 131.35 323.773 131.277C323.882 131.204 324.011 131.166 324.143 131.168H355.617C355.75 131.167 355.88 131.207 355.99 131.283C356.099 131.358 356.183 131.465 356.23 131.59L407.498 264.118C407.535 264.216 407.548 264.322 407.536 264.426C407.523 264.529 407.486 264.629 407.427 264.715C407.368 264.802 407.29 264.873 407.197 264.922C407.105 264.972 407.002 264.999 406.898 265H377.839C377.704 265 377.573 264.958 377.463 264.88C377.353 264.802 377.27 264.693 377.226 264.566L368.102 239.289C368.057 239.162 367.974 239.052 367.864 238.975C367.754 238.897 367.623 238.855 367.488 238.855ZM320.194 213.732C320.168 213.804 320.159 213.882 320.169 213.959C320.178 214.036 320.206 214.109 320.25 214.173C320.294 214.236 320.352 214.289 320.42 214.325C320.488 214.362 320.564 214.382 320.641 214.383L358.505 214.78C358.582 214.779 358.657 214.761 358.726 214.726C358.794 214.691 358.853 214.64 358.898 214.578C358.943 214.515 358.972 214.443 358.984 214.367C358.996 214.291 358.989 214.214 358.965 214.141L340.563 163.294C340.53 163.201 340.469 163.122 340.388 163.065C340.308 163.008 340.212 162.976 340.114 162.975C340.016 162.974 339.919 163.002 339.837 163.057C339.756 163.111 339.692 163.19 339.656 163.281L320.194 213.732Z" fill="#9C213B"/>
<path d="M777.748 131.142H810.04C810.164 131.142 810.286 131.18 810.389 131.25C810.492 131.321 810.57 131.422 810.615 131.538L861.896 264.092C861.931 264.185 861.943 264.285 861.931 264.384C861.919 264.483 861.883 264.577 861.826 264.659C861.77 264.741 861.694 264.807 861.606 264.853C861.518 264.899 861.42 264.923 861.321 264.923H831.827C831.701 264.922 831.578 264.883 831.475 264.809C831.372 264.736 831.294 264.633 831.252 264.514L822.128 239.263C822.086 239.144 822.008 239.041 821.905 238.968C821.803 238.895 821.68 238.855 821.553 238.854H765.058C764.932 238.855 764.809 238.895 764.706 238.968C764.603 239.041 764.525 239.144 764.483 239.263L755.347 264.489C755.304 264.608 755.227 264.711 755.124 264.784C755.021 264.857 754.898 264.897 754.771 264.897H725.981C725.883 264.896 725.786 264.87 725.7 264.823C725.613 264.776 725.539 264.709 725.484 264.628C725.429 264.547 725.394 264.453 725.383 264.355C725.372 264.258 725.384 264.159 725.419 264.067L777.173 131.538C777.217 131.422 777.296 131.321 777.398 131.25C777.501 131.18 777.623 131.142 777.748 131.142ZM774.067 213.552C774.032 213.647 774.021 213.749 774.034 213.849C774.046 213.949 774.083 214.045 774.141 214.128C774.199 214.21 774.276 214.278 774.365 214.325C774.455 214.372 774.554 214.396 774.655 214.396L812.429 214.728C812.531 214.73 812.632 214.707 812.724 214.662C812.815 214.616 812.893 214.548 812.953 214.465C813.012 214.382 813.05 214.286 813.063 214.184C813.077 214.083 813.065 213.98 813.03 213.885L794.577 163.408C794.534 163.288 794.456 163.183 794.351 163.108C794.247 163.034 794.122 162.993 793.994 162.992C793.866 162.99 793.74 163.028 793.634 163.1C793.528 163.173 793.447 163.276 793.402 163.396L774.067 213.552Z" fill="#9C213B"/>
</svg>
