<svg xmlns="http://www.w3.org/2000/svg" viewBox="0 0 32 32" fill="none">
  <!-- Simplified cloud+cube for favicon -->
  <path d="M25.5 12c0-4.4-3.6-8-8-8-3.3 0-6.3 2-7.5 5-.6-.2-1.3-.3-2-.3-3.2 0-5.9 2.7-5.9 5.9 0 .3 0 .5.1.8C1 16.2 0 18 0 20c0 3.2 2.7 5.9 5.9 5.9h18.8c3.7 0 6.7-3 6.7-6.7 0-3.3-2.4-6.2-5.7-6.7-.1-.3-.2-.5-.2-.5z" fill="#fce4ec" stroke="#c2185b" stroke-width="1.5"/>
  
  <!-- Mini cube -->
  <g transform="translate(9, 10)">
    <path d="M7 0 L14 4 L7 8 L0 4 Z" fill="#fce4ec" stroke="#c2185b" stroke-width="1"/>
    <path d="M0 4 L7 8 L7 16 L0 12 Z" fill="#f48fb1" stroke="#c2185b" stroke-width="1"/>
    <path d="M14 4 L7 8 L7 16 L14 12 Z" fill="#880e4f" stroke="#c2185b" stroke-width="1"/>
    <path d="M7 11 L14 7 L14 9 L7 13 Z" fill="#fce4ec"/>
  </g>
</svg>
