<?xml version="1.0" encoding="UTF-8" standalone="no"?>
<svg
   version="1.1"
   viewBox="0.00 0.00 1024.00 1024.00"
   id="svg71"
   sodipodi:docname="A_logo_for_Cloud_Native_Latvia_is_set_against_a_da.svg"
   inkscape:version="1.4 (e7c3feb1, 2024-10-09)"
   xmlns:inkscape="http://www.inkscape.org/namespaces/inkscape"
   xmlns:sodipodi="http://sodipodi.sourceforge.net/DTD/sodipodi-0.dtd"
   xmlns="http://www.w3.org/2000/svg"
   xmlns:svg="http://www.w3.org/2000/svg">
  <defs
     id="defs71" />
  <sodipodi:namedview
     id="namedview71"
     pagecolor="#ffffff"
     bordercolor="#000000"
     borderopacity="0.25"
     inkscape:showpageshadow="2"
     inkscape:pageopacity="0.0"
     inkscape:pagecheckerboard="0"
     inkscape:deskcolor="#d1d1d1"
     inkscape:zoom="0.82167699"
     inkscape:cx="573.82646"
     inkscape:cy="510.54125"
     inkscape:window-width="1728"
     inkscape:window-height="1080"
     inkscape:window-x="0"
     inkscape:window-y="37"
     inkscape:window-maximized="0"
     inkscape:current-layer="svg71" />
  <path
     fill="#cd4a77"
     d="   M 353.28 502.27   C 343.69 502.04 332.64 500.81 323.77 497.80   Q 295.50 488.22 276.50 469.24   Q 250.87 443.63 244.01 408.00   C 238.57 379.78 242.15 349.74 255.83 324.36   Q 266.56 304.47 282.51 290.01   C 303.16 271.30 331.40 260.64 359.50 260.76   A 0.91 0.89 5.8 0 0 360.39 260.05   C 369.42 216.93 398.29 177.25 437.22 156.49   Q 455.32 146.85 475.74 141.74   C 486.80 138.98 500.01 137.90 513.28 137.96   Q 522.18 138.01 528.69 138.67   C 589.43 144.81 639.05 186.17 658.47 243.63   A 1.56 1.56 0.0 0 0 659.85 244.70   Q 701.07 247.50 732.62 273.63   C 767.11 302.18 785.68 346.91 779.82 391.37   C 777.68 407.68 771.68 425.46 763.32 440.14   C 744.16 473.82 709.76 498.43 670.86 502.35   A 1.34 1.33 -84.4 0 0 669.72 503.29   C 668.44 507.54 667.42 510.52 663.63 513.38   Q 656.35 518.88 641.74 527.99   Q 542.79 589.70 520.56 603.60   Q 512.92 608.37 506.02 604.06   Q 410.34 544.29 366.30 517.54   C 360.37 513.94 354.67 510.55 354.10 503.04   A 0.83 0.82 -1.5 0 0 353.28 502.27   Z   M 670.38 471.46   Q 675.90 470.80 681.03 469.27   C 719.54 457.83 746.54 423.34 749.89 383.48   C 751.38 365.83 748.39 348.43 740.40 332.71   Q 735.93 323.90 734.67 321.83   Q 726.99 309.26 715.67 299.34   Q 688.45 275.52 652.99 275.19   C 643.50 275.10 639.46 275.17 634.27 268.26   Q 632.94 266.49 630.99 258.36   Q 627.98 245.84 621.10 233.66   C 608.89 212.07 590.81 193.23 568.87 181.99   C 537.60 165.96 502.32 164.03 469.54 175.47   C 431.11 188.88 402.99 222.48 391.62 260.92   Q 390.59 264.42 389.15 274.40   Q 388.25 280.65 387.18 282.90   C 384.70 288.10 379.14 292.12 373.49 291.75   Q 363.41 291.09 360.26 291.01   C 335.38 290.38 309.76 303.16 293.97 321.78   C 284.10 333.41 277.60 349.06 274.09 364.06   C 269.31 384.44 272.64 407.05 281.98 425.77   C 295.84 453.56 322.50 469.59 353.58 471.23   A 0.54 0.54 0.0 0 0 354.15 470.69   Q 354.17 467.12 354.17 338.75   C 354.17 331.75 354.26 322.04 358.83 317.78   C 363.15 313.75 368.22 310.65 373.44 307.39   Q 426.45 274.24 499.81 228.32   Q 507.78 223.33 515.81 224.83   Q 519.70 225.55 526.93 230.10   Q 585.88 267.11 658.97 312.54   Q 663.03 315.06 665.56 317.92   C 669.71 322.62 669.95 329.45 669.95 335.25   Q 669.96 386.99 669.92 471.05   A 0.42 0.40 -2.5 0 0 670.38 471.46   Z   M 556.82 284.64   A 0.32 0.32 0.0 0 0 556.82 284.10   L 512.48 255.87   A 0.32 0.32 0.0 0 0 512.14 255.87   L 467.72 284.01   A 0.32 0.32 0.0 0 0 467.72 284.55   L 512.06 312.78   A 0.32 0.32 0.0 0 0 512.40 312.78   L 556.82 284.64   Z   M 630.04 329.04   Q 609.07 316.28 588.43 302.65   Q 586.47 301.35 584.68 302.42   C 570.28 311.02 557.41 319.02 541.10 329.89   A 0.70 0.70 0.0 0 0 541.12 331.06   C 554.76 339.45 567.89 348.14 581.70 356.60   Q 583.95 357.98 585.85 356.84   Q 607.38 343.94 630.04 329.69   A 0.38 0.38 0.0 0 0 630.04 329.04   Z   M 395.18 328.94   A 0.38 0.38 0.0 0 0 395.17 329.58   L 439.88 358.05   A 0.38 0.38 0.0 0 0 440.28 358.05   L 483.70 330.55   A 0.38 0.38 0.0 0 0 483.71 329.91   L 438.99 301.44   A 0.38 0.38 0.0 0 0 438.59 301.44   L 395.18 328.94   Z   M 468.48 375.40   A 0.67 0.67 0.0 0 0 468.48 376.53   L 511.67 404.03   A 0.67 0.67 0.0 0 0 512.39 404.03   L 555.69 376.59   A 0.67 0.67 0.0 0 0 555.69 375.46   L 512.51 347.96   A 0.67 0.67 0.0 0 0 511.79 347.96   L 468.48 375.40   Z   M 429.29 386.54   A 0.36 0.36 0.0 0 0 429.13 386.23   L 384.61 357.20   A 0.36 0.36 0.0 0 0 384.05 357.50   L 384.05 409.48   A 0.36 0.36 0.0 0 0 384.22 409.79   L 428.74 438.13   A 0.36 0.36 0.0 0 0 429.29 437.82   L 429.29 386.54   Z   M 527.15 480.96   L 527.31 515.27   L 527.48 565.02   A 0.24 0.24 0.0 0 0 527.84 565.22   L 639.39 494.54   A 2.04 2.03 -16.2 0 0 640.34 492.82   L 640.34 444.11   A 0.14 0.13 17.4 0 0 640.28 444.00   Q 640.15 443.90 640.03 443.82   L 640.19 409.67   L 640.30 358.14   A 0.23 0.23 0.0 0 0 639.95 357.95   L 527.81 429.01   A 2.01 2.01 0.0 0 0 526.86 430.72   L 526.86 480.91   A 0.03 0.03 0.0 0 0 526.89 480.94   Q 527.02 480.95 527.15 480.96   Z   M 498.81 430.58   A 0.39 0.39 0.0 0 0 498.63 430.24   L 458.78 404.86   A 0.39 0.39 0.0 0 0 458.18 405.19   L 458.18 455.44   A 0.39 0.39 0.0 0 0 458.36 455.76   L 497.32 480.58   A 0.39 0.39 0.0 0 0 497.92 480.25   L 498.81 430.58   Z   M 384.04 493.33   A 0.51 0.51 0.0 0 0 384.28 493.76   L 428.53 521.94   A 0.51 0.51 0.0 0 0 429.31 521.51   L 429.31 472.79   A 0.51 0.51 0.0 0 0 429.07 472.36   L 384.82 444.18   A 0.51 0.51 0.0 0 0 384.04 444.61   L 384.04 493.33   Z   M 458.04 539.10   A 0.34 0.34 0.0 0 0 458.20 539.39   L 497.78 564.60   A 0.34 0.34 0.0 0 0 498.30 564.31   L 498.30 514.42   A 0.34 0.34 0.0 0 0 498.14 514.13   L 458.56 489.97   A 0.34 0.34 0.0 0 0 458.04 490.26   L 458.04 539.10   Z"
     id="path40" />
  <path
     fill="#9c213b"
     d="   M 640.19 409.67   L 527.15 480.96   Q 527.02 480.95 526.89 480.94   A 0.03 0.03 0.0 0 1 526.86 480.91   L 526.86 430.72   A 2.01 2.01 0.0 0 1 527.81 429.01   L 639.95 357.95   A 0.23 0.23 0.0 0 1 640.30 358.14   L 640.19 409.67   Z"
     id="path47" />
  <path
     fill="#e9d4db"
     d="   M 640.19 409.67   L 640.03 443.82   L 527.31 515.27   L 527.15 480.96   L 640.19 409.67   Z"
     id="path49"
     style="fill:#ffffff" />
  <path
     fill="#9c213b"
     d="   M 527.31 515.27   L 640.03 443.82   Q 640.15 443.90 640.28 444.00   A 0.14 0.13 17.4 0 1 640.34 444.11   L 640.34 492.82   A 2.04 2.03 -16.2 0 1 639.39 494.54   L 527.84 565.22   A 0.24 0.24 0.0 0 1 527.48 565.02   L 527.31 515.27   Z"
     id="path50" />
  <path
     fill="#cd4a77"
     d="   M 170.49 655.89   Q 170.47 655.88 167.12 653.15   C 156.42 644.41 140.23 647.50 133.30 659.40   C 129.61 665.73 129.17 674.63 131.75 681.23   C 134.48 688.25 140.67 693.53 148.39 694.78   Q 161.38 696.90 170.46 687.22   A 1.24 1.23 44.2 0 1 172.23 687.20   L 181.74 696.70   A 0.67 0.66 44.7 0 1 181.75 697.64   C 174.97 704.69 167.27 708.89 157.44 709.80   C 133.13 712.06 112.86 695.33 113.88 670.27   C 114.58 652.94 125.56 639.16 142.20 634.76   C 155.87 631.14 171.93 634.11 181.84 645.06   A 0.53 0.52 47.0 0 1 181.82 645.79   L 171.69 655.73   A 1.02 1.02 0.0 0 1 170.49 655.89   Z"
     id="path53" />
  <path
     fill="#cd4a77"
     d="   M 321.9937 668.7212   A 39.58 38.59 -4.2 0 1 285.3463 710.1064   A 39.58 38.59 -4.2 0 1 243.0463 674.5188   A 39.58 38.59 -4.2 0 1 279.6937 633.1336   A 39.58 38.59 -4.2 0 1 321.9937 668.7212   Z   M 282.2718 648.0218   A 23.59 23.08 -90.7 0 0 259.4817 671.8920   A 23.59 23.08 -90.7 0 0 282.8482 695.1982   A 23.59 23.08 -90.7 0 0 305.6383 671.3280   A 23.59 23.08 -90.7 0 0 282.2718 648.0218   Z"
     id="path54" />
  <path
     fill="#cd4a77"
     d="   M 571.25 684.22   A 0.31 0.31 0.0 0 0 571.81 684.04   L 571.81 634.79   A 0.60 0.60 0.0 0 1 572.41 634.19   L 586.69 634.19   A 0.81 0.81 0.0 0 1 587.50 635.00   L 587.50 707.49   A 0.50 0.49 88.8 0 1 587.03 707.99   Q 578.55 708.44 571.07 707.99   C 569.34 707.88 568.37 706.29 567.40 704.90   Q 565.29 701.91 536.10 661.25   A 0.19 0.19 0.0 0 0 535.76 661.36   L 535.76 707.50   A 0.76 0.76 0.0 0 1 535.00 708.26   L 520.99 708.26   A 0.99 0.99 0.0 0 1 520.00 707.27   L 520.00 635.04   A 0.88 0.88 0.0 0 1 520.88 634.16   L 533.71 634.16   A 3.13 3.10 -17.8 0 1 536.24 635.45   L 571.25 684.22   Z"
     id="path55" />
  <path
     fill="#cd4a77"
     d="   M 636.13 634.01   Q 639.61 634.02 643.53 634.10   A 2.30 2.29 79.8 0 1 645.62 635.56   L 674.00 707.58   A 0.46 0.46 0.0 0 1 673.57 708.21   L 658.71 708.21   A 2.02 2.02 0.0 0 1 656.81 706.87   L 652.24 694.19   A 1.30 1.29 82.7 0 0 651.15 693.34   Q 649.55 693.18 636.08 693.17   Q 622.61 693.16 621.01 693.32   A 1.30 1.29 -82.6 0 0 619.92 694.16   L 615.33 706.84   A 2.02 2.02 0.0 0 1 613.43 708.17   L 598.57 708.15   A 0.46 0.46 0.0 0 1 598.14 707.52   L 626.63 635.55   A 2.30 2.29 -79.7 0 1 628.72 634.09   Q 632.64 634.01 636.13 634.01   Z   M 625.89 678.63   A 0.35 0.35 0.0 0 0 626.22 679.11   L 646.05 679.21   A 0.35 0.35 0.0 0 0 646.38 678.74   L 636.60 652.08   A 0.35 0.35 0.0 0 0 635.95 652.08   L 625.89 678.63   Z"
     id="path56" />
  <path
     fill="#cd4a77"
     d="   M 364.39 695.06   C 371.02 695.04 376.22 692.38 378.58 687.12   Q 380.41 683.04 380.23 672.17   Q 379.97 657.18 380.06 634.95   A 0.64 0.63 0.0 0 1 380.70 634.32   L 395.40 634.32   A 0.63 0.63 0.0 0 1 396.03 634.95   Q 395.94 644.01 396.14 667.57   Q 396.29 685.09 395.00 689.77   C 391.15 703.70 379.19 709.97 364.43 710.00   C 349.67 710.04 337.68 703.83 333.76 689.92   Q 332.45 685.24 332.52 667.72   Q 332.60 644.16 332.47 635.10   A 0.63 0.63 0.0 0 1 333.10 634.47   L 347.80 634.40   A 0.64 0.63 -0.3 0 1 348.44 635.03   Q 348.64 657.26 348.45 672.25   Q 348.32 683.12 350.17 687.19   C 352.55 692.44 357.77 695.07 364.39 695.06   Z"
     id="path57" />
  <path
     fill="#cd4a77"
     d="   M 411.44 635.03   A 0.43 0.43 0.0 0 1 411.87 634.60   L 442.02 634.55   A 36.38 35.32 -0.1 0 1 478.46 669.80   L 478.46 672.72   A 36.38 35.32 -0.1 0 1 442.14 708.11   L 411.99 708.16   A 0.43 0.43 0.0 0 1 411.56 707.73   L 411.44 635.03   Z   M 427.40 649.39   L 427.40 693.53   A 0.37 0.37 0.0 0 0 427.77 693.90   L 440.25 693.90   A 21.81 20.49 0.0 0 0 462.06 673.41   L 462.06 669.51   A 21.81 20.49 -0.0 0 0 440.25 649.02   L 427.77 649.02   A 0.37 0.37 0.0 0 0 427.40 649.39   Z"
     id="path58" />
  <path
     fill="#cd4a77"
     d="   M 192.09 707.42   L 192.09 635.31   A 0.70 0.70 0.0 0 1 192.79 634.61   L 207.28 634.61   A 0.70 0.70 0.0 0 1 207.98 635.31   L 207.98 693.09   A 0.70 0.70 0.0 0 0 208.68 693.79   L 238.88 693.79   A 0.70 0.70 0.0 0 1 239.58 694.49   L 239.58 707.42   A 0.70 0.70 0.0 0 1 238.88 708.12   L 192.79 708.12   A 0.70 0.70 0.0 0 1 192.09 707.42   Z"
     id="path59" />
  <rect
     fill="#cd4a77"
     x="745.01"
     y="634.60"
     width="15.90"
     height="73.68"
     rx="0.78"
     id="rect59" />
  <path
     fill="#cd4a77"
     d="   M 701.91 634.96   Q 730.39 635.00 732.89 635.09   A 0.59 0.59 0.0 0 1 733.46 635.68   L 733.46 648.48   A 0.77 0.76 -90.0 0 1 732.70 649.25   L 710.27 649.25   A 0.56 0.56 0.0 0 0 709.71 649.81   L 709.71 707.37   A 0.77 0.76 -1.3 0 1 708.98 708.13   Q 707.05 708.21 701.80 708.20   Q 696.55 708.19 694.62 708.11   A 0.77 0.76 1.4 0 1 693.89 707.34   L 694.07 649.79   A 0.56 0.56 0.0 0 0 693.51 649.22   L 671.08 649.15   A 0.77 0.76 -89.8 0 1 670.32 648.38   L 670.37 635.58   A 0.59 0.59 0.0 0 1 670.94 634.99   Q 673.44 634.91 701.91 634.96   Z"
     id="path60" />
  <path
     fill="#cd4a77"
     d="   M 809.79 690.35   Q 810.01 690.35 810.14 689.98   Q 818.12 667.78 829.83 635.99   A 1.50 1.50 0.0 0 1 831.24 635.01   L 847.16 635.01   A 0.51 0.51 0.0 0 1 847.63 635.70   L 819.74 707.12   A 1.72 1.71 -80.3 0 1 818.21 708.21   Q 817.13 708.25 809.82 708.26   Q 802.51 708.27 801.43 708.24   A 1.72 1.71 80.2 0 1 799.90 707.15   L 771.79 635.82   A 0.51 0.51 0.0 0 1 772.26 635.12   L 788.18 635.08   A 1.50 1.50 0.0 0 1 789.59 636.05   Q 801.40 667.81 809.44 689.98   Q 809.58 690.35 809.79 690.35   Z"
     id="path61" />
  <path
     fill="#cd4a77"
     d="   M 908.35 694.75   L 908.35 707.51   A 0.70 0.70 0.0 0 1 907.65 708.21   L 859.04 708.21   A 0.70 0.70 0.0 0 1 858.34 707.51   L 858.34 635.78   A 0.70 0.70 0.0 0 1 859.04 635.08   L 907.21 635.08   A 0.70 0.70 0.0 0 1 907.91 635.78   L 907.91 648.44   A 0.70 0.70 0.0 0 1 907.21 649.14   L 874.76 649.14   A 0.70 0.70 0.0 0 0 874.06 649.84   L 874.06 664.05   A 0.70 0.70 0.0 0 0 874.76 664.75   L 903.09 664.75   A 0.70 0.70 0.0 0 1 903.79 665.45   L 903.79 677.65   A 0.70 0.70 0.0 0 1 903.09 678.35   L 874.81 678.35   A 0.70 0.70 0.0 0 0 874.11 679.05   L 874.11 693.35   A 0.70 0.70 0.0 0 0 874.81 694.05   L 907.65 694.05   A 0.70 0.70 0.0 0 1 908.35 694.75   Z"
     id="path62" />
  <path
     fill="#9c213b"
     d="   M 604.51 735.46   L 628.29 735.46   A 0.49 0.49 0.0 0 1 628.74 736.13   L 587.56 840.04   A 0.49 0.49 0.0 0 1 587.11 840.35   L 560.86 840.35   A 0.49 0.49 0.0 0 1 560.41 840.04   L 519.48 736.16   A 0.49 0.49 0.0 0 1 519.94 735.49   L 544.39 735.49   A 0.49 0.49 0.0 0 1 544.85 735.81   L 573.94 816.51   A 0.49 0.49 0.0 0 0 574.86 816.51   L 604.05 735.78   A 0.49 0.49 0.0 0 1 604.51 735.46   Z"
     id="path65" />
  <path
     fill="#9c213b"
     d="   M 270.69 819.68   L 314.40 819.68   A 0.57 0.57 0.0 0 1 314.97 820.25   L 314.97 839.78   A 0.57 0.57 0.0 0 1 314.40 840.35   L 248.36 840.35   A 0.57 0.57 0.0 0 1 247.79 839.78   L 247.79 736.20   A 0.57 0.57 0.0 0 1 248.36 735.63   L 269.55 735.63   A 0.57 0.57 0.0 0 1 270.12 736.20   L 270.12 819.11   A 0.57 0.57 0.0 0 0 270.69 819.68   Z"
     id="path66" />
  <path
     fill="#9c213b"
     d="   M 468.15 735.54   Q 494.01 735.53 509.06 735.50   A 0.55 0.55 0.0 0 1 509.61 736.05   L 509.61 754.84   A 0.59 0.59 0.0 0 1 509.02 755.43   L 479.99 755.43   A 0.59 0.59 0.0 0 0 479.40 756.02   L 479.40 839.68   A 0.68 0.68 0.0 0 1 478.71 840.36   Q 476.98 840.33 468.20 840.33   Q 459.43 840.34 457.70 840.37   A 0.68 0.68 0.0 0 1 457.01 839.69   L 456.93 756.03   A 0.59 0.59 0.0 0 0 456.34 755.44   L 427.31 755.47   A 0.59 0.59 0.0 0 1 426.72 754.88   L 426.70 736.09   A 0.55 0.55 0.0 0 1 427.25 735.54   Q 442.30 735.55 468.15 735.54   Z"
     id="path67" />
  <rect
     fill="#9c213b"
     x="644.02"
     y="735.48"
     width="22.14"
     height="104.90"
     rx="0.52"
     id="rect67" />
  <path
     fill="#9c213b"
     d="   M 401.42 819.94   L 357.43 819.94   A 0.51 0.51 0.0 0 0 356.95 820.28   L 349.80 840.03   A 0.51 0.51 0.0 0 1 349.32 840.37   L 327.02 840.37   A 0.51 0.51 0.0 0 1 326.54 839.67   L 367.02 735.99   A 0.51 0.51 0.0 0 1 367.50 735.67   L 392.13 735.67   A 0.51 0.51 0.0 0 1 392.61 736.00   L 432.73 839.71   A 0.51 0.51 0.0 0 1 432.26 840.40   L 409.52 840.40   A 0.51 0.51 0.0 0 1 409.04 840.06   L 401.90 820.28   A 0.51 0.51 0.0 0 0 401.42 819.94   Z   M 364.41 800.28   A 0.38 0.38 0.0 0 0 364.76 800.79   L 394.39 801.10   A 0.38 0.38 0.0 0 0 394.75 800.60   L 380.35 760.81   A 0.38 0.38 0.0 0 0 379.64 760.80   L 364.41 800.28   Z"
     id="path68" />
  <path
     fill="#9c213b"
     d="   M 722.47 735.65   L 747.74 735.65   A 0.48 0.48 0.0 0 1 748.19 735.96   L 788.32 839.69   A 0.48 0.48 0.0 0 1 787.87 840.34   L 764.79 840.34   A 0.48 0.48 0.0 0 1 764.34 840.02   L 757.20 820.26   A 0.48 0.48 0.0 0 0 756.75 819.94   L 712.54 819.94   A 0.48 0.48 0.0 0 0 712.09 820.26   L 704.94 840.00   A 0.48 0.48 0.0 0 1 704.49 840.32   L 681.96 840.32   A 0.48 0.48 0.0 0 1 681.52 839.67   L 722.02 735.96   A 0.48 0.48 0.0 0 1 722.47 735.65   Z   M 719.59 800.14   A 0.49 0.49 0.0 0 0 720.05 800.80   L 749.61 801.06   A 0.49 0.49 0.0 0 0 750.08 800.40   L 735.64 760.90   A 0.49 0.49 0.0 0 0 734.72 760.89   L 719.59 800.14   Z"
     id="path69" />
</svg>
