<svg width="1100" height="1100" viewBox="0 0 1100 1100" fill="none" xmlns="http://www.w3.org/2000/svg">
<path d="M655.75 36.5435C638.768 37.3933 615.404 44.1548 597.025 60.7398C581.299 64.0148 566.712 71.1909 555.579 79.4676C530.799 59.9219 499.689 48.1381 466.142 48.131C405.009 48.1182 351.304 87.1029 330.372 141.963C321.262 139.746 311.893 138.691 302.484 139.161C289.621 139.802 277.026 142.988 265.487 148.472L265.326 148.55L227.309 166.711L227.295 166.718C214.103 173.023 202.549 182.192 193.435 193.509C184.324 204.822 177.806 218.099 174.459 232.399C174.43 232.522 174.401 232.646 174.373 232.77L165.046 273.393C165.046 273.394 165.047 273.396 165.046 273.397C163.528 279.948 162.717 286.626 162.577 293.311C158.555 294.194 154.598 295.352 150.734 296.776L149.307 297.395L149.147 297.465C129.591 305.987 112.838 318.292 98.8928 334.017L98.8448 334.071L97.813 335.237C85.2508 349.799 77.6742 367.997 76.1902 387.171C66.1066 403.494 61.4931 422.608 63.0206 441.734L63.1648 443.284C63.1778 443.419 63.1898 443.554 63.2038 443.689C65.2236 464.4 71.9757 485.009 82.5116 502.879L83.1901 504.038C87.2376 510.84 92.1631 517.079 97.8397 522.595C92.618 535.675 90.812 548.249 90.6099 558.21V558.214C90.5429 561.505 90.6329 564.683 90.8419 567.724C90.8421 567.727 90.8417 567.73 90.8419 567.733C91.7733 581.335 94.4874 591.768 97.9381 600.887C84.7283 632.021 90.0533 667.929 111.73 693.889C87.1908 717.154 70.9404 749.614 69.5952 782.706C69.595 782.706 69.5953 782.716 69.5952 782.716C66.6339 855.617 137.023 918.042 204.929 916.329V957.782C204.929 969.806 207.09 980.988 211.802 992.397C216.651 1004.14 223.503 1013.9 231.34 1021.77C231.394 1021.83 231.448 1021.88 231.502 1021.94C240.173 1030.61 250.446 1037.3 261.22 1041.72C271.572 1045.97 283.54 1048.51 295.657 1048.51H362.438C364.716 1048.51 366.976 1048.33 369.234 1048.16C371.84 1048.33 374.423 1048.57 377.116 1048.51L375.198 1048.53H397.749C408.23 1048.53 418.476 1046.6 428.022 1043.22C437.682 1046.69 447.941 1048.56 458.624 1048.56H481.618C481.944 1048.56 482.27 1048.56 482.597 1048.55C486.783 1048.5 490.846 1048.13 494.822 1047.54C499.37 1048.18 503.879 1048.56 508.236 1048.52C508.472 1048.52 508.707 1048.51 508.943 1048.51C507.581 1048.53 512.233 1048.49 517.961 1048.48C523.768 1048.48 528.501 1048.53 526.99 1048.5C527.226 1048.5 527.461 1048.51 527.697 1048.51C540.657 1048.64 552.166 1046.02 561.874 1042.2C562.131 1042.1 562.387 1042 562.642 1041.9C565.195 1040.86 567.736 1039.69 570.25 1038.39C582.904 1044.82 597.145 1048.38 610.84 1048.5C611.113 1048.5 611.386 1048.5 611.659 1048.5H638.204C638.479 1048.5 638.754 1048.5 639.03 1048.5C648.594 1048.41 658.253 1046.7 667.506 1043.54C676.605 1046.72 686.27 1048.53 696.276 1048.53H717.613C720.734 1048.53 723.823 1048.36 726.875 1048.03C728.592 1048.17 730.26 1048.41 732.02 1048.45C732.718 1048.47 733.417 1048.48 734.115 1048.48H756.898C757.169 1048.48 757.44 1048.48 757.71 1048.48C767.9 1048.38 777.958 1046.44 787.363 1043.08C796.863 1046.47 806.954 1048.4 817.061 1048.5C817.332 1048.5 817.602 1048.5 817.873 1048.5H841.212C854.725 1048.5 869.209 1045.48 883.187 1038.18C897.016 1030.95 907.681 1021.04 915.653 1009.57C915.817 1009.33 915.98 1009.09 916.142 1008.86C923.549 997.973 929.249 984.567 931.164 968.772C932.998 953.66 931.022 939.11 925.991 925.804C925.91 925.589 925.828 925.375 925.745 925.16L921.769 914.884H962.336C973.859 914.884 985.044 912.923 996.845 908.078C997.094 907.975 997.343 907.872 997.592 907.767C1008.94 902.991 1018.64 896.203 1026.53 888.324L1026.58 888.273C1034.25 880.61 1041.37 870.591 1046.21 858.97C1046.27 858.825 1046.33 858.679 1046.39 858.534C1051.15 846.935 1053.2 835.445 1053.2 824.025V811.122C1053.2 802.953 1051.98 794.831 1049.8 786.972C1051.68 779.643 1052.75 772.057 1052.75 764.292V751.492C1052.75 727.458 1043.25 704.328 1026.07 687.184C1012.75 673.886 995.748 665.26 977.539 662.072C980.26 654.62 981.986 646.842 982.672 638.939C985.128 621.992 982.707 604.695 975.692 589.074L964.417 564.023C985.584 552.793 1001.62 533.568 1008.98 511.487C1009.71 509.298 1010.35 507.083 1010.91 504.844C1010.36 507.047 1011.87 504.739 1012.9 496.857C1021.43 482.826 1025.97 466.732 1026.03 450.31V425.649C1025.91 408.885 1021.12 392.487 1012.2 378.295C1009.98 364.027 1004.07 345.775 986.653 328.345C975.298 316.981 959.822 309.605 944.724 305.536C946.578 297.12 947.382 288.469 946.837 279.861L947.016 285.553V267.618L946.856 272.983C948.065 252.715 942.431 232.479 930.899 215.555C908.289 169.071 860.409 137.116 806.203 137.116C803.864 137.116 801.566 137.311 799.251 137.429C796.385 121.08 789.581 106.805 782.424 97.0063C780.651 94.5795 778.759 92.2428 776.753 90.005C765.817 77.8054 745.611 65.0611 723.064 60.3911C704.746 44.0725 681.61 37.3821 664.761 36.5393C661.76 36.3892 658.753 36.3892 655.752 36.5393L655.75 36.5435ZM887.243 181.138C887.322 181.168 887.401 181.202 887.361 181.189C887.321 181.173 887.284 181.153 887.243 181.138ZM919.794 202.049C919.861 202.115 919.921 202.18 919.884 202.147C919.852 202.115 919.826 202.08 919.794 202.049ZM1013.05 383.566L1013.34 386.608C1013.31 386.213 1013.19 385.689 1013.16 385.283C1013.1 384.689 1013.12 384.17 1013.05 383.566ZM175.109 888.076C175.145 888.112 175.185 888.142 175.222 888.178C175.259 888.215 175.289 888.255 175.326 888.292L175.109 888.076ZM212.043 916.109C212.114 916.099 212.122 916.109 212.043 916.109V916.109ZM300.201 1008.82C300.332 1009.01 300.495 1009.18 300.628 1009.37C300.747 1009.55 300.837 1009.74 300.958 1009.91L300.201 1008.82ZM809.553 1031.61C809.509 1031.64 809.463 1031.67 809.485 1031.66C809.508 1031.64 809.532 1031.63 809.553 1031.61ZM333.485 1038.37C333.554 1038.4 333.633 1038.43 333.703 1038.46C333.764 1038.5 333.816 1038.54 333.877 1038.57L333.485 1038.37Z" fill="white"/>
<path d="M720.786 224.599L720.876 233.849C720.67 230.773 720.64 227.682 720.786 224.599Z" fill="#B63052"/>
<path d="M641.486 640.318C641.406 650.778 641.409 663.541 641.496 678.608C641.509 680.335 641.399 682.241 641.166 684.328C640.466 690.698 637.796 692.878 632.016 696.408C590.949 721.508 564.763 737.518 553.456 744.438C547.156 748.288 542.886 749.898 536.646 745.918C508.936 728.258 479.316 710.238 454.686 694.658C449.819 691.585 447.376 687.508 447.356 682.428C447.309 673.121 447.289 659.075 447.296 640.288C447.296 640.072 447.211 639.865 447.059 639.712C446.908 639.558 446.702 639.471 446.486 639.468C423.753 639.435 407.083 639.371 396.476 639.278C393.776 639.248 390.516 639.118 387.376 638.658C360.543 634.718 337.229 624.288 317.436 607.368C286.196 580.668 269.896 542.248 271.296 501.098C272.309 471.218 281.739 444.818 299.586 421.898C318.736 397.308 348.036 378.878 379.386 375.678C379.584 375.658 379.769 375.572 379.912 375.434C380.055 375.296 380.148 375.115 380.176 374.918C381.583 365.285 384.089 355.581 387.696 345.808C411.746 280.738 470.546 236.978 540.676 235.698C548.216 235.568 557.366 235.708 564.676 236.668C606.963 242.208 642.113 260.785 670.126 292.398C685.279 309.505 696.513 329.505 703.826 352.398C703.869 352.534 703.948 352.656 704.056 352.751C704.163 352.846 704.294 352.911 704.436 352.938C711.149 354.231 715.146 355.035 716.426 355.348C749.979 363.601 777.069 380.535 797.696 406.148C818.636 432.148 830.036 464.598 830.206 498.068C830.466 547.858 803.876 595.288 761.456 621.118C747.956 629.338 732.586 634.978 715.346 638.038C708.113 639.318 696.149 639.918 679.456 639.838C663.583 639.758 651.133 639.715 642.106 639.708C641.943 639.708 641.787 639.772 641.671 639.886C641.555 640 641.489 640.155 641.486 640.318ZM641.316 616.288C641.315 616.339 641.326 616.389 641.343 616.437C641.362 616.484 641.39 616.527 641.427 616.563C641.463 616.6 641.506 616.628 641.554 616.648C641.602 616.668 641.654 616.678 641.706 616.678C651.379 616.538 666.973 616.621 688.486 616.928C723.279 617.421 752.186 605.125 775.206 580.038C803.116 549.638 814.476 504.518 802.836 464.778C792.503 429.465 770.976 403.575 738.256 387.108C725.956 380.921 712.759 376.681 698.666 374.388C694.059 373.635 690.959 372.728 689.366 371.668C685.706 369.228 683.383 366.315 682.396 362.928C674.096 334.435 658.569 310.875 635.816 292.248C618.843 278.361 599.889 269.068 578.956 264.368C545.376 256.838 507.706 260.778 477.086 276.718C440.356 295.848 413.966 330.518 404.586 370.698C404.079 372.885 403.453 376.158 402.706 380.518C401.873 385.385 400.969 388.555 399.996 390.028C396.276 395.648 392.436 397.178 385.206 398.128C360.156 401.428 338.376 412.318 322.176 430.838C300.949 455.118 291.849 483.705 294.876 516.598C298.906 560.308 327.046 595.288 367.976 610.348C379.109 614.441 391.016 616.445 403.696 616.358C415.089 616.285 429.389 616.318 446.596 616.458C446.783 616.458 446.962 616.386 447.095 616.257C447.227 616.128 447.303 615.952 447.306 615.768C447.373 608.088 447.359 599.355 447.266 589.568C447.206 583.448 447.956 579.868 453.076 576.698C479.676 560.185 506.496 543.721 533.536 527.308C539.476 523.708 544.456 521.408 550.186 524.858C571.246 537.538 597.893 553.691 630.126 573.318C636.986 577.498 641.446 579.668 641.436 587.298C641.409 601.038 641.369 610.701 641.316 616.288ZM473.216 585.598C474.169 587.085 475.126 588.121 476.086 588.708C502.646 604.915 516.213 613.195 516.786 613.548C523.919 618.048 532.143 623.031 541.456 628.498C543.756 629.848 545.006 629.528 547.116 628.258C565.703 617.065 587.813 603.668 613.446 588.068C614.346 587.515 614.879 586.708 615.046 585.648L545.006 543.118C544.747 542.961 544.451 542.878 544.15 542.878C543.848 542.878 543.553 542.961 543.296 543.118L473.216 585.598ZM552.426 673.688L552.526 694.628L552.326 722.498C552.326 722.608 552.355 722.716 552.411 722.81C552.466 722.905 552.546 722.983 552.641 723.037C552.737 723.091 552.845 723.119 552.955 723.117C553.065 723.115 553.172 723.085 553.266 723.028L622.576 680.428C622.958 680.193 623.274 679.863 623.493 679.471C623.711 679.079 623.826 678.637 623.826 678.188V653.538C623.826 653.354 623.874 653.172 623.966 653.008L624.386 652.308C624.457 652.186 624.492 652.046 624.485 651.904C624.475 651.762 624.429 651.624 624.346 651.508C624.179 651.288 623.986 651.168 623.766 651.148C624.273 644.208 624.306 637.111 623.866 629.858L624.036 601.328C624.035 601.237 624.01 601.149 623.963 601.071C623.917 600.993 623.851 600.928 623.773 600.884C623.694 600.841 623.606 600.819 623.517 600.821C623.428 600.824 623.341 600.85 623.266 600.898L553.376 643.848C553.101 644.02 552.874 644.258 552.716 644.542C552.559 644.825 552.476 645.144 552.476 645.468L552.426 673.688ZM464.476 601.658C464.236 609.628 465.346 620.338 465.346 629.098C465.336 654.511 465.323 671.101 465.296 678.868C465.296 679.124 465.363 679.377 465.489 679.601C465.615 679.825 465.796 680.013 466.016 680.148L534.296 722.198C534.391 722.254 534.499 722.285 534.61 722.287C534.72 722.289 534.829 722.263 534.926 722.21C535.022 722.157 535.102 722.08 535.158 721.987C535.215 721.894 535.245 721.787 535.246 721.678V644.458C535.246 644.288 535.201 644.121 535.117 643.973C535.033 643.826 534.912 643.704 534.766 643.618L465.016 601.368C464.963 601.334 464.903 601.315 464.84 601.312C464.778 601.31 464.716 601.324 464.66 601.354C464.605 601.383 464.559 601.427 464.527 601.481C464.494 601.534 464.477 601.596 464.476 601.658Z" fill="#B63052"/>
<path d="M641.315 616.289C641.368 610.703 641.408 601.039 641.435 587.299C641.445 579.669 636.985 577.499 630.125 573.319C597.892 553.693 571.245 537.539 550.185 524.859C544.455 521.409 539.475 523.709 533.535 527.309C506.495 543.723 479.675 560.186 453.075 576.699C447.955 579.869 447.205 583.449 447.265 589.569C447.358 599.356 447.372 608.089 447.305 615.769C447.305 615.953 447.226 616.129 447.094 616.258C446.961 616.387 446.782 616.459 446.595 616.459C429.388 616.319 415.088 616.286 403.695 616.359C391.015 616.446 379.108 614.443 367.975 610.349C327.045 595.289 298.905 560.309 294.875 516.599C291.848 483.706 300.948 455.119 322.175 430.839C338.375 412.319 360.155 401.429 385.205 398.129C392.435 397.179 396.275 395.649 399.995 390.029C400.968 388.556 401.872 385.386 402.705 380.519C403.452 376.159 404.078 372.886 404.585 370.699C413.965 330.519 440.355 295.849 477.085 276.719C507.705 260.779 545.375 256.839 578.955 264.369C599.888 269.069 618.842 278.363 635.815 292.249C658.568 310.876 674.095 334.436 682.395 362.929C683.382 366.316 685.705 369.229 689.365 371.669C690.958 372.729 694.058 373.636 698.665 374.389C712.758 376.683 725.955 380.923 738.255 387.109C770.975 403.576 792.502 429.466 802.835 464.779C814.475 504.519 803.115 549.639 775.205 580.039C752.185 605.126 723.278 617.423 688.485 616.929C666.972 616.623 651.378 616.539 641.705 616.679C641.653 616.679 641.601 616.669 641.553 616.649C641.505 616.63 641.462 616.601 641.426 616.565C641.389 616.528 641.361 616.485 641.342 616.438C641.323 616.391 641.314 616.34 641.315 616.289ZM460.454 424.55C453.797 424.573 447.425 427.936 442.739 433.899C438.052 439.862 435.436 447.937 435.465 456.347C435.495 464.757 438.167 472.813 442.895 478.744C447.623 484.674 454.019 487.992 460.676 487.969C467.333 487.946 473.705 484.583 478.392 478.62C483.078 472.657 485.694 464.582 485.665 456.172C485.635 447.762 482.963 439.706 478.235 433.775C473.507 427.845 467.111 424.526 460.454 424.55ZM627.694 424.593C620.963 424.793 614.607 428.326 610.024 434.415C605.441 440.505 603.007 448.651 603.256 457.063C603.506 465.474 606.419 473.462 611.355 479.269C616.291 485.075 622.845 488.225 629.576 488.025C636.307 487.826 642.663 484.293 647.246 478.203C651.829 472.114 654.263 463.968 654.014 455.556C653.764 447.145 650.851 439.157 645.915 433.35C640.979 427.544 634.425 424.394 627.694 424.593ZM544.355 484.439C534.765 484.439 526.285 479.649 521.215 471.559C518.415 467.089 516.925 460.149 508.735 461.419C501.375 462.569 500.385 470.209 503.495 476.049C511.685 491.469 526.625 501.639 544.345 501.649C562.065 501.659 577.015 491.499 585.225 476.089C588.335 470.249 587.355 462.609 579.995 461.459C571.805 460.179 570.305 467.119 567.505 471.579C562.425 479.669 553.945 484.449 544.355 484.439ZM397.672 501.511C397.605 504.259 398.183 506.995 399.372 509.565C400.56 512.134 402.338 514.485 404.602 516.485C406.866 518.484 409.572 520.092 412.567 521.218C415.561 522.343 418.785 522.963 422.054 523.043C425.323 523.123 428.573 522.661 431.619 521.683C434.664 520.706 437.446 519.231 439.805 517.345C442.164 515.459 444.054 513.197 445.367 510.689C446.68 508.181 447.39 505.476 447.458 502.728C447.525 499.98 446.947 497.243 445.759 494.674C444.57 492.105 442.792 489.754 440.528 487.754C438.264 485.755 435.558 484.147 432.563 483.021C429.569 481.896 426.345 481.276 423.076 481.196C419.807 481.116 416.557 481.578 413.512 482.556C410.466 483.533 407.684 485.007 405.325 486.894C402.966 488.78 401.076 491.042 399.763 493.55C398.45 496.058 397.74 498.763 397.672 501.511ZM640.477 501.803C640.409 507.329 642.991 512.662 647.654 516.627C652.317 520.593 658.679 522.866 665.34 522.948C672.002 523.029 678.418 520.912 683.176 517.061C687.934 513.211 690.646 507.943 690.713 502.416C690.781 496.89 688.199 491.557 683.536 487.591C678.873 483.626 672.511 481.352 665.85 481.271C659.188 481.19 652.772 483.307 648.014 487.157C643.256 491.008 640.544 496.276 640.477 501.803Z" fill="#FFEEED"/>
<path d="M250.195 340.49C242.962 337.016 237.048 331.703 232.455 324.55C238.355 331.45 242.915 336.28 250.195 340.49Z" fill="#FFFAFA"/>
<path d="M485.665 456.171C485.604 438.658 474.317 424.501 460.455 424.549C446.592 424.598 435.404 438.834 435.465 456.347C435.526 473.859 446.814 488.017 460.676 487.969C474.538 487.92 485.726 473.684 485.665 456.171Z" fill="#861730"/>
<path d="M654.015 455.556C653.496 438.039 641.712 424.177 627.695 424.593C613.679 425.009 602.738 439.546 603.258 457.062C603.778 474.578 615.562 488.441 629.578 488.025C643.594 487.609 654.535 473.072 654.015 455.556Z" fill="#861730"/>
<path d="M544.346 501.648C526.626 501.638 511.686 491.468 503.496 476.048C500.386 470.208 501.376 462.568 508.736 461.418C516.926 460.148 518.416 467.088 521.216 471.558C526.286 479.648 534.766 484.438 544.356 484.438C553.946 484.448 562.426 479.668 567.506 471.578C570.306 467.118 571.806 460.178 579.996 461.458C587.356 462.608 588.336 470.248 585.226 476.088C577.016 491.498 562.066 501.658 544.346 501.648Z" fill="#861730"/>
<path d="M423.077 481.195C409.33 480.859 397.956 489.955 397.673 501.511C397.391 513.066 408.307 522.707 422.055 523.043C435.802 523.379 447.176 514.283 447.459 502.727C447.741 491.171 436.825 481.531 423.077 481.195Z" fill="#F5A3AB"/>
<path d="M665.851 481.271C651.979 481.101 640.619 490.294 640.478 501.802C640.338 513.311 651.469 522.778 665.342 522.948C679.214 523.117 690.574 513.925 690.714 502.416C690.855 490.907 679.723 481.44 665.851 481.271Z" fill="#F5A3AB"/>
<path d="M615.047 585.649L545.087 627.999C544.785 628.183 544.438 628.281 544.083 628.281C543.729 628.281 543.381 628.183 543.077 627.999L473.217 585.599L543.297 543.119C543.553 542.963 543.849 542.88 544.15 542.88C544.452 542.88 544.748 542.963 545.007 543.119L615.047 585.649Z" fill="#FFEEED"/>
<path d="M615.047 585.649C614.88 586.709 614.347 587.516 613.447 588.069C587.813 603.669 565.703 617.066 547.117 628.259C545.007 629.529 543.757 629.849 541.457 628.499C532.143 623.033 523.92 618.049 516.787 613.549C516.213 613.196 502.647 604.916 476.087 588.709C475.127 588.123 474.17 587.086 473.217 585.599L543.077 627.999C543.381 628.183 543.729 628.281 544.083 628.281C544.438 628.281 544.785 628.183 545.087 627.999L615.047 585.649Z" fill="#861730"/>
<path d="M623.866 629.858L552.426 673.688L552.476 645.468C552.476 645.144 552.559 644.825 552.716 644.542C552.874 644.258 553.101 644.02 553.376 643.848L623.266 600.898C623.341 600.85 623.427 600.824 623.517 600.821C623.606 600.819 623.694 600.841 623.772 600.884C623.851 600.928 623.917 600.993 623.963 601.07C624.009 601.148 624.034 601.237 624.036 601.328L623.866 629.858Z" fill="#861730"/>
<path d="M465.015 601.369L534.765 643.619C534.911 643.705 535.032 643.827 535.116 643.974C535.2 644.122 535.245 644.289 535.245 644.459V721.679C535.244 721.788 535.214 721.895 535.158 721.988C535.102 722.082 535.021 722.159 534.925 722.211C534.829 722.264 534.72 722.291 534.609 722.289C534.499 722.286 534.39 722.256 534.295 722.199L466.015 680.149C465.796 680.014 465.614 679.826 465.488 679.602C465.362 679.378 465.296 679.126 465.295 678.869C465.322 671.103 465.339 654.513 465.345 629.099C465.345 620.339 464.235 609.629 464.475 601.659C464.475 601.597 464.493 601.535 464.526 601.482C464.558 601.428 464.604 601.384 464.66 601.355C464.715 601.325 464.777 601.311 464.839 601.313C464.902 601.316 464.963 601.335 465.015 601.369Z" fill="#FFEEED"/>
<path d="M623.866 629.858C624.306 637.111 624.272 644.208 623.766 651.148L552.526 694.628L552.426 673.688L623.866 629.858Z" fill="white"/>
<path d="M623.766 651.148C623.986 651.168 624.179 651.288 624.346 651.508C624.429 651.624 624.478 651.762 624.485 651.904C624.495 652.046 624.458 652.186 624.386 652.308L623.966 653.008C623.874 653.172 623.826 653.355 623.826 653.538V678.188C623.826 678.637 623.711 679.079 623.493 679.471C623.274 679.863 622.958 680.193 622.576 680.428L553.266 723.028C553.172 723.085 553.065 723.115 552.955 723.117C552.845 723.119 552.737 723.091 552.642 723.037C552.546 722.983 552.466 722.905 552.411 722.81C552.356 722.716 552.326 722.608 552.326 722.498L552.526 694.628L623.766 651.148Z" fill="#861730"/>
<path d="M181.541 796.179C181.526 796.169 180.264 795.146 177.754 793.101C165.732 783.281 147.542 786.753 139.756 800.123C135.61 807.235 135.115 817.235 138.014 824.65C141.081 832.538 148.036 838.47 156.71 839.875C166.44 841.463 174.706 838.631 181.507 831.38C181.634 831.246 181.786 831.139 181.956 831.065C182.125 830.991 182.308 830.952 182.493 830.949C182.679 830.949 182.863 830.982 183.035 831.053C183.207 831.123 183.364 831.227 183.496 831.358L194.181 842.032C194.322 842.173 194.403 842.363 194.405 842.561C194.405 842.759 194.331 842.949 194.192 843.088C186.574 851.009 177.923 855.728 166.878 856.75C139.565 859.29 116.79 840.493 117.936 812.336C118.722 792.865 131.059 777.382 149.755 772.438C165.114 768.371 183.159 771.708 194.293 784.011C194.397 784.126 194.452 784.276 194.448 784.429C194.448 784.582 194.38 784.726 194.271 784.831L182.889 795.999C182.713 796.169 182.487 796.279 182.245 796.311C182.002 796.343 181.755 796.297 181.541 796.179Z" fill="#CD4A77"/>
<path d="M351.765 810.594C352.182 816.273 351.448 821.98 349.604 827.39C347.761 832.8 344.844 837.807 341.02 842.125C337.197 846.443 332.541 849.987 327.32 852.555C322.099 855.124 316.414 856.666 310.589 857.093C304.765 857.521 298.916 856.826 293.375 855.048C287.835 853.27 282.711 850.444 278.298 846.731C273.885 843.018 270.268 838.491 267.654 833.408C265.04 828.326 263.48 822.787 263.063 817.108C262.646 811.43 263.38 805.723 265.223 800.313C267.067 794.903 269.984 789.896 273.807 785.578C277.631 781.26 282.286 777.716 287.508 775.147C292.729 772.579 298.414 771.037 304.238 770.609C310.063 770.182 315.912 770.877 321.452 772.655C326.993 774.433 332.116 777.259 336.529 780.972C340.943 784.685 344.56 789.212 347.174 794.294C349.788 799.377 351.348 804.916 351.765 810.594ZM307.135 787.337C303.73 787.379 300.366 788.106 297.237 789.476C294.107 790.846 291.272 792.833 288.895 795.324C286.517 797.814 284.643 800.759 283.379 803.991C282.115 807.222 281.486 810.677 281.529 814.157C281.615 821.186 284.429 827.894 289.353 832.805C294.276 837.715 300.906 840.427 307.783 840.343C311.188 840.301 314.551 839.575 317.681 838.204C320.811 836.834 323.645 834.847 326.023 832.356C328.401 829.866 330.275 826.921 331.539 823.69C332.803 820.458 333.431 817.004 333.389 813.523C333.303 806.494 330.488 799.787 325.565 794.876C320.641 789.965 314.012 787.253 307.135 787.337Z" fill="#CD4A77"/>
<path d="M631.821 828.009C631.864 828.068 631.925 828.112 631.994 828.134C632.064 828.157 632.139 828.157 632.208 828.135C632.278 828.112 632.339 828.069 632.382 828.01C632.425 827.951 632.449 827.88 632.45 827.807V772.471C632.45 772.292 632.521 772.121 632.647 771.995C632.774 771.868 632.945 771.797 633.124 771.797H649.169C649.41 771.797 649.641 771.893 649.812 772.064C649.983 772.234 650.079 772.466 650.079 772.707V854.154C650.079 854.3 650.024 854.439 649.926 854.544C649.827 854.649 649.693 854.71 649.551 854.716C643.199 855.053 637.221 855.053 631.619 854.716C629.675 854.593 628.585 852.806 627.495 851.244C625.915 849.005 614.192 832.657 592.327 802.201C592.301 802.166 592.264 802.141 592.222 802.128C592.18 802.115 592.135 802.115 592.093 802.129C592.051 802.142 592.015 802.168 591.988 802.203C591.962 802.238 591.947 802.28 591.946 802.324V854.166C591.946 854.392 591.856 854.609 591.695 854.769C591.535 854.93 591.318 855.019 591.092 855.019H575.35C575.055 855.019 574.773 854.902 574.564 854.694C574.355 854.485 574.238 854.202 574.238 853.907V772.752C574.238 772.49 574.342 772.238 574.528 772.053C574.713 771.868 574.965 771.763 575.227 771.763H589.642C590.199 771.764 590.747 771.895 591.242 772.147C591.736 772.399 592.162 772.764 592.485 773.213L631.821 828.009Z" fill="#CD4A77"/>
<path d="M704.716 771.595C707.322 771.605 710.094 771.637 713.03 771.697C713.539 771.707 714.033 771.868 714.451 772.16C714.869 772.452 715.192 772.861 715.378 773.337L747.265 854.256C747.296 854.335 747.308 854.42 747.298 854.504C747.288 854.588 747.259 854.668 747.212 854.738C747.164 854.808 747.1 854.865 747.025 854.905C746.95 854.944 746.867 854.964 746.782 854.964H730.086C729.618 854.964 729.162 854.818 728.78 854.549C728.398 854.279 728.108 853.899 727.951 853.458L722.816 839.211C722.722 838.952 722.557 838.725 722.341 838.556C722.124 838.387 721.864 838.283 721.592 838.256C720.393 838.137 714.749 838.073 704.66 838.065C694.57 838.055 688.926 838.114 687.727 838.234C687.456 838.26 687.197 838.362 686.981 838.529C686.764 838.696 686.598 838.921 686.503 839.178L681.346 853.425C681.186 853.863 680.896 854.241 680.514 854.509C680.132 854.776 679.677 854.919 679.211 854.919L662.515 854.896C662.43 854.896 662.347 854.877 662.272 854.837C662.197 854.798 662.133 854.741 662.085 854.671C662.037 854.601 662.007 854.521 661.998 854.436C661.988 854.352 661.998 854.267 662.032 854.189L694.042 773.326C694.228 772.85 694.551 772.44 694.969 772.148C695.387 771.856 695.881 771.695 696.39 771.685C699.326 771.625 702.102 771.595 704.716 771.595ZM693.21 821.729C693.186 821.789 693.177 821.854 693.185 821.918C693.195 821.983 693.215 822.044 693.251 822.098C693.288 822.151 693.337 822.195 693.395 822.224C693.453 822.254 693.516 822.269 693.581 822.268L715.861 822.381C715.925 822.381 715.987 822.366 716.044 822.336C716.1 822.307 716.148 822.265 716.185 822.213C716.221 822.161 716.244 822.101 716.253 822.039C716.263 821.976 716.254 821.912 716.232 821.852L705.244 791.898C705.215 791.825 705.164 791.763 705.099 791.719C705.034 791.674 704.957 791.651 704.879 791.651C704.8 791.651 704.723 791.674 704.658 791.719C704.593 791.763 704.543 791.825 704.513 791.898L693.21 821.729Z" fill="#CD4A77"/>
<path d="M399.401 840.188C406.85 840.166 412.693 837.177 415.344 831.267C416.715 828.211 417.333 822.612 417.198 814.47C417.004 803.242 416.94 789.302 417.007 772.651C417.007 772.463 417.083 772.283 417.218 772.15C417.353 772.018 417.536 771.943 417.726 771.943H434.243C434.431 771.943 434.611 772.018 434.743 772.15C434.876 772.283 434.951 772.463 434.951 772.651C434.883 779.437 434.924 791.654 435.074 809.302C435.187 822.425 434.76 830.739 433.793 834.245C429.468 849.896 416.03 856.941 399.446 856.974C382.862 857.019 369.391 850.042 364.986 834.413C364.005 830.908 363.541 822.593 363.593 809.47C363.653 791.823 363.634 779.606 363.537 772.819C363.537 772.632 363.612 772.452 363.744 772.319C363.877 772.186 364.057 772.112 364.245 772.112L380.761 772.033C380.856 772.033 380.949 772.051 381.036 772.087C381.124 772.122 381.203 772.174 381.27 772.24C381.337 772.306 381.389 772.384 381.426 772.47C381.462 772.556 381.48 772.648 381.48 772.741C381.63 789.392 381.634 803.332 381.492 814.56C381.394 822.702 382.038 828.297 383.424 831.346C386.098 837.245 391.963 840.2 399.401 840.188Z" fill="#CD4A77"/>
<path d="M452.264 772.741C452.264 772.613 452.314 772.49 452.405 772.4C452.496 772.309 452.619 772.258 452.747 772.258L486.622 772.202C497.461 772.183 507.864 776.346 515.542 783.773C523.22 791.2 527.544 801.284 527.565 811.808V815.088C527.575 820.3 526.527 825.464 524.482 830.283C522.436 835.102 519.433 839.483 515.644 843.176C511.854 846.868 507.353 849.8 502.396 851.803C497.44 853.806 492.126 854.842 486.757 854.851L452.882 854.907C452.753 854.907 452.63 854.857 452.54 854.766C452.449 854.675 452.398 854.552 452.398 854.424L452.264 772.741ZM470.196 788.876V838.47C470.196 838.58 470.239 838.686 470.317 838.764C470.395 838.842 470.501 838.885 470.611 838.885H484.633C491.132 838.885 497.365 836.46 501.961 832.142C506.557 827.825 509.138 821.969 509.138 815.864V811.482C509.138 805.376 506.557 799.52 501.961 795.203C497.365 790.885 491.132 788.46 484.633 788.46H470.611C470.557 788.46 470.503 788.471 470.452 788.492C470.402 788.512 470.356 788.543 470.317 788.582C470.279 788.62 470.248 788.666 470.227 788.717C470.206 788.767 470.196 788.821 470.196 788.876Z" fill="#CD4A77"/>
<path d="M205.809 854.076V773.056C205.809 772.847 205.892 772.647 206.039 772.5C206.187 772.352 206.386 772.269 206.595 772.269H222.876C223.084 772.269 223.285 772.352 223.432 772.5C223.58 772.647 223.662 772.847 223.662 773.056V837.975C223.662 838.184 223.745 838.384 223.893 838.531C224.04 838.679 224.24 838.762 224.449 838.762H258.38C258.484 838.762 258.586 838.782 258.681 838.822C258.777 838.861 258.864 838.919 258.937 838.992C259.01 839.065 259.068 839.152 259.107 839.247C259.147 839.343 259.167 839.445 259.167 839.548V854.076C259.167 854.285 259.084 854.485 258.937 854.632C258.789 854.78 258.589 854.862 258.38 854.862H206.595C206.386 854.862 206.187 854.78 206.039 854.632C205.892 854.485 205.809 854.285 205.809 854.076Z" fill="#CD4A77"/>
<path d="M844.037 772.259H827.926C827.442 772.259 827.049 772.652 827.049 773.136V854.167C827.049 854.651 827.442 855.044 827.926 855.044H844.037C844.521 855.044 844.914 854.651 844.914 854.167V773.136C844.914 772.652 844.521 772.259 844.037 772.259Z" fill="#CD4A77"/>
<path d="M778.625 772.662C799.957 772.692 811.56 772.741 813.433 772.808C813.604 772.818 813.767 772.886 813.887 773.01C814.006 773.134 814.073 773.299 814.073 773.471V787.852C814.073 788.082 813.983 788.302 813.823 788.464C813.663 788.626 813.446 788.718 813.219 788.718H788.018C787.851 788.718 787.691 788.784 787.573 788.902C787.455 789.02 787.388 789.18 787.388 789.347V854.019C787.389 854.238 787.304 854.449 787.151 854.608C786.998 854.767 786.79 854.862 786.568 854.873C785.122 854.933 782.433 854.959 778.501 854.952C774.568 854.942 771.879 854.911 770.434 854.851C770.21 854.839 770 854.742 769.847 854.581C769.694 854.42 769.611 854.206 769.614 853.985L769.816 789.324C769.817 789.241 769.802 789.158 769.771 789.08C769.74 789.002 769.694 788.932 769.636 788.872C769.577 788.813 769.507 788.765 769.43 788.733C769.353 788.701 769.27 788.684 769.187 788.684L743.985 788.605C743.873 788.605 743.762 788.583 743.658 788.539C743.555 788.496 743.461 788.432 743.381 788.352C743.302 788.272 743.239 788.176 743.196 788.071C743.153 787.966 743.131 787.854 743.131 787.74L743.187 773.359C743.187 773.187 743.254 773.021 743.374 772.898C743.493 772.774 743.656 772.701 743.828 772.696C745.7 772.636 757.299 772.624 778.625 772.662Z" fill="#CD4A77"/>
<path d="M899.835 834.897C899.999 834.897 900.131 834.759 900.228 834.482C906.205 817.853 913.58 797.633 922.351 773.821C922.47 773.497 922.687 773.218 922.97 773.021C923.253 772.824 923.59 772.719 923.935 772.719H941.822C941.914 772.719 942.005 772.744 942.086 772.788C942.167 772.831 942.236 772.894 942.288 772.97C942.339 773.046 942.372 773.133 942.383 773.225C942.394 773.316 942.383 773.409 942.35 773.495L911.014 853.74C910.877 854.09 910.641 854.392 910.336 854.609C910.03 854.827 909.669 854.95 909.295 854.964C908.486 854.994 905.344 855.013 899.868 855.02C894.393 855.03 891.251 855.02 890.442 854.998C890.068 854.984 889.706 854.861 889.401 854.643C889.096 854.426 888.86 854.123 888.723 853.773L857.139 773.63C857.104 773.543 857.091 773.449 857.101 773.356C857.111 773.263 857.143 773.174 857.195 773.097C857.247 773.019 857.318 772.955 857.4 772.911C857.482 772.867 857.574 772.844 857.667 772.843L875.554 772.798C875.898 772.797 876.234 772.9 876.517 773.095C876.8 773.29 877.017 773.566 877.139 773.888C885.985 797.678 893.419 817.875 899.441 834.482C899.546 834.759 899.677 834.897 899.835 834.897Z" fill="#CD4A77"/>
<path d="M1010.57 839.842V854.178C1010.57 854.282 1010.55 854.384 1010.51 854.479C1010.47 854.575 1010.42 854.661 1010.34 854.734C1010.27 854.807 1010.18 854.865 1010.09 854.905C1009.99 854.944 1009.89 854.965 1009.79 854.965H955.172C955.068 854.965 954.966 854.944 954.871 854.905C954.775 854.865 954.689 854.807 954.615 854.734C954.542 854.661 954.485 854.575 954.445 854.479C954.405 854.384 954.385 854.282 954.385 854.178V773.585C954.385 773.376 954.468 773.176 954.615 773.029C954.763 772.881 954.963 772.799 955.172 772.799H1009.29C1009.5 772.799 1009.7 772.881 1009.85 773.029C1010 773.176 1010.08 773.376 1010.08 773.585V787.809C1010.08 788.018 1010 788.218 1009.85 788.366C1009.7 788.513 1009.5 788.596 1009.29 788.596H972.834C972.625 788.596 972.425 788.679 972.278 788.826C972.13 788.974 972.048 789.174 972.048 789.382V805.348C972.048 805.557 972.13 805.757 972.278 805.904C972.425 806.052 972.625 806.135 972.834 806.135H1004.66C1004.87 806.135 1005.07 806.218 1005.22 806.365C1005.37 806.513 1005.45 806.713 1005.45 806.921V820.629C1005.45 820.837 1005.37 821.037 1005.22 821.185C1005.07 821.332 1004.87 821.415 1004.66 821.415H972.89C972.682 821.415 972.482 821.498 972.334 821.646C972.187 821.793 972.104 821.993 972.104 822.202V838.269C972.104 838.477 972.187 838.677 972.334 838.825C972.482 838.972 972.682 839.055 972.89 839.055H1009.79C1010 839.055 1010.2 839.138 1010.34 839.285C1010.49 839.433 1010.57 839.633 1010.57 839.842Z" fill="#CD4A77"/>
<path d="M669.19 885.581H695.908C695.998 885.582 696.085 885.605 696.164 885.647C696.242 885.689 696.309 885.75 696.359 885.824C696.409 885.898 696.44 885.983 696.449 886.072C696.459 886.161 696.449 886.251 696.414 886.334L650.146 1003.08C650.106 1003.19 650.036 1003.27 649.946 1003.33C649.856 1003.4 649.749 1003.43 649.64 1003.43H620.147C620.037 1003.43 619.931 1003.4 619.841 1003.33C619.751 1003.27 619.681 1003.19 619.641 1003.08L573.654 886.367C573.62 886.283 573.608 886.193 573.619 886.103C573.629 886.013 573.661 885.928 573.712 885.853C573.763 885.779 573.831 885.718 573.911 885.677C573.991 885.635 574.08 885.614 574.17 885.614H601.642C601.754 885.614 601.864 885.649 601.956 885.713C602.049 885.777 602.119 885.868 602.158 885.974L634.843 976.646C634.882 976.751 634.952 976.843 635.045 976.907C635.137 976.972 635.247 977.006 635.36 977.006C635.472 977.006 635.582 976.972 635.675 976.907C635.767 976.843 635.838 976.751 635.876 976.646L668.673 885.94C668.712 885.835 668.783 885.744 668.875 885.679C668.968 885.615 669.078 885.581 669.19 885.581Z" fill="#9C213B"/>
<path d="M294.123 980.208H343.234C343.318 980.208 343.401 980.223 343.479 980.255C343.557 980.288 343.627 980.335 343.687 980.394C343.746 980.454 343.793 980.524 343.826 980.602C343.858 980.68 343.874 980.763 343.874 980.847V1002.79C343.874 1002.87 343.858 1002.96 343.826 1003.04C343.793 1003.11 343.746 1003.18 343.687 1003.24C343.627 1003.3 343.557 1003.35 343.479 1003.38C343.401 1003.41 343.318 1003.43 343.234 1003.43H269.034C268.95 1003.43 268.867 1003.41 268.789 1003.38C268.711 1003.35 268.641 1003.3 268.581 1003.24C268.522 1003.18 268.474 1003.11 268.442 1003.04C268.41 1002.96 268.393 1002.87 268.393 1002.79V886.412C268.393 886.328 268.41 886.244 268.442 886.167C268.474 886.089 268.522 886.018 268.581 885.959C268.641 885.899 268.711 885.852 268.789 885.82C268.867 885.788 268.95 885.771 269.034 885.771H292.842C293.012 885.771 293.175 885.839 293.295 885.959C293.415 886.079 293.483 886.242 293.483 886.412V979.566C293.483 979.736 293.55 979.899 293.67 980.019C293.79 980.139 293.953 980.208 294.123 980.208Z" fill="#9C213B"/>
<path d="M515.982 885.672C535.352 885.662 550.674 885.649 561.947 885.627C562.111 885.627 562.268 885.692 562.384 885.808C562.499 885.924 562.565 886.081 562.565 886.245V907.356C562.565 907.532 562.495 907.701 562.37 907.825C562.246 907.949 562.077 908.019 561.902 908.019H529.285C529.198 908.019 529.111 908.036 529.031 908.07C528.951 908.103 528.877 908.152 528.816 908.213C528.754 908.275 528.706 908.348 528.672 908.428C528.639 908.509 528.622 908.595 528.622 908.682V1002.68C528.622 1002.78 528.602 1002.88 528.563 1002.97C528.523 1003.07 528.466 1003.15 528.394 1003.22C528.322 1003.29 528.236 1003.35 528.142 1003.39C528.048 1003.43 527.948 1003.44 527.847 1003.44C526.551 1003.42 522.614 1003.41 516.038 1003.41C509.469 1003.42 505.536 1003.43 504.24 1003.46C504.139 1003.46 504.039 1003.44 503.945 1003.4C503.851 1003.36 503.765 1003.31 503.693 1003.23C503.621 1003.16 503.564 1003.08 503.524 1002.99C503.485 1002.89 503.465 1002.79 503.465 1002.69L503.375 908.693C503.375 908.518 503.305 908.349 503.181 908.225C503.057 908.1 502.888 908.031 502.712 908.031L470.095 908.064C469.92 908.064 469.751 907.994 469.627 907.87C469.502 907.746 469.433 907.577 469.433 907.401L469.41 886.29C469.41 886.126 469.475 885.969 469.591 885.853C469.707 885.737 469.864 885.672 470.028 885.672C481.301 885.682 496.619 885.682 515.982 885.672Z" fill="#9C213B"/>
<path d="M737.873 885.603H714.166C713.843 885.603 713.582 885.865 713.582 886.188V1002.88C713.582 1003.2 713.843 1003.46 714.166 1003.46H737.873C738.196 1003.46 738.458 1003.2 738.458 1002.88V886.188C738.458 885.865 738.196 885.603 737.873 885.603Z" fill="#9C213B"/>
<path d="M441.006 980.499H391.581C391.462 980.499 391.347 980.536 391.25 980.604C391.154 980.673 391.081 980.769 391.041 980.881L383.008 1003.07C382.968 1003.18 382.895 1003.28 382.799 1003.35C382.702 1003.42 382.587 1003.45 382.468 1003.45H357.413C357.319 1003.45 357.225 1003.43 357.142 1003.39C357.058 1003.35 356.986 1003.28 356.933 1003.2C356.879 1003.13 356.846 1003.04 356.836 1002.94C356.826 1002.85 356.836 1002.75 356.874 1002.67L402.355 886.176C402.399 886.068 402.473 885.977 402.569 885.912C402.666 885.848 402.779 885.815 402.895 885.816H430.568C430.685 885.816 430.8 885.851 430.896 885.917C430.992 885.983 431.066 886.077 431.107 886.187L476.185 1002.71C476.217 1002.8 476.229 1002.89 476.218 1002.98C476.207 1003.07 476.174 1003.16 476.122 1003.24C476.07 1003.31 476.001 1003.38 475.92 1003.42C475.839 1003.46 475.749 1003.49 475.657 1003.49H450.107C449.989 1003.49 449.873 1003.45 449.777 1003.38C449.68 1003.31 449.607 1003.22 449.568 1003.11L441.545 980.881C441.506 980.769 441.433 980.673 441.336 980.604C441.24 980.536 441.124 980.499 441.006 980.499ZM399.423 958.41C399.4 958.474 399.392 958.542 399.401 958.609C399.411 958.677 399.434 958.741 399.472 958.797C399.511 958.853 399.562 958.899 399.622 958.932C399.682 958.964 399.748 958.981 399.816 958.983L433.107 959.331C433.175 959.331 433.242 959.315 433.302 959.284C433.362 959.253 433.414 959.208 433.453 959.153C433.493 959.099 433.519 959.035 433.529 958.968C433.539 958.902 433.529 958.833 433.512 958.769L417.333 914.063C417.303 913.981 417.249 913.911 417.179 913.861C417.108 913.811 417.024 913.783 416.938 913.782C416.851 913.781 416.766 913.806 416.694 913.854C416.622 913.902 416.567 913.971 416.535 914.051L399.423 958.41Z" fill="#9C213B"/>
<path d="M801.724 885.796H830.116C830.226 885.795 830.333 885.829 830.424 885.891C830.514 885.953 830.583 886.041 830.622 886.144L875.711 1002.69C875.741 1002.77 875.752 1002.86 875.741 1002.95C875.731 1003.03 875.699 1003.12 875.65 1003.19C875.6 1003.26 875.533 1003.32 875.456 1003.36C875.378 1003.4 875.292 1003.42 875.205 1003.42H849.273C849.162 1003.42 849.054 1003.39 848.963 1003.32C848.873 1003.26 848.805 1003.17 848.768 1003.06L840.745 980.86C840.708 980.756 840.64 980.665 840.549 980.601C840.459 980.536 840.351 980.501 840.24 980.501H790.567C790.456 980.501 790.348 980.536 790.257 980.601C790.167 980.665 790.098 980.756 790.061 980.86L782.028 1003.04C781.991 1003.14 781.922 1003.23 781.832 1003.3C781.741 1003.36 781.633 1003.4 781.522 1003.4H756.208C756.122 1003.4 756.037 1003.37 755.961 1003.33C755.885 1003.29 755.82 1003.23 755.772 1003.16C755.723 1003.09 755.693 1003.01 755.683 1002.92C755.673 1002.84 755.683 1002.75 755.714 1002.67L801.218 886.144C801.257 886.041 801.326 885.953 801.417 885.891C801.507 885.829 801.614 885.795 801.724 885.796ZM798.488 958.254C798.457 958.338 798.447 958.427 798.458 958.515C798.47 958.603 798.502 958.687 798.553 958.76C798.604 958.833 798.671 958.892 798.75 958.933C798.829 958.974 798.916 958.996 799.005 958.996L832.217 959.288C832.307 959.288 832.396 959.27 832.476 959.229C832.556 959.189 832.626 959.13 832.678 959.057C832.73 958.984 832.763 958.899 832.775 958.81C832.787 958.721 832.775 958.631 832.745 958.546L816.521 914.166C816.484 914.059 816.414 913.967 816.322 913.902C816.231 913.836 816.121 913.8 816.008 913.799C815.896 913.798 815.785 913.831 815.692 913.895C815.599 913.958 815.528 914.049 815.488 914.154L798.488 958.254Z" fill="#9C213B"/>
<path d="M812.89 294.23C812.89 294.23 811.898 297.218 810.4 298.711C809.963 299.198 809.425 299.585 808.824 299.843C808.222 300.102 807.572 300.226 806.917 300.207C804.46 300.867 801.963 301.366 799.441 301.7C799.441 301.7 802.929 302.2 806.917 302.698C808.409 302.698 808.409 302.698 809.406 303.197C811.898 303.197 812.89 301.7 812.89 301.7V294.23ZM858.722 294.23C858.722 294.23 859.72 297.218 861.213 298.711C861.651 299.198 862.19 299.584 862.792 299.843C863.394 300.101 864.045 300.226 864.7 300.207C867.155 300.867 869.651 301.366 872.171 301.7C872.171 301.7 868.687 302.2 864.202 302.698C862.709 302.698 862.709 302.698 861.711 303.197C858.722 303.197 858.223 301.7 858.223 301.7L858.722 294.23Z" fill="#CD4A77"/>
<path d="M890.106 244.91C890.106 274.623 866.018 298.711 836.305 298.711C806.591 298.711 782.504 274.623 782.504 244.91C782.504 215.201 806.591 191.114 836.305 191.114C866.018 191.114 890.106 215.201 890.106 244.91Z" fill="#FFEEED"/>
<path d="M888.115 244.91C888.115 273.525 864.92 296.719 836.305 296.719C807.695 296.719 784.5 273.525 784.5 244.91C784.5 216.3 807.695 193.104 836.305 193.104C864.92 193.104 888.114 216.299 888.114 244.909L888.115 244.91Z" fill="#FFEEED"/>
<path d="M878.647 245.908C878.647 269.294 859.692 288.251 836.305 288.251C812.921 288.251 793.961 269.294 793.961 245.907C793.961 222.525 812.922 203.565 836.305 203.565C859.692 203.565 878.647 222.527 878.647 245.908Z" fill="#F5A3AB"/>
<path d="M811.398 265.836C811.398 265.836 814.885 322.127 814.885 323.125C814.885 323.62 815.385 324.617 812.89 325.615C810.399 326.609 802.43 328.604 802.43 328.604H814.386C819.866 328.604 819.866 324.119 819.866 323.125C819.866 322.127 821.359 300.708 821.359 300.708C821.359 300.708 821.857 326.115 821.857 327.107C821.857 328.106 821.359 329.597 817.875 330.596C815.385 331.095 807.909 332.588 807.909 332.588H819.368C826.344 332.588 826.344 328.106 826.344 328.106L827.836 305.689C827.836 305.689 828.335 328.106 828.335 330.596C828.335 332.588 826.842 334.084 821.359 335.077C817.875 336.075 813.389 337.073 813.389 337.073H826.344C832.816 336.575 833.815 332.088 833.815 332.088L844.773 276.296L811.398 265.836Z" fill="#B63052"/>
<path d="M861.212 265.835C861.212 265.835 857.728 322.126 857.728 323.124C857.728 323.619 857.229 324.616 859.721 325.614C862.21 326.608 870.18 328.603 870.18 328.603H858.223C852.743 328.603 852.743 324.118 852.743 323.124C852.743 322.126 851.251 300.707 851.251 300.707C851.251 300.707 850.752 326.114 850.752 327.106C850.752 328.105 851.251 329.596 854.739 330.595L864.7 332.587H853.244C846.271 332.587 846.271 328.105 846.271 328.105L844.774 305.688C844.774 305.688 844.275 328.105 844.275 330.595C844.275 332.587 845.773 334.084 851.253 335.076C854.74 336.075 859.221 337.072 859.221 337.072H846.271C839.793 336.574 838.794 332.087 838.794 332.087L827.837 276.296L861.212 265.835ZM861.71 238.437C861.71 252.386 850.253 263.345 836.803 263.345C823.355 263.345 811.896 251.887 811.896 238.437C811.896 224.989 823.355 213.53 836.803 213.53C850.253 213.53 861.71 224.49 861.71 238.437Z" fill="#B63052"/>
<path d="M845.273 275.796C845.273 284.265 841.287 289.75 836.306 289.75C831.326 289.75 827.338 283.271 827.338 274.803C827.338 274.803 831.326 282.772 836.804 282.772C842.284 282.772 845.273 275.796 845.273 275.796Z" fill="#010101"/>
<path d="M845.272 275.796C845.272 281.281 841.285 284.266 836.305 284.266C831.324 284.266 827.836 280.282 827.836 275.302C827.836 275.302 831.823 280.282 837.302 280.282C842.782 280.282 845.272 275.796 845.272 275.796Z" fill="#FFEEED"/>
<path d="M869.18 252.386C869.18 260.914 862.269 267.825 853.741 267.825C845.212 267.825 838.296 260.914 838.296 252.386C838.296 243.857 845.212 236.941 853.741 236.941C862.269 236.941 869.18 243.857 869.18 252.386ZM834.312 252.386C834.312 260.914 827.396 267.825 818.867 267.825C810.339 267.825 803.428 260.914 803.428 252.386C803.428 243.857 810.339 236.941 818.868 236.941C827.396 236.941 834.312 243.857 834.312 252.386Z" fill="#CD4A77"/>
<path d="M865.698 252.387C865.698 258.988 860.342 264.343 853.741 264.343C847.14 264.343 841.783 258.988 841.783 252.387C841.783 245.781 847.139 240.43 853.741 240.43C860.341 240.43 865.698 245.781 865.698 252.387ZM829.826 252.387C829.826 258.988 824.476 264.343 817.874 264.343C811.269 264.343 805.918 258.988 805.918 252.387C805.918 250.816 806.227 249.261 806.827 247.811C807.428 246.36 808.309 245.042 809.419 243.931C810.53 242.821 811.848 241.94 813.299 241.339C814.749 240.739 816.304 240.43 817.874 240.43C824.476 240.43 829.826 245.781 829.826 252.387Z" fill="#FFEEED"/>
<path d="M821.359 250.889C821.359 251.347 821.27 251.8 821.095 252.223C820.92 252.647 820.663 253.031 820.339 253.355C820.016 253.679 819.632 253.936 819.209 254.111C818.786 254.287 818.333 254.377 817.875 254.377C817.417 254.377 816.963 254.288 816.54 254.113C816.117 253.938 815.733 253.681 815.409 253.357C815.085 253.034 814.828 252.65 814.653 252.227C814.477 251.804 814.387 251.35 814.387 250.893C814.387 249.968 814.753 249.081 815.406 248.427C816.059 247.773 816.946 247.405 817.871 247.404C818.795 247.403 819.682 247.77 820.336 248.423C820.991 249.077 821.359 249.965 821.359 250.889ZM857.229 250.889C857.239 251.352 857.154 251.813 856.983 252.243C856.811 252.674 856.556 253.066 856.231 253.397C855.907 253.727 855.519 253.99 855.092 254.169C854.665 254.349 854.206 254.441 853.743 254.441C853.279 254.441 852.821 254.349 852.393 254.17C851.966 253.991 851.579 253.728 851.254 253.397C850.929 253.067 850.674 252.675 850.502 252.244C850.331 251.814 850.247 251.354 850.255 250.89C850.272 249.977 850.646 249.106 851.298 248.465C851.95 247.825 852.827 247.466 853.741 247.466C854.655 247.465 855.532 247.824 856.185 248.464C856.837 249.104 857.212 249.975 857.229 250.889Z" fill="#010101"/>
<path d="M781.51 258.365C781.177 258.385 780.845 258.335 780.533 258.217C780.222 258.099 779.939 257.917 779.703 257.681C779.468 257.446 779.285 257.163 779.167 256.851C779.049 256.54 778.999 256.207 779.02 255.875V235.949C778.999 235.617 779.049 235.284 779.166 234.972C779.284 234.66 779.466 234.377 779.702 234.141C779.938 233.906 780.221 233.723 780.532 233.606C780.844 233.488 781.177 233.438 781.51 233.459C781.842 233.438 782.175 233.489 782.487 233.607C782.798 233.724 783.081 233.907 783.316 234.143C783.552 234.378 783.735 234.661 783.852 234.972C783.97 235.284 784.021 235.617 784 235.949V255.876C784.041 256.544 783.789 257.203 783.313 257.68C783.078 257.916 782.796 258.099 782.485 258.217C782.173 258.335 781.841 258.386 781.509 258.366L781.51 258.365ZM890.105 258.365C889.773 258.385 889.44 258.334 889.129 258.216C888.818 258.097 888.535 257.914 888.3 257.678C888.065 257.443 887.883 257.161 887.764 256.85C887.646 256.539 887.595 256.207 887.615 255.875V235.949C887.595 235.616 887.646 235.283 887.764 234.971C887.883 234.66 888.066 234.377 888.302 234.141C888.537 233.906 888.819 233.723 889.13 233.606C889.441 233.488 889.773 233.438 890.105 233.459C890.437 233.438 890.769 233.488 891.08 233.606C891.391 233.723 891.674 233.906 891.909 234.141C892.389 234.618 892.635 235.278 892.595 235.949V255.876C892.616 256.208 892.566 256.541 892.447 256.852C892.329 257.164 892.145 257.446 891.909 257.68C891.674 257.916 891.391 258.099 891.08 258.217C890.769 258.335 890.436 258.386 890.104 258.366L890.105 258.365Z" fill="#FFEEED"/>
<path d="M821.859 205.062C821.859 205.722 821.597 206.356 821.13 206.823C820.663 207.29 820.029 207.552 819.369 207.552C818.709 207.552 818.075 207.29 817.608 206.823C817.141 206.356 816.879 205.722 816.879 205.062C816.879 204.401 817.141 203.768 817.608 203.301C818.075 202.834 818.709 202.571 819.369 202.571C820.029 202.571 820.663 202.834 821.13 203.301C821.597 203.768 821.859 204.401 821.859 205.062ZM801.438 272.311C801.167 272.345 800.892 272.318 800.633 272.232C800.374 272.146 800.137 272.003 799.94 271.813C793.963 264.342 790.973 254.876 790.973 245.409C790.947 237.539 793.01 229.803 796.952 222.991C800.949 216.508 806.407 211.05 812.891 207.054C813.307 206.867 813.771 206.815 814.218 206.904C814.666 206.993 815.074 207.22 815.387 207.552C815.572 207.968 815.623 208.431 815.533 208.877C815.444 209.323 815.218 209.73 814.887 210.042C808.707 213.534 803.562 218.599 799.974 224.723C796.387 230.847 794.484 237.812 794.461 244.91C794.447 253.77 797.432 262.375 802.93 269.323C803.429 269.822 803.429 271.315 802.431 271.813C801.933 272.312 801.933 272.311 801.438 272.311Z" fill="#FFEEED"/>
<path fill-rule="evenodd" clip-rule="evenodd" d="M625.043 118.807L618.236 148.63H625.241L630.951 123.612C629.871 122.516 628.764 121.464 627.621 120.487C627.309 120.22 627.052 119.896 626.865 119.53C626.276 119.304 625.664 119.062 625.043 118.807ZM667.76 91.8508L632.719 108.726C633.166 109.351 633.593 109.971 633.996 110.567C634.393 110.667 634.768 110.844 635.097 111.088C636.224 111.921 637.406 112.709 638.623 113.464L667.806 99.4104C667.97 98.0015 668.087 96.5993 668.136 95.212C668.15 94.8022 668.245 94.3992 668.414 94.0257C668.195 93.331 667.973 92.6 667.76 91.8508ZM715.124 108.511L680.523 91.8486C680.309 92.5985 680.087 93.3304 679.868 94.0257C680.038 94.3992 680.132 94.8022 680.146 95.212C680.195 96.5987 680.313 98.0003 680.477 99.4089L709.265 113.272C710.485 112.501 711.671 111.696 712.799 110.847C713.126 110.6 713.499 110.42 713.896 110.316C714.283 109.732 714.695 109.124 715.124 108.511ZM730.05 148.63L723.147 118.383C722.451 118.679 721.763 118.958 721.104 119.217C720.92 119.584 720.667 119.911 720.357 120.18C719.285 121.113 718.245 122.112 717.231 123.152L723.047 148.63H730.05Z" fill="#CD4A77"/>
<path fill-rule="evenodd" clip-rule="evenodd" d="M691.075 130.218L691.906 131.244C692.292 127.964 695.013 124.816 700.178 121.994C705.563 119.052 710.591 116.442 714.69 113.356L715.233 114.027C718.437 109.023 720.925 105.874 722.698 104.578C725.08 103.128 727.282 103.55 728.994 105.46C730.507 107.531 730.462 109.773 728.548 111.802C726.912 113.267 723.314 115.045 717.753 117.138L718.296 117.809C714.426 121.178 710.827 125.553 706.83 130.208C702.997 134.674 699.351 136.681 696.062 136.377L696.893 137.403L693.661 140.021L690.804 133.124L688.609 132.215L691.075 130.218ZM651.237 137.504L652.059 136.471C648.773 136.804 645.11 134.829 641.238 130.397C637.201 125.776 633.564 121.433 629.664 118.098L630.201 117.423C624.623 115.378 621.009 113.631 619.36 112.18C617.429 110.168 617.365 107.927 618.859 105.843C620.554 103.918 622.751 103.477 625.147 104.905C626.931 106.186 629.446 109.314 632.693 114.289L633.231 113.614C637.357 116.663 642.408 119.23 647.817 122.124C653.008 124.9 655.756 128.025 656.17 131.302L656.993 130.268L659.478 132.245L657.356 133.124L654.475 140.08L651.237 137.504ZM669.52 124.287H670.841C668.534 121.922 667.8 117.826 668.857 112.036C669.96 106.001 671.096 100.451 671.278 95.3229H672.141C670.268 89.6841 669.386 85.7682 669.495 83.5752C669.868 80.8115 671.581 79.3655 674.142 79.2373C676.704 79.3655 678.418 80.8115 678.791 83.5752C678.899 85.7682 678.016 89.6841 676.144 95.3229H677.008C677.19 100.451 678.326 106.001 679.428 112.036C680.486 117.826 679.751 121.922 677.445 124.287H678.765V128.138L674.08 126.198L669.52 128.086V124.287Z" fill="#9C213B"/>
<path fill-rule="evenodd" clip-rule="evenodd" d="M674.079 129.017L681.443 132.068L688.809 135.117L691.859 142.484L694.406 148.63H681.064L680.472 147.2L679.375 144.551L676.727 143.455L674.079 142.358L671.431 143.455L668.782 144.551L667.686 147.2L667.094 148.63H653.752L656.299 142.484L659.349 135.117L666.715 132.068L674.079 129.017Z" fill="#CD4A77"/>
<path fill-rule="evenodd" clip-rule="evenodd" d="M619.826 174.753C619.826 175.097 619.759 175.438 619.628 175.756C619.496 176.074 619.304 176.363 619.06 176.606C618.817 176.85 618.528 177.043 618.211 177.175C617.893 177.307 617.552 177.375 617.208 177.375C616.864 177.375 616.523 177.307 616.205 177.175C615.887 177.043 615.598 176.85 615.355 176.606C615.112 176.363 614.919 176.074 614.788 175.756C614.657 175.438 614.589 175.097 614.59 174.753V156.24C614.59 155.546 614.866 154.88 615.357 154.389C615.848 153.898 616.514 153.622 617.208 153.622H730.049C730.744 153.622 731.409 153.898 731.9 154.389C732.391 154.88 732.667 155.546 732.667 156.24V174.753C732.667 175.097 732.601 175.438 732.469 175.756C732.338 176.074 732.145 176.363 731.902 176.606C731.659 176.85 731.37 177.043 731.052 177.175C730.734 177.307 730.393 177.375 730.049 177.375C729.705 177.375 729.364 177.307 729.047 177.175C728.729 177.043 728.44 176.85 728.197 176.606C727.954 176.363 727.761 176.074 727.629 175.756C727.498 175.438 727.431 175.097 727.431 174.753V158.858H676.246V174.753C676.247 175.097 676.179 175.438 676.048 175.756C675.917 176.074 675.724 176.363 675.481 176.606C675.238 176.85 674.949 177.043 674.631 177.175C674.313 177.307 673.972 177.375 673.628 177.375C673.284 177.375 672.943 177.307 672.625 177.175C672.308 177.043 672.019 176.85 671.776 176.606C671.532 176.363 671.34 176.074 671.208 175.756C671.077 175.438 671.01 175.097 671.01 174.753V158.858H619.826V174.753Z" fill="#9C213B"/>
<path fill-rule="evenodd" clip-rule="evenodd" d="M670.841 202.238C670.873 202.282 670.915 202.318 670.964 202.343C671.013 202.368 671.067 202.381 671.122 202.381H673.629H676.136C676.188 202.381 676.24 202.369 676.287 202.347C676.334 202.324 676.375 202.291 676.407 202.25L677.97 200.29L679.533 198.33C679.565 198.289 679.588 198.242 679.6 198.191C679.611 198.141 679.611 198.089 679.6 198.038L678.485 193.153C678.475 193.102 678.452 193.053 678.419 193.012C678.387 192.97 678.345 192.937 678.297 192.914L673.78 190.739C673.733 190.716 673.681 190.704 673.629 190.704C673.577 190.704 673.525 190.716 673.478 190.739L668.961 192.914C668.914 192.937 668.873 192.97 668.84 193.011C668.808 193.051 668.785 193.099 668.774 193.15L667.661 198.026C667.647 198.078 667.645 198.133 667.661 198.185C667.672 198.238 667.695 198.288 667.729 198.33L670.841 202.238ZM667.298 209.477C667.371 209.578 667.467 209.66 667.578 209.716C667.689 209.773 667.812 209.802 667.936 209.802H673.63L679.323 209.801C679.441 209.801 679.558 209.775 679.665 209.723C679.772 209.672 679.865 209.597 679.939 209.504L683.489 205.053L687.038 200.601C687.111 200.509 687.162 200.401 687.188 200.287C687.215 200.172 687.215 200.053 687.188 199.938L684.656 188.846C684.631 188.728 684.58 188.618 684.506 188.524C684.432 188.429 684.337 188.353 684.228 188.302L673.969 183.361C673.863 183.31 673.746 183.283 673.627 183.283C673.509 183.283 673.392 183.31 673.285 183.361L663.027 188.302C662.92 188.353 662.826 188.428 662.753 188.521C662.679 188.614 662.627 188.722 662.601 188.837L660.073 199.91C660.042 200.028 660.039 200.153 660.063 200.273C660.088 200.393 660.141 200.506 660.218 200.602L667.298 209.477Z" fill="#CD4A77"/>
<path fill-rule="evenodd" clip-rule="evenodd" d="M614.079 202.238C614.111 202.282 614.153 202.319 614.202 202.344C614.251 202.369 614.305 202.382 614.36 202.381H616.867H619.374C619.426 202.381 619.478 202.369 619.525 202.347C619.572 202.324 619.613 202.291 619.645 202.25L621.209 200.29L622.771 198.33C622.803 198.289 622.826 198.242 622.837 198.191C622.849 198.141 622.849 198.089 622.838 198.038L621.723 193.153C621.712 193.102 621.69 193.053 621.657 193.012C621.624 192.97 621.583 192.937 621.535 192.914L617.017 190.739C616.97 190.716 616.919 190.704 616.867 190.704C616.814 190.704 616.763 190.716 616.716 190.739L612.199 192.914C612.152 192.937 612.111 192.97 612.078 193.01C612.046 193.051 612.023 193.099 612.011 193.15L610.899 198.026C610.885 198.078 610.883 198.133 610.899 198.185C610.91 198.238 610.934 198.288 610.968 198.33L614.079 202.238ZM610.536 209.477C610.609 209.578 610.705 209.66 610.816 209.716C610.927 209.773 611.05 209.802 611.174 209.802H616.867L622.561 209.801C622.679 209.801 622.796 209.775 622.903 209.723C623.009 209.672 623.103 209.597 623.177 209.504L626.726 205.053L630.275 200.601C630.348 200.509 630.4 200.402 630.426 200.287C630.453 200.172 630.453 200.053 630.427 199.938L627.896 188.846C627.871 188.728 627.82 188.618 627.746 188.524C627.672 188.429 627.577 188.353 627.468 188.302L617.209 183.361C617.103 183.31 616.986 183.283 616.867 183.283C616.749 183.283 616.632 183.31 616.525 183.361L606.266 188.302C606.159 188.353 606.066 188.428 605.992 188.521C605.919 188.614 605.867 188.722 605.841 188.837L603.314 199.91C603.282 200.028 603.278 200.153 603.304 200.273C603.329 200.393 603.382 200.506 603.459 200.602L610.536 209.477Z" fill="#CD4A77"/>
<path fill-rule="evenodd" clip-rule="evenodd" d="M726.919 202.238C726.951 202.282 726.993 202.319 727.042 202.344C727.091 202.369 727.145 202.382 727.2 202.381H729.707H732.214C732.266 202.381 732.317 202.369 732.364 202.347C732.411 202.324 732.453 202.291 732.485 202.25L734.048 200.29L735.611 198.33C735.643 198.289 735.666 198.242 735.677 198.192C735.689 198.141 735.689 198.089 735.678 198.038L734.563 193.153C734.552 193.102 734.53 193.053 734.497 193.012C734.464 192.97 734.422 192.937 734.375 192.914L729.857 190.739C729.81 190.716 729.759 190.704 729.707 190.704C729.654 190.704 729.603 190.716 729.556 190.739L725.039 192.914C724.992 192.937 724.951 192.97 724.918 193.011C724.886 193.051 724.863 193.099 724.851 193.15L723.738 198.026C723.724 198.078 723.723 198.133 723.738 198.185C723.749 198.238 723.773 198.288 723.806 198.33L726.919 202.238ZM723.376 209.477C723.449 209.578 723.545 209.66 723.656 209.716C723.767 209.773 723.89 209.802 724.014 209.802H729.707L735.4 209.801C735.519 209.801 735.636 209.775 735.743 209.723C735.849 209.672 735.943 209.597 736.017 209.504L739.566 205.053L743.115 200.601C743.188 200.509 743.24 200.402 743.266 200.287C743.292 200.172 743.292 200.053 743.267 199.938L740.736 188.846C740.711 188.728 740.66 188.618 740.586 188.524C740.511 188.429 740.416 188.353 740.308 188.302L730.049 183.361C729.942 183.31 729.825 183.283 729.707 183.283C729.588 183.283 729.471 183.31 729.365 183.361L719.106 188.302C718.999 188.353 718.906 188.428 718.832 188.521C718.758 188.614 718.707 188.722 718.68 188.837L716.153 199.91C716.122 200.028 716.118 200.153 716.143 200.273C716.168 200.393 716.221 200.506 716.297 200.602L723.376 209.477Z" fill="#CD4A77"/>
<path d="M274.521 243.278C274.891 243.548 275.341 243.708 275.831 243.708C277.031 243.708 278.011 242.758 278.061 241.578L278.111 241.548L278.861 228.288C277.961 228.398 277.061 228.548 276.161 228.748C271.231 229.868 266.961 232.298 263.621 235.578L274.491 243.288L274.521 243.278ZM273.071 262.708C272.944 262.146 272.604 261.656 272.123 261.341C271.642 261.026 271.056 260.91 270.491 261.018L270.471 260.988L257.421 263.198C259.379 268.62 263.074 273.243 267.931 276.348L272.991 264.128L272.951 264.078C273.121 263.658 273.181 263.188 273.071 262.708ZM268.731 253.298C269.171 253.178 269.581 252.918 269.891 252.538C270.641 251.598 270.511 250.248 269.611 249.468L269.621 249.418L259.691 240.538C256.663 245.468 255.362 251.266 255.991 257.018L268.721 253.348L268.731 253.298ZM278.371 257.198L282.031 258.958L285.691 257.208L286.591 253.258L284.061 250.098H280.001L277.461 253.258L278.371 257.198ZM285.971 241.528C285.991 241.988 286.151 242.438 286.461 242.818C287.211 243.758 288.561 243.928 289.521 243.228L289.561 243.248L300.361 235.588C296.281 231.598 290.961 228.988 285.211 228.288L285.961 241.528H285.971ZM293.551 260.958C293.381 260.928 293.211 260.908 293.041 260.918C292.751 260.928 292.461 261.008 292.191 261.138C291.673 261.387 291.272 261.827 291.071 262.366C290.87 262.904 290.884 263.5 291.111 264.028L291.091 264.048L296.201 276.388C301.131 273.248 304.811 268.558 306.741 263.148L293.581 260.918L293.551 260.958ZM283.991 267.498C283.792 267.133 283.497 266.831 283.137 266.624C282.776 266.418 282.366 266.315 281.951 266.328C281.181 266.358 280.451 266.788 280.061 267.508H280.051L273.631 279.108C278.228 280.671 283.169 280.923 287.901 279.838C288.781 279.638 289.641 279.398 290.471 279.118L284.041 267.488H283.991V267.498Z" fill="#9C213B"/>
<path d="M342.581 264.969L332.141 219.639C331.869 218.463 331.334 217.364 330.577 216.424C329.821 215.483 328.861 214.726 327.771 214.209L285.531 194.029C284.309 193.448 282.962 193.18 281.611 193.249C280.536 193.301 279.483 193.567 278.511 194.029L236.271 214.209C235.183 214.729 234.225 215.487 233.468 216.427C232.712 217.366 232.176 218.464 231.901 219.639L221.491 264.979C221.249 266.023 221.222 267.106 221.411 268.162C221.6 269.217 222.002 270.223 222.591 271.119C222.731 271.339 222.891 271.549 223.051 271.759L252.291 308.109C253.052 309.052 254.015 309.812 255.108 310.333C256.202 310.854 257.399 311.122 258.611 311.119L305.501 311.109C307.961 311.109 310.281 309.999 311.821 308.099L341.051 271.739C341.799 270.798 342.326 269.701 342.591 268.529C342.855 267.356 342.852 266.139 342.581 264.969ZM326.511 264.419C326.201 265.769 324.751 266.589 323.251 266.269C323.241 266.269 323.221 266.269 323.211 266.259C323.191 266.259 323.181 266.249 323.161 266.239C322.951 266.189 322.691 266.149 322.511 266.099C321.651 265.869 321.021 265.519 320.241 265.219C318.571 264.619 317.181 264.119 315.831 263.919C315.141 263.869 314.791 264.189 314.411 264.439C314.231 264.399 313.661 264.299 313.331 264.249C310.911 271.859 305.751 278.459 298.761 282.579C298.881 282.869 299.091 283.489 299.181 283.599C299.021 284.029 298.781 284.429 298.991 285.089C299.481 286.359 300.271 287.609 301.231 289.099C301.691 289.789 302.171 290.319 302.591 291.119C302.691 291.309 302.821 291.599 302.921 291.799C303.571 293.189 303.091 294.789 301.841 295.389C300.581 295.999 299.021 295.359 298.341 293.959C298.241 293.759 298.111 293.499 298.031 293.309C297.671 292.489 297.551 291.789 297.301 290.989C296.731 289.309 296.251 287.919 295.571 286.739C295.181 286.169 294.711 286.099 294.281 285.959C294.201 285.819 293.901 285.269 293.741 284.989C292.341 285.519 290.901 285.959 289.401 286.299C282.841 287.789 276.271 287.189 270.411 284.929L269.841 285.969C269.411 286.079 269.001 286.199 268.751 286.499C267.831 287.599 267.461 289.359 266.791 291.039C266.541 291.829 266.421 292.539 266.061 293.359C265.981 293.549 265.841 293.809 265.751 293.999V294.009L265.741 294.019C265.071 295.409 263.511 296.049 262.251 295.449C261.001 294.849 260.531 293.249 261.171 291.859C261.271 291.659 261.391 291.369 261.491 291.179C261.911 290.389 262.381 289.849 262.851 289.159C263.811 287.659 264.651 286.319 265.141 285.049C265.261 284.629 265.081 284.049 264.921 283.619L265.381 282.519C258.651 278.529 253.341 272.179 250.801 264.309L249.701 264.499C249.401 264.329 248.811 263.939 248.251 263.989C246.901 264.189 245.511 264.689 243.841 265.289C243.061 265.589 242.441 265.929 241.571 266.159C241.391 266.209 241.131 266.259 240.921 266.309C240.901 266.309 240.891 266.319 240.871 266.329C240.861 266.329 240.841 266.329 240.831 266.339C239.331 266.659 237.881 265.839 237.571 264.489C237.261 263.139 238.221 261.769 239.711 261.409C239.721 261.409 239.741 261.399 239.751 261.399C239.761 261.399 239.761 261.399 239.771 261.389C239.981 261.339 240.251 261.269 240.451 261.229C241.331 261.059 242.051 261.099 242.881 261.039C244.651 260.849 246.111 260.699 247.411 260.289C247.821 260.119 248.221 259.549 248.501 259.189L249.561 258.879C248.371 250.659 250.381 242.599 254.721 236.069L253.911 235.349C253.861 235.029 253.791 234.309 253.401 233.889C252.411 232.959 251.151 232.179 249.641 231.249C248.921 230.829 248.261 230.559 247.541 230.019C247.391 229.909 247.181 229.729 247.021 229.599C247.011 229.589 246.991 229.579 246.981 229.569C245.771 228.599 245.491 226.929 246.361 225.839C246.851 225.229 247.601 224.919 248.371 224.949C248.971 224.969 249.601 225.189 250.131 225.609C250.301 225.749 250.541 225.929 250.691 226.059C251.371 226.639 251.781 227.219 252.351 227.829C253.601 229.099 254.631 230.149 255.761 230.909C256.351 231.259 256.811 231.119 257.261 231.059C257.411 231.169 257.891 231.519 258.171 231.709C262.471 227.139 268.131 223.759 274.691 222.269C276.221 221.919 277.741 221.689 279.261 221.569L279.321 220.499C279.661 220.169 280.031 219.709 280.141 219.189C280.251 217.829 280.071 216.369 279.861 214.599C279.741 213.779 279.551 213.089 279.511 212.199C279.501 212.019 279.511 211.759 279.521 211.549C279.521 211.529 279.511 211.499 279.511 211.479C279.511 209.929 280.641 208.669 282.041 208.669C283.441 208.669 284.571 209.929 284.571 211.479C284.571 211.699 284.581 211.999 284.581 212.199C284.551 213.089 284.351 213.779 284.231 214.599C284.021 216.359 283.831 217.829 283.941 219.189C284.041 219.869 284.441 220.139 284.771 220.449C284.781 220.629 284.811 221.239 284.831 221.579C292.871 222.289 300.331 225.969 305.821 231.719L306.781 231.029C307.111 231.049 307.821 231.149 308.311 230.859C309.441 230.099 310.471 229.039 311.721 227.779C312.291 227.169 312.711 226.599 313.391 226.009C313.541 225.879 313.781 225.699 313.951 225.559C315.161 224.589 316.851 224.699 317.721 225.789C318.591 226.879 318.311 228.549 317.101 229.519C316.931 229.659 316.711 229.849 316.541 229.969C315.821 230.499 315.161 230.769 314.441 231.199C312.931 232.129 311.671 232.909 310.681 233.839C310.211 234.339 310.251 234.819 310.201 235.269C310.061 235.399 309.571 235.839 309.301 236.069C311.538 239.398 313.145 243.109 314.041 247.019C314.961 251.009 315.101 254.989 314.571 258.819L315.591 259.119C315.771 259.379 316.151 260.009 316.681 260.219C317.981 260.629 319.441 260.779 321.211 260.969C322.041 261.039 322.761 260.999 323.641 261.159C323.851 261.199 324.161 261.279 324.371 261.329C325.871 261.699 326.821 263.069 326.511 264.419Z" fill="#9C213B"/>
<path d="M304.311 240.538L294.431 249.378L294.441 249.408C294.101 249.708 293.841 250.108 293.731 250.588C293.461 251.758 294.171 252.918 295.311 253.238L295.321 253.288L308.111 256.968C308.381 254.208 308.221 251.348 307.561 248.488C306.901 245.598 305.791 242.928 304.311 240.538Z" fill="#9C213B"/>
<path d="M458.439 92.2373C491.916 92.2443 519.396 119.533 519.353 152.737C519.31 186.44 491.943 213.354 457.74 213.33C424.299 213.307 397.263 185.987 397.287 152.244C397.309 119.248 424.845 92.2303 458.439 92.2373ZM439.935 113.487C440.701 117.264 439.959 120.787 438.822 124.252C438.037 126.651 436.951 128.963 436.302 131.397C435.232 135.405 434.022 139.436 433.576 143.533C432.936 149.428 435.252 154.619 439.216 159.783L420.994 155.948C421.025 156.522 420.994 156.74 421.056 156.924C422.783 161.998 425.822 166.272 429.228 170.303C429.588 170.729 430.408 170.947 431.018 170.947C449.185 170.983 467.353 170.979 485.521 170.955C486.084 170.955 486.838 170.85 487.181 170.487C491.076 166.393 494.052 161.729 495.916 155.857L476.626 159.635C477.9 157.139 479.349 154.947 480.186 152.537C483.041 144.295 481.857 136.327 477.759 128.811C474.47 122.78 471.435 116.776 473.076 109.506C469.603 112.94 468.267 117.306 467.42 121.806C466.588 126.24 466.095 130.736 465.45 135.236C465.357 135.1 465.24 134.998 465.22 134.881C465.139 134.411 465.082 133.936 465.052 133.459C464.658 126.092 463.22 118.994 460.182 112.213C458.396 108.225 456.424 104.143 458.267 99.3813C457.021 100.041 455.892 100.694 455.084 101.627C452.674 104.412 451.677 107.757 451.42 111.42C451.2 114.55 450.9 117.694 450.318 120.772C449.708 124.006 448.744 127.174 446.568 130.147C445.693 123.799 445.595 117.517 439.935 113.487ZM486.779 176.51H429.795V186.408H486.779V176.51ZM441.095 191.526C441.049 199.768 449.443 205.908 459.818 205.463C468.42 205.092 476.029 198.326 475.377 191.526H441.095Z" fill="#CD4A77"/>
<path d="M897.787 391.637C897.587 391.537 897.487 391.337 897.287 391.237C894.087 388.137 891.587 384.437 890.087 380.137C889.687 378.937 889.387 377.737 889.387 376.437V376.037C889.487 374.337 890.587 373.537 892.187 373.937C892.687 374.037 893.187 374.237 893.587 374.537C895.387 375.437 896.787 376.737 898.087 378.237C900.387 380.737 902.287 383.737 903.587 386.937C903.587 387.037 903.687 387.137 903.687 387.137C903.687 387.137 903.787 387.237 903.887 387.237C910.087 383.437 917.187 381.137 924.487 380.737C924.387 380.537 924.387 380.337 924.387 380.137C923.687 377.037 923.387 373.737 923.687 370.537C923.787 368.637 924.187 366.737 924.787 364.837C925.087 363.837 925.587 363.037 926.187 362.237C926.387 361.937 926.687 361.737 926.987 361.537C927.587 361.137 928.387 361.137 928.987 361.537C929.587 361.937 930.087 362.537 930.487 363.237C931.087 364.437 931.587 365.737 931.787 367.037C932.387 369.837 932.587 372.737 932.287 375.637C932.187 377.337 931.887 379.137 931.387 380.837C933.187 381.137 934.987 381.437 936.787 381.837C938.587 382.237 940.287 382.737 941.987 383.437C943.687 384.037 945.387 384.837 946.987 385.637C948.587 386.437 950.087 387.437 951.687 388.337C951.787 388.237 951.787 388.137 951.887 387.937C953.587 383.237 956.487 379.037 960.287 375.737C961.187 374.937 962.187 374.337 963.287 373.937C963.587 373.837 963.887 373.737 964.187 373.737C965.787 373.537 966.487 374.537 966.587 375.837C966.687 376.737 966.587 377.637 966.387 378.537C965.787 380.837 964.887 382.937 963.687 384.937C961.987 387.837 959.887 390.337 957.287 392.437C957.187 392.537 957.087 392.537 956.987 392.737C959.487 395.137 961.787 397.837 963.787 400.737C963.587 400.737 963.487 400.837 963.387 400.837H955.287C954.987 400.837 954.687 400.637 954.487 400.437C948.587 393.837 940.687 389.637 932.087 388.337C929.587 387.937 926.987 387.837 924.387 388.037C916.787 388.537 909.387 391.437 903.487 396.337C901.987 397.537 900.487 398.937 899.187 400.437C898.987 400.737 898.587 400.937 898.187 400.937H889.887C890.087 400.337 891.587 398.137 893.387 396.137C894.887 394.537 896.287 393.137 897.787 391.637ZM963.187 450.537C961.387 453.137 959.387 455.437 957.087 457.637C957.287 457.837 957.387 457.937 957.587 458.037C961.487 461.337 964.487 465.637 966.187 470.537C966.587 471.737 966.787 473.037 966.787 474.237C966.787 474.537 966.687 474.837 966.587 475.237C966.287 476.137 965.387 476.737 964.487 476.537C963.887 476.437 963.287 476.237 962.787 476.037C961.987 475.637 961.187 475.137 960.487 474.537C956.687 471.337 953.787 467.137 952.087 462.437C951.987 462.337 951.987 462.137 951.887 461.937C949.887 463.337 947.787 464.537 945.587 465.537C943.387 466.537 941.087 467.437 938.787 468.037C936.387 468.637 934.087 469.137 931.587 469.437C931.687 469.637 931.687 469.837 931.687 470.037C932.487 473.137 932.687 476.337 932.487 479.537C932.387 481.537 931.987 483.437 931.387 485.337C931.087 486.137 930.687 486.837 930.287 487.637C930.087 487.937 929.887 488.137 929.687 488.437C928.687 489.537 927.487 489.537 926.487 488.437C926.087 488.037 925.787 487.537 925.487 486.937C924.687 485.437 924.287 483.837 923.987 482.137C923.587 479.837 923.487 477.537 923.587 475.237C923.687 473.537 923.887 471.837 924.287 470.237C924.287 470.137 924.387 469.937 924.387 469.837C924.387 469.837 924.387 469.737 924.287 469.637C916.987 469.237 909.987 467.037 903.687 463.137L903.387 463.737C901.587 467.937 898.987 471.637 895.587 474.537C894.687 475.337 893.687 475.937 892.587 476.337C892.087 476.537 891.487 476.637 890.987 476.537C890.387 476.437 889.887 476.037 889.587 475.337C889.187 474.437 889.287 473.537 889.387 472.637C889.587 471.337 889.987 470.137 890.487 468.937C891.987 465.237 894.387 461.937 897.187 459.137C897.287 459.037 897.387 458.937 897.587 458.837C897.587 458.737 897.687 458.737 897.687 458.637C894.987 456.237 892.487 453.537 890.487 450.537C890.787 450.537 890.887 450.437 891.087 450.437H899.087C899.487 450.437 899.787 450.637 899.987 450.837C902.887 453.937 906.287 456.437 909.987 458.337C913.887 460.437 918.187 461.737 922.587 462.137C934.587 463.337 944.887 459.637 953.487 451.037C953.887 450.637 954.387 450.337 954.987 450.437H963.087L963.187 450.537ZM952.087 411.537C952.787 411.537 953.487 411.637 954.187 411.537C954.987 411.437 955.487 411.737 956.087 412.237C959.287 415.237 962.487 418.237 965.787 421.237L966.287 421.737C966.487 421.537 966.687 421.437 966.887 421.237C970.187 418.137 973.587 415.037 976.787 411.937C977.087 411.637 977.487 411.537 977.887 411.537H980.387V438.937C979.987 439.037 974.087 439.137 973.387 438.937V425.037L973.287 424.937C970.987 427.037 968.687 429.237 966.387 431.337C964.087 429.137 961.787 427.037 959.387 424.937L959.287 425.037V439.037H952.287C952.087 438.537 951.987 413.137 952.087 411.537ZM887.887 411.537H894.787C894.987 412.037 894.987 438.337 894.787 438.937H887.887C887.787 437.237 887.887 435.437 887.887 433.737V428.537H879.287V438.837C878.787 439.037 872.887 439.037 872.287 438.837V411.537H879.287V421.237C879.787 421.437 887.087 421.437 887.887 421.237V411.537ZM903.087 438.937V411.637C903.487 411.537 918.687 411.437 919.687 411.537V417.337C919.487 417.337 919.187 417.437 918.987 417.437H910.087V421.937H918.587V427.937H910.187C909.987 428.437 909.987 432.037 910.087 433.037C910.287 433.037 910.587 433.137 910.787 433.137H919.687V438.937H903.087ZM927.687 438.937C927.587 438.237 927.587 412.037 927.687 411.537H934.587V431.737C934.887 431.737 935.087 431.737 935.387 431.837H944.287V439.037L927.687 438.937Z" fill="#9C213B"/>
<path d="M165.211 411.779C165.211 416.104 161.703 419.605 157.385 419.605C153.063 419.605 149.564 416.104 149.564 411.779C149.564 407.472 153.065 403.957 157.385 403.957C161.703 403.956 165.211 407.472 165.211 411.779Z" fill="#CD4A77"/>
<path d="M175.326 411.779C175.326 416.109 178.829 419.607 183.153 419.607C187.471 419.607 190.98 416.109 190.98 411.779C190.98 407.469 187.471 403.957 183.153 403.957C178.829 403.956 175.326 407.469 175.326 411.779Z" fill="#CD4A77"/>
<path d="M228.593 420.268C228.026 420.313 227.465 420.333 226.864 420.333C223.372 420.333 219.987 419.516 216.931 418.021C217.946 412.182 218.381 406.307 218.269 400.449C214.955 395.654 211.171 391.135 206.896 386.973C208.751 383.497 211.494 380.505 214.91 378.389L216.381 377.478L215.233 376.181C209.337 369.547 202.303 364.414 194.32 360.928L192.729 360.237L192.324 361.915C191.371 365.834 189.385 369.371 186.653 372.209C181.406 369.421 175.923 367.167 170.268 365.459C164.627 367.163 159.15 369.411 153.907 372.198C151.184 369.364 149.206 365.833 148.259 361.927L147.848 360.244L146.262 360.932C138.385 364.365 131.152 369.638 125.351 376.18L124.204 377.476L125.672 378.387C129.084 380.496 131.813 383.47 133.667 386.925C129.409 391.074 125.623 395.581 122.315 400.352C122.187 406.203 122.598 412.123 123.618 418.04C120.577 419.521 117.213 420.332 113.745 420.332C113.137 420.332 112.566 420.312 112.012 420.266L110.287 420.132L110.447 421.854C111.296 430.56 113.996 438.846 118.492 446.472L119.367 447.964L120.681 446.845C123.734 444.258 127.418 442.544 131.34 441.855C133.926 447.136 136.986 452.102 140.463 456.713C146.006 458.651 151.782 460.101 157.749 460.963C158.322 464.904 157.866 468.985 156.31 472.757L155.654 474.357L157.341 474.73C161.661 475.684 166.019 476.163 170.292 476.163L183.241 474.73L184.93 474.357L184.276 472.757C182.721 468.985 182.262 464.897 182.841 460.95C188.779 460.089 194.532 458.643 200.058 456.713C203.538 452.102 206.603 447.129 209.187 441.842C213.122 442.525 216.832 444.239 219.9 446.837L221.215 447.95L222.092 446.471C226.591 438.827 229.294 430.545 230.127 421.854L230.287 420.133L228.593 420.268ZM188.801 441.31C182.671 442.972 176.453 443.813 170.27 443.813C164.065 443.813 157.854 442.972 151.724 441.31C148.359 436.085 145.7 430.487 143.789 424.592C141.881 418.722 140.765 412.577 140.441 406.248C144.403 401.352 148.904 397.063 153.879 393.456C158.935 389.779 164.432 386.79 170.27 384.539C176.097 386.79 181.586 389.771 186.627 393.431C191.619 397.063 196.144 401.382 200.124 406.312C199.783 412.602 198.65 418.715 196.745 424.574C194.834 430.469 192.165 436.085 188.801 441.31Z" fill="#CD4A77"/>
<path d="M260.64 593.018H258.511C254.621 592.961 247.126 593.387 240.369 599.236C224.187 613.232 220.496 633.872 192.816 645.001C169.734 654.285 141.287 645.512 141.287 645.512C141.287 645.512 166.668 643.752 170.018 624.39C172.659 609.257 158.861 598.497 150.23 584.842C141.429 570.93 139.186 559.375 143.416 554.379C155.426 540.184 188.5 578.539 204.938 583.706C221.007 588.76 231.852 577.034 245.167 578.738C249.426 579.277 251.499 581.123 252.861 583.451C253.316 584.245 254.48 586.914 255.502 587.908C256.495 588.873 257.83 589.583 259.079 590.321C260.64 591.258 262.202 593.018 260.64 593.018Z" fill="url(#paint0_linear_2_18859)"/>
<path d="M184.639 570.844C180.664 567.807 176.576 564.655 172.516 561.759C171.608 561.106 170.699 560.482 169.791 559.857C158.974 552.447 148.952 547.82 143.416 554.378C139.186 559.375 141.429 570.93 150.23 584.841C150.315 584.983 150.4 585.125 150.514 585.267C155.113 592.364 168.4 609.001 199.941 608.291C202.014 606.077 205.165 601.932 209.253 597.389C202.61 586.715 192.673 577.403 184.639 570.844Z" fill="#E86C78"/>
<path d="M216.408 621.011C216.522 616.269 215.67 611.613 214.023 607.099C209.878 607.724 205.222 608.15 199.913 608.263C196.052 612.352 187.251 623.31 172.63 633.19C153.211 646.335 141.287 645.512 141.287 645.512C141.287 645.512 169.734 654.284 192.787 645.029C201.049 641.707 207.181 637.534 212.149 632.935C212.973 632.14 216.238 628.108 216.408 621.011Z" fill="#B63052"/>
<path d="M209.224 597.39C205.164 601.904 201.985 606.078 199.912 608.292C205.221 608.179 209.877 607.753 214.022 607.128C213.539 605.794 212.972 604.46 212.347 603.154C211.438 601.166 210.388 599.264 209.224 597.39Z" fill="#CD4A77"/>
<path d="M232.874 580.242C224.357 582.825 215.868 587.14 204.938 583.705C199.515 582.002 192.304 576.693 184.639 570.873C192.673 577.431 202.638 586.715 209.253 597.418C215.272 590.689 223.307 583.251 232.874 580.242Z" fill="#CD4A77"/>
<path d="M214.051 607.098C215.698 611.612 216.55 616.268 216.436 621.01C216.266 628.079 213.001 632.139 212.178 632.934C223.818 622.174 229.042 609.086 240.369 599.263C242.47 597.446 244.656 596.14 246.786 595.231C239.319 598.326 231.256 604.515 214.051 607.098Z" fill="#9C213B"/>
<path d="M260.639 593.018C262.201 593.018 260.639 591.23 259.049 590.321C257.8 589.583 256.494 588.873 255.472 587.908C254.45 586.915 253.314 584.246 252.832 583.451C251.441 581.094 249.368 579.278 245.138 578.738C240.879 578.199 236.848 579.022 232.845 580.243C223.277 583.252 215.214 590.719 209.195 597.391C210.36 599.264 211.41 601.166 212.347 603.125C212.972 604.431 213.539 605.766 214.022 607.1C231.255 604.488 239.318 598.327 246.756 595.205C251.441 593.16 255.813 592.99 258.51 593.018H260.639Z" fill="#B63052"/>
<path d="M172.659 633.191C187.251 623.311 196.081 612.352 199.942 608.264C168.4 608.974 155.085 592.365 150.514 585.268C159.173 598.725 172.63 609.428 170.047 624.39C166.668 643.752 141.287 645.512 141.287 645.512C141.287 645.512 153.211 646.336 172.659 633.191Z" fill="#CD4A77"/>
<path d="M244.286 588.446C245.682 588.446 246.813 587.328 246.813 585.948C246.813 584.568 245.682 583.449 244.286 583.449C242.891 583.449 241.76 584.568 241.76 585.948C241.76 587.328 242.891 588.446 244.286 588.446Z" fill="white"/>
<path d="M853.287 639.237H933.287L883.298 654.237L853.287 639.237ZM853.287 634.228L883.298 629.223V574.243L853.287 634.228ZM888.281 629.223L933.283 634.228L888.281 534.237V629.223Z" fill="#B63052"/>
<defs>
<linearGradient id="paint0_linear_2_18859" x1="141.287" y1="600.253" x2="261.287" y2="600.253" gradientUnits="userSpaceOnUse">
<stop stop-color="#2A59A2"/>
<stop offset="1" stop-color="#2A59A2"/>
</linearGradient>
</defs>
</svg>
