<svg width="600" height="111" viewBox="0 0 600 111" fill="none" xmlns="http://www.w3.org/2000/svg">
<path d="M36.9267 36.1133C16.4773 36.1133 0 52.5906 0 73.04C0 93.3423 16.4773 109.966 36.9267 109.966C42.3701 109.966 49.8732 110.125 59.583 103.64C62.9667 101.434 64.8792 97.6087 63.1138 93.9306C61.3485 90.4 56.7877 88.3401 53.404 90.5469C46.3423 95.1076 40.3105 95.4019 36.9267 95.4019C27.0698 95.4019 18.8312 89.0759 15.7417 80.2487H66.4976C70.6169 80.2487 73.8535 77.0121 73.8535 73.04C73.8535 49.0597 54.7281 36.1133 36.9267 36.1133ZM36.9267 50.6781C45.7539 50.6781 55.1694 55.3857 58.2589 65.6841H15.7417C18.8312 57.0041 27.0698 50.6781 36.9267 50.6781Z" fill="#9C213B"/>
<path d="M119.831 73.4107L139.25 48.2534C141.751 45.0168 141.163 40.4563 137.926 37.9552C134.836 35.4542 130.276 36.043 127.775 39.2798L110.562 61.4946L93.3489 39.2798C90.848 36.0432 86.2873 35.4546 83.1978 37.9552C79.9612 40.4563 79.3726 45.0168 81.8732 48.2534L101.293 73.4107L81.8732 98.5677C79.3721 101.804 79.961 106.365 83.1978 108.719C84.5224 109.75 85.993 110.337 87.6114 110.337C89.8175 110.337 91.8779 109.307 93.3489 107.542L110.562 85.3275L127.775 107.542C129.246 109.308 131.306 110.337 133.512 110.337C135.131 110.337 136.602 109.75 137.926 108.719C141.162 106.365 141.751 101.804 139.25 98.5677L119.831 73.4107Z" fill="#9C213B"/>
<path d="M191.857 36.6322H181.412V7.20872C181.412 3.2366 178.175 0 174.056 0C170.084 0 166.847 3.2366 166.847 7.20872V36.6322H156.255C152.283 36.6322 149.046 39.8688 149.046 43.8411C149.046 47.8132 152.283 51.197 156.255 51.197H166.847V103.13C166.847 107.102 170.084 110.485 174.056 110.485C178.175 110.485 181.412 107.102 181.412 103.13V51.197H191.857C195.977 51.197 199.213 47.8132 199.213 43.8411C199.213 39.8688 195.977 36.6322 191.857 36.6322Z" fill="#9C213B"/>
<path d="M234.899 36.6328C214.597 36.6328 197.973 53.1101 197.973 73.5595V103.13C197.973 107.102 201.209 110.486 205.329 110.486C209.301 110.486 212.537 107.102 212.537 103.13V73.5595C212.537 61.2015 222.541 51.1976 234.899 51.1976C239.019 51.1976 242.255 47.8139 242.255 43.8418C242.255 39.8694 239.019 36.6328 234.899 36.6328Z" fill="#9C213B"/>
<path d="M278.083 36.4844C257.633 36.4844 241.156 52.9617 241.156 73.4111C241.156 93.7134 257.633 110.338 278.083 110.338C283.526 110.338 291.029 110.496 300.739 104.012C304.123 101.805 306.036 97.9798 304.27 94.3017C302.505 90.7711 297.944 88.7112 294.56 90.918C287.499 95.4787 281.467 95.773 278.083 95.773C268.226 95.773 259.987 89.4469 256.898 80.6198H307.654C311.773 80.6198 315.01 77.3832 315.01 73.4111C315.01 49.4308 295.884 36.4844 278.083 36.4844ZM278.083 51.0492C286.91 51.0492 296.326 55.7568 299.415 66.0552H256.898C259.987 57.3752 268.226 51.0492 278.083 51.0492Z" fill="#9C213B"/>
<path d="M426.901 66.2049C426.901 50.0219 413.66 36.7812 397.33 36.7812C388.503 36.7812 380.558 40.6064 375.115 46.9325C369.671 40.6064 361.727 36.7812 352.9 36.7812C336.57 36.7812 323.329 50.0219 323.329 66.2049V103.279C323.329 107.398 326.566 110.634 330.685 110.634C334.657 110.634 337.894 107.398 337.894 103.279V66.2049C337.894 57.9662 344.661 51.3461 352.9 51.3461C361.138 51.3461 367.759 57.9662 367.759 66.2049V103.279C367.759 107.398 371.143 110.634 375.115 110.634C379.087 110.634 382.324 107.398 382.324 103.279V66.2049C382.324 57.9662 389.091 51.3461 397.33 51.3461C405.568 51.3461 412.336 57.9662 412.336 66.2049C412.336 66.4988 412.336 66.6457 412.336 66.7926C412.336 67.0865 412.336 67.2334 412.336 67.5273V103.277C412.336 107.396 415.572 110.633 419.545 110.633C423.517 110.633 426.901 107.396 426.901 103.277V67.5273C426.901 67.2334 426.901 67.0865 426.742 66.7926C426.901 66.6344 426.901 66.4988 426.901 66.2049Z" fill="#9C213B"/>
<path d="M471.852 36.4844C451.402 36.4844 434.925 52.9617 434.925 73.4111C434.925 93.7134 451.402 110.338 471.852 110.338C477.295 110.338 484.798 110.496 494.508 104.012C497.892 101.805 499.804 97.9798 498.039 94.3017C496.273 90.7711 491.713 88.7112 488.329 90.918C481.267 95.4787 475.235 95.773 471.852 95.773C461.995 95.773 453.756 89.4469 450.667 80.6198H501.422C505.542 80.6198 508.778 77.3832 508.778 73.4111C508.778 49.4308 489.653 36.4844 471.852 36.4844ZM471.852 51.0492C480.679 51.0492 490.094 55.7568 493.184 66.0552H450.667C453.756 57.3752 461.995 51.0492 471.852 51.0492Z" fill="#9C213B"/>
<path d="M563.809 36.1133C543.065 36.1133 526.588 52.5906 526.588 73.3341C526.588 94.0778 543.065 109.525 563.809 109.525C572.195 109.525 579.256 107.466 585.582 102.169C585.582 106.436 589.702 109.525 592.644 109.525C596.911 109.525 600 106.436 600 102.169V73.3341C600 52.5906 584.553 36.1133 563.809 36.1133ZM563.809 95.1076C551.451 95.1076 541.005 85.6921 541.005 73.3341C541.005 60.9763 551.451 50.531 563.809 50.531C576.167 50.531 585.582 60.9763 585.582 73.3341C585.582 85.6921 576.167 95.1076 563.809 95.1076Z" fill="#CD4A77"/>
</svg>
