<svg viewBox="0 0 5182 717" xmlns="http://www.w3.org/2000/svg" aria-label="Nuoxera"><path fill="#000000" d="M5020.36 411.728V390.578H4910.38C4842.7 390.578 4734.13 397.628 4734.13 485.05C4734.13 547.089 4779.24 585.162 4839.88 585.162C4949.86 585.162 5020.36 524.528 5020.36 411.728ZM3412.24 286.234H3747.83C3747.83 188.945 3691.43 131.133 3591.31 131.133C3494.02 131.133 3419.29 186.122 3412.24 286.234ZM2151.39 355.328C2151.39 249.572 2103.45 145.233 1969.5 145.233C1835.54 145.233 1787.6 249.572 1787.6 355.328C1787.6 461.078 1835.54 568.239 1969.5 568.239C2103.45 568.239 2151.39 461.078 2151.39 355.328ZM5102.14 713.473C5054.2 713.473 5023.18 682.456 5023.18 634.512V610.545H5018.95C4985.11 671.173 4904.74 713.473 4808.86 713.473C4701.69 713.473 4569.15 647.206 4569.15 503.378C4569.15 317.256 4729.89 273.545 4920.25 273.545H5020.36V256.622C5020.36 172.022 4949.86 141 4865.25 141C4772.19 141 4683.37 180.483 4636.83 211.506L4632.6 56.4C4724.25 15.5056 4776.43 0 4879.36 0C5120.48 0 5181.1 149.461 5181.1 284.822V634.512C5181.1 682.456 5150.09 713.473 5102.14 713.473ZM4265.29 362.378V626.056C4265.29 676.812 4231.45 710.656 4180.69 710.656C4129.93 710.656 4096.09 676.812 4096.09 626.056V19.7389H4258.24V118.439H4261.06C4299.14 39.4778 4368.23 0 4458.47 0C4471.16 0 4502.18 -1.22521e-05 4513.46 4.22777V159.333C4490.9 153.689 4462.7 152.283 4447.19 152.283C4294.9 152.283 4265.29 311.617 4265.29 362.378ZM3412.24 407.5C3416.47 517.484 3498.25 587.984 3599.77 587.984C3661.81 587.984 3732.31 562.6 3756.29 500.561H3904.34C3883.19 651.434 3728.09 716.295 3589.9 716.295C3375.58 716.295 3243.04 573.884 3243.04 362.378C3243.04 153.689 3381.21 0 3592.72 0C3811.28 0 3917.03 153.689 3917.03 358.145C3917.03 375.067 3917.03 390.578 3915.62 407.5H3412.24ZM2859.89 548.423C2859.82 548.367 2859.77 548.311 2859.71 548.256L2857.67 546.228L2857.9 546.017C2845.41 532.434 2837.93 514.05 2837.93 492.65C2837.93 446.117 2870.36 413.689 2915.49 413.689C2939.14 413.689 2959.08 422.134 2973.04 436.489L2973.3 436.245L3139.68 601.223L3026.87 714.023L2859.89 548.423ZM2914.07 299.472C2870.36 299.472 2839.34 268.45 2839.34 224.739C2839.34 201.95 2847.91 182.761 2862.19 169.467L3029.7 1.95554L3136.86 109.122L2969.36 276.617C2956.07 290.895 2936.87 299.472 2914.07 299.472ZM2536.19 714.023L2426.2 604.045L2671.55 360.106L2421.97 111.939L2533.36 0.549995L2891.51 358.695L2536.19 714.023ZM1969.5 716.295C1765.04 716.295 1615.57 568.239 1615.57 355.328C1615.57 141 1765.04 0 1969.5 0C2173.95 0 2323.41 141 2323.41 355.328C2323.41 568.239 2173.95 716.295 1969.5 716.295ZM1285.65 602.084H1282.83C1253.22 669.767 1174.26 716.295 1072.73 716.295C896.478 716.295 823.156 582.345 823.156 442.75V19.7389H992.356V394.806C992.356 475.178 1010.69 568.239 1119.26 568.239C1226.42 568.239 1277.19 461.078 1277.19 370.839V90.239C1277.19 39.4778 1311.03 5.63889 1361.79 5.63889C1412.55 5.63889 1446.4 39.4778 1446.4 90.239V696.556H1285.65V602.084ZM454.028 321.489C454.028 241.111 435.7 148.05 327.128 148.05C219.961 148.05 169.2 255.217 169.2 345.456V626.056C169.2 676.812 135.361 710.656 84.6002 710.656C33.8391 710.656 0 676.812 0 626.056V19.7389H160.739V114.211H163.561C193.172 46.5278 272.134 0 373.656 0C549.912 0 623.234 133.95 623.234 273.545V696.556H454.028V321.489Z"></path></svg>
