<svg width="600" height="200" viewBox="0 0 600 200" fill="none" xmlns="http://www.w3.org/2000/svg">
<path d="M0 200H600V0H0V200Z" fill="#CD4A77"/>
<path d="M532.222 134.833H543.97V152.684H494.801V135.918H504.696L489.642 114.046L475.019 135.918H484.914V152.684H443.18V134.833H454.222L478.167 98.5235L454.522 65.1505H445.447V47.3086H491.229V64.0745H481.898L496.38 83.7773L509.574 64.0745H500.684V47.3086H543.97V65.1505H530.361L507.281 99.6083L532.222 134.833ZM400.247 47.3086H437.095V65.1505H427.42V124.127C427.42 148.645 403.748 153.928 389.143 153.928C368.929 153.928 350.249 146.017 350.249 120.246V65.1505H338.775V47.3086H384.081V65.1505H375.632V118.703C375.632 129.092 380.456 136.077 391.754 136.077C401.235 136.077 408.881 131.579 408.881 119.62V65.1505H400.247V47.3086ZM111.496 47.3086H151.898V65.1505H142.532L114.548 152.711H91.7052L62.7067 65.1505H51.2324V47.3086H99.4046V65.1505H88.2215L104.423 118.517H104.705L122.256 65.1505H111.496V47.3086ZM320.713 119.135H339.78V152.684H256.912V134.833H270.812V65.1505H256.912V47.3086H310.394V65.1505H296.194V134.833H320.713V119.135ZM160.25 47.3086H244.935V80.6728H226.441V65.1505H196.19V89.3688H220.567V107.211H196.19V134.833H226.441V119.17H244.935V152.684H159.351V134.833H170.825V65.1505H160.25V47.3086ZM542.717 99.9611C542.717 92.3939 548.45 86.6789 556.044 86.6789C563.637 86.6789 569.361 92.3939 569.361 99.9611C569.361 107.572 563.664 113.314 556.114 113.314C548.477 113.314 542.717 107.572 542.717 99.9611ZM539.648 99.9963C539.648 109.345 546.66 116.392 555.973 116.392C565.366 116.392 572.448 109.345 572.448 99.9963C572.448 90.6477 565.392 83.5921 556.035 83.5921C546.695 83.5921 539.648 90.6477 539.648 99.9963ZM556.255 93.6375C558.257 93.6375 559.36 94.5459 559.36 96.1951C559.36 98.303 557.675 98.744 556.255 98.744C556.255 98.744 554.033 98.744 553.759 98.744C553.759 98.4794 553.759 93.9021 553.759 93.6375C554.033 93.6375 556.255 93.6375 556.255 93.6375ZM550.505 90.9299H550.364V108.648H553.909C553.909 108.648 553.909 101.734 553.909 101.46C554.147 101.46 555.426 101.46 555.426 101.46C555.426 101.584 559.871 108.578 559.871 108.578L563.514 108.648H563.778C563.778 108.648 559.069 101.31 558.883 101.037C561.344 100.323 562.764 98.5852 562.764 96.1951C562.764 92.8437 560.462 90.9299 556.458 90.9299H550.505Z" fill="white"/>
</svg>
