<svg xmlns="http://www.w3.org/2000/svg" version="1.1" viewBox="0 0 127.5999603 42.5332985" xml:space="preserve">
<style type="text/css">.st0{fill:#EE0000;}.st1{fill:#FFFFFF;}</style>
<g>
    <rect class="st0" width="127.5999603" height="42.5332985"/>
    <path class="st1" d="M117.0739746,19.3375454h-0.0312195v3.7688103h0.755188c0,0,0-1.4701729,0-1.5293102   c0.050766,0,0.3205719,0,0.3215027,0l0,0c0,0.0255108,0.9445801,1.514864,0.9445801,1.514864l0.775589,0.0144463h0.0567474   c0,0-1.002243-1.5602303-1.0403595-1.6196747c0.5214081-0.150362,0.8242798-0.5204868,0.8242798-1.0295391   c0-0.711359-0.4884033-1.1195965-1.3402252-1.1195965H117.0739746z M118.2953186,19.9138489   c0.4268646,0,0.6612549,0.1936378,0.6612549,0.543293c0,0.4493637-0.3595581,0.5429859-0.6612549,0.5429859   c0,0-0.4727325,0-0.5285492,0c0-0.0570469,0-1.029541,0-1.0862789   C117.8225861,19.9138489,118.2953186,19.9138489,118.2953186,19.9138489z M114.7639618,21.2669792   c0,1.9879551,1.4926758,3.4863453,3.4716644,3.4863453c1.9975433,0,3.5031281-1.4983902,3.5031281-3.4863453   c0-1.9891853-1.4996185-3.4884357-3.4884338-3.4884357C116.2623596,17.7785435,114.7639618,19.2777939,114.7639618,21.2669792z    M115.418335,21.2591724c0-1.6109467,1.2192535-2.8263168,2.832901-2.8263168c1.6148224,0,2.8319702,1.2153702,2.8319702,2.8263168   c0,1.6184444-1.2102661,2.8397789-2.817276,2.8397789C116.6423798,24.0989513,115.418335,22.8776169,115.418335,21.2591724z    M34.0793686,10.0605621h18.0106735v7.0966187h-3.9338684v-3.3014355H41.723465v5.1498508h5.1834717v3.79426H41.723465v5.874733   h6.4327087v-3.3332806h3.9338684v7.1293869H33.8878784v-3.7961044h2.4393539V13.8557444h-2.2478638V10.0605621z    M68.2037354,25.3355904h4.0560074v7.1351013h-17.623764v-3.7961044h2.9568863V13.8557444h-2.9568863v-3.7951822h11.3727036   v3.7951822h-3.0184174v14.8188429h5.2134705V25.3355904z M23.7118683,10.0605621h8.5926666v3.7951822h-1.99189   l-5.9532852,18.6218338H19.501255l-6.166729-18.6218338h-2.4384842v-3.7951822h10.2438202v3.7951822h-2.3791046   l3.4455261,11.3498917h0.0615311l3.7306976-11.3498926h-2.286644V10.0605621z M85.1185379,10.0605621h7.8362503v3.7951822   h-2.0569763v12.5427046c0,5.2143955-5.0351486,6.3360825-8.1385193,6.3360825c-4.2991333,0-8.273262-1.6829929-8.273262-7.1623955   V13.8557444h-2.4393463v-3.7951822h9.6350632v3.7951822h-1.7985611v11.3880072   c0,2.2097473,1.0259705,3.6946735,3.4302139,3.6946735c2.0140839,0,3.6406403-0.9554024,3.6406403-3.4983311V13.8557444h-1.8355026   V10.0605621z M113.1851196,28.6745872h2.5000153v3.7961044h-10.4575043v-3.564415h2.1032257l-3.2014923-4.6530304   l-3.1093292,4.6530304h2.1043854v3.564415h-8.8750763v-3.7961044h2.34935l5.0924988-7.7221622l-5.0318909-7.0966816h-1.9272766   v-3.7951822h9.7335358v3.5652761h-1.9828491l3.0808105,4.1908169l2.8046722-4.1908178h-1.8903961v-3.5652761h9.2073364v3.7951822   H112.78862l-4.9078979,7.3272009L113.1851196,28.6745872z"/>
</g>
</svg>
