<svg width="120" height="116" viewBox="0 0 120 116" fill="none" xmlns="http://www.w3.org/2000/svg">
<path d="M54.9241 51.5417C54.9241 55.8667 51.4159 59.3677 47.0974 59.3677C42.7762 59.3677 39.2773 55.8667 39.2773 51.5417C39.2773 47.2347 42.7775 43.7197 47.0974 43.7197C51.4159 43.7187 54.9241 47.2347 54.9241 51.5417Z" fill="#CD4A77"/>
<path d="M65.0391 51.5417C65.0391 55.8717 68.542 59.3697 72.8659 59.3697C77.1844 59.3697 80.6926 55.8717 80.6926 51.5417C80.6926 47.2317 77.1844 43.7197 72.8659 43.7197C68.542 43.7187 65.0391 47.2317 65.0391 51.5417Z" fill="#CD4A77"/>
<path d="M118.306 60.031C117.739 60.076 117.178 60.096 116.577 60.096C113.085 60.096 109.7 59.279 106.644 57.784C107.659 51.945 108.094 46.07 107.982 40.212C104.668 35.417 100.884 30.898 96.6093 26.736C98.4635 23.26 101.207 20.268 104.623 18.152L106.094 17.241L104.946 15.944C99.0495 9.31 92.0158 4.17701 84.0328 0.69101L82.4416 0L82.0371 1.67801C81.084 5.59701 79.0976 9.13402 76.3663 11.972C71.1187 9.18402 65.6361 6.93002 59.9813 5.22202C54.3399 6.92602 48.8626 9.174 43.6203 11.961C40.8971 9.127 38.9187 5.596 37.9722 1.69L37.5611 0.00698853L35.9752 0.695007C28.0977 4.12801 20.865 9.40099 15.0634 15.943L13.9167 17.239L15.3851 18.15C18.7972 20.259 21.5258 23.233 23.3801 26.688C19.1216 30.837 15.3357 35.344 12.0278 40.115C11.8996 45.966 12.3108 51.886 13.3307 57.803C10.2897 59.284 6.92561 60.095 3.45741 60.095C2.85001 60.095 2.2787 60.075 1.7247 60.029L0 59.895L0.160103 61.617C1.0092 70.323 3.70841 78.609 8.20451 86.235L9.0802 87.727L10.3938 86.608C13.4468 84.021 17.1312 82.307 21.0533 81.618C23.639 86.899 26.6987 91.865 30.1762 96.476C35.7189 98.414 41.4951 99.864 47.4623 100.726C48.035 104.667 47.5784 108.748 46.0232 112.52L45.3664 114.12L47.0538 114.493C51.3737 115.447 55.7322 115.926 60.0053 115.926L72.9542 114.493L74.6429 114.12L73.9888 112.52C72.4336 108.748 71.9744 104.66 72.5537 100.713C78.4915 99.852 84.2451 98.406 89.7704 96.476C93.2506 91.865 96.3156 86.892 98.9 81.605C102.835 82.288 106.545 84.002 109.613 86.6L110.928 87.713L111.805 86.234C116.304 78.59 119.007 70.308 119.84 61.617L120 59.896L118.306 60.031ZM78.5142 81.073C72.3842 82.735 66.1661 83.576 59.9826 83.576C53.7779 83.576 47.5664 82.735 41.4364 81.073C38.0723 75.848 35.4132 70.25 33.5015 64.355C31.5939 58.485 30.4779 52.34 30.1535 46.011C34.1156 41.115 38.617 36.826 43.5923 33.219C48.6477 29.542 54.145 26.553 59.9826 24.302C65.8096 26.553 71.2989 29.534 76.3396 33.194C81.3323 36.826 85.8564 41.145 89.8371 46.075C89.4954 52.365 88.3634 58.478 86.4584 64.337C84.5468 70.232 81.8783 75.848 78.5142 81.073Z" fill="#CD4A77"/>
</svg>
