<svg width="120" height="99" viewBox="0 0 120 99" fill="none" xmlns="http://www.w3.org/2000/svg">
<path d="M119.353 41.7803H117.224C113.334 41.7233 105.839 42.1492 99.082 47.9982C82.9 61.9942 79.209 82.6342 51.5286 93.7632C28.4472 103.047 0 94.2742 0 94.2742C0 94.2742 25.381 92.5142 28.7311 73.1522C31.3714 58.0192 17.5737 47.2592 8.94301 33.6042C0.142009 19.6922 -2.1009 8.13722 2.1293 3.14122C14.1384 -11.0538 47.2132 27.3013 63.6513 32.4683C79.72 37.5223 90.565 25.7962 103.88 27.5002C108.139 28.0392 110.212 29.8852 111.574 32.2132C112.029 33.0072 113.193 35.6762 114.215 36.6702C115.208 37.6352 116.543 38.3452 117.792 39.0832C119.353 40.0202 120.915 41.7803 119.353 41.7803Z" fill="url(#paint0_linear_155_100)"/>
<path d="M43.3518 19.607C39.3772 16.57 35.289 13.4179 31.2291 10.5219C30.3206 9.86894 29.4121 9.24496 28.5036 8.61996C17.6869 1.20996 7.6651 -3.41704 2.129 3.14096C-2.1012 8.13796 0.141604 19.693 8.9427 33.604C9.0277 33.746 9.11301 33.888 9.22661 34.03C13.8258 41.127 27.1125 57.764 58.6543 57.054C60.7267 54.84 63.8781 50.6949 67.9663 46.1519C61.3229 35.4779 51.3863 26.166 43.3518 19.607Z" fill="#E86C78"/>
<path d="M75.121 69.7733C75.235 65.0313 74.383 60.3753 72.736 55.8613C68.5912 56.4863 63.9352 56.9123 58.6262 57.0253C54.7651 61.1143 45.964 72.0723 31.343 81.9523C11.924 95.0973 0 94.2743 0 94.2743C0 94.2743 28.4472 103.046 51.5002 93.7913C59.7618 90.4693 65.8941 86.2963 70.862 81.6973C71.686 80.9023 74.951 76.8703 75.121 69.7733Z" fill="#B63052"/>
<path d="M67.937 46.1523C63.8772 50.6663 60.6975 54.8404 58.625 57.0544C63.934 56.9414 68.59 56.5154 72.735 55.8904C72.252 54.5564 71.685 53.2224 71.06 51.9164C70.151 49.9284 69.101 48.0263 67.937 46.1523Z" fill="#CD4A77"/>
<path d="M91.5865 29.0048C83.0695 31.5878 74.5805 35.9028 63.6507 32.4678C58.2281 30.7648 51.017 25.4557 43.3516 19.6357C51.386 26.1937 61.3511 35.4778 67.966 46.1808C73.9845 39.4518 82.0195 32.0138 91.5865 29.0048Z" fill="#CD4A77"/>
<path d="M72.7636 55.8611C74.4106 60.3751 75.2626 65.0311 75.1486 69.7731C74.9786 76.8421 71.7136 80.9021 70.8906 81.6971C82.5306 70.9371 87.7546 57.8491 99.0816 48.0261C101.183 46.2091 103.369 44.9031 105.499 43.9941C98.0316 47.0891 89.9686 53.2781 72.7636 55.8611Z" fill="#9C213B"/>
<path d="M119.352 41.7804C120.914 41.7804 119.352 39.9924 117.762 39.0834C116.513 38.3454 115.206 37.6354 114.184 36.6704C113.162 35.6774 112.026 33.0084 111.544 32.2134C110.153 29.8564 108.08 28.0404 103.85 27.5004C99.5915 26.9614 95.5605 27.7844 91.5575 29.0054C81.9895 32.0144 73.9265 39.4814 67.9082 46.1534C69.0725 48.0264 70.1225 49.9284 71.0595 51.8874C71.6845 53.1934 72.2515 54.5284 72.7345 55.8624C89.9675 53.2504 98.0305 47.0894 105.468 43.9674C110.153 41.9224 114.526 41.7524 117.223 41.7804H119.352Z" fill="#B63052"/>
<path d="M31.3714 81.9532C45.9641 72.0732 54.7935 61.1142 58.6546 57.0262C27.1128 57.7362 13.7977 41.1273 9.2269 34.0303C17.8859 47.4873 31.343 58.1902 28.7595 73.1522C25.381 92.5142 0 94.2742 0 94.2742C0 94.2742 11.924 95.0982 31.3714 81.9532Z" fill="#CD4A77"/>
<path d="M102.999 37.2089C104.395 37.2089 105.526 36.0909 105.526 34.7109C105.526 33.3309 104.395 32.2119 102.999 32.2119C101.604 32.2119 100.473 33.3309 100.473 34.7109C100.473 36.0909 101.604 37.2089 102.999 37.2089Z" fill="white"/>
<defs>
<linearGradient id="paint0_linear_155_100" x1="0" y1="49.0152" x2="120" y2="49.0152" gradientUnits="userSpaceOnUse">
<stop stop-color="#2A59A2"/>
<stop offset="1" stop-color="#2A59A2"/>
</linearGradient>
</defs>
</svg>
