<svg width="109" height="129" viewBox="0 0 109 129" fill="none" xmlns="http://www.w3.org/2000/svg">
<path d="M25.5 30.4C25.3 30.3 25.2 30.1 25 30C21.8 26.9 19.3 23.2 17.8 18.9C17.4 17.7 17.1 16.5 17.1 15.2V14.8C17.2 13.1 18.3 12.3 19.9 12.7C20.4 12.8 20.9 13 21.3 13.3C23.1 14.2 24.5 15.5 25.8 17C28.1 19.5 30 22.5 31.3 25.7C31.3 25.8 31.4 25.9 31.4 25.9C31.4 25.9 31.5 26 31.6 26C37.8 22.2 44.9 19.9 52.2 19.5C52.1 19.3 52.1 19.1 52.1 18.9C51.4 15.8 51.1 12.5 51.4 9.3C51.5 7.4 51.9 5.50002 52.5 3.60002C52.8 2.60002 53.3 1.80001 53.9 1.00001C54.1 0.700012 54.4 0.5 54.7 0.3C55.3 -0.1 56.1 -0.1 56.7 0.3C57.3 0.7 57.8 1.30001 58.2 2.00001C58.8 3.20001 59.3 4.5 59.5 5.8C60.1 8.6 60.3 11.5 60 14.4C59.9 16.1 59.6 17.9 59.1 19.6C60.9 19.9 62.7 20.2 64.5 20.6C66.3 21 68 21.5 69.7 22.2C71.4 22.8 73.1 23.6 74.7 24.4C76.3 25.2 77.8 26.2 79.4 27.1C79.5 27 79.5 26.9 79.6 26.7C81.3 22 84.2 17.8 88 14.5C88.9 13.7 89.9 13.1 91 12.7C91.3 12.6 91.6 12.5 91.9 12.5C93.5 12.3 94.2 13.3 94.3 14.6C94.4 15.5 94.3 16.4 94.1 17.3C93.5 19.6 92.6 21.7 91.4 23.7C89.7 26.6 87.6 29.1 85 31.2C84.9 31.3 84.8 31.3 84.7 31.5C87.2 33.9 89.5 36.6 91.5 39.5C91.3 39.5 91.2 39.6 91.1 39.6H83C82.7 39.6 82.4 39.4 82.2 39.2C76.3 32.6 68.4 28.4 59.8 27.1C57.3 26.7 54.7 26.6 52.1 26.8C44.5 27.3 37.1 30.2 31.2 35.1C29.7 36.3 28.2 37.7 26.9 39.2C26.7 39.5 26.3 39.7 25.9 39.7H17.6C17.8 39.1 19.3 36.9 21.1 34.9C22.6 33.3 24 31.9 25.5 30.4ZM90.9 89.3C89.1 91.9 87.1 94.2 84.8 96.4C85 96.6 85.1 96.7 85.3 96.8C89.2 100.1 92.2 104.4 93.9 109.3C94.3 110.5 94.5 111.8 94.5 113C94.5 113.3 94.4 113.6 94.3 114C94 114.9 93.1 115.5 92.2 115.3C91.6 115.2 91 115 90.5 114.8C89.7 114.4 88.9 113.9 88.2 113.3C84.4 110.1 81.5 105.9 79.8 101.2C79.7 101.1 79.7 100.9 79.6 100.7C77.6 102.1 75.5 103.3 73.3 104.3C71.1 105.3 68.8 106.2 66.5 106.8C64.1 107.4 61.8 107.9 59.3 108.2C59.4 108.4 59.4 108.6 59.4 108.8C60.2 111.9 60.4 115.1 60.2 118.3C60.1 120.3 59.7 122.2 59.1 124.1C58.8 124.9 58.4 125.6 58 126.4C57.8 126.7 57.6 126.9 57.4 127.2C56.4 128.3 55.2 128.3 54.2 127.2C53.8 126.8 53.5 126.3 53.2 125.7C52.4 124.2 52 122.6 51.7 120.9C51.3 118.6 51.2 116.3 51.3 114C51.4 112.3 51.6 110.6 52 109C52 108.9 52.1 108.7 52.1 108.6C52.1 108.6 52.1 108.5 52 108.4C44.7 108 37.7 105.8 31.4 101.9L31.1 102.5C29.3 106.7 26.7 110.4 23.3 113.3C22.4 114.1 21.4 114.7 20.3 115.1C19.8 115.3 19.2 115.4 18.7 115.3C18.1 115.2 17.6 114.8 17.3 114.1C16.9 113.2 17 112.3 17.1 111.4C17.3 110.1 17.7 108.9 18.2 107.7C19.7 104 22.1 100.7 24.9 97.9C25 97.8 25.1 97.7 25.3 97.6C25.3 97.5 25.4 97.5 25.4 97.4C22.7 95 20.2 92.3 18.2 89.3C18.5 89.3 18.6 89.2 18.8 89.2H26.8C27.2 89.2 27.5 89.4 27.7 89.6C30.6 92.7 34 95.2 37.7 97.1C41.6 99.2 45.9 100.5 50.3 100.9C62.3 102.1 72.6 98.4 81.2 89.8C81.6 89.4 82.1 89.1 82.7 89.2H90.8L90.9 89.3ZM79.8 50.3C80.5 50.3 81.2 50.4 81.9 50.3C82.7 50.2 83.2 50.5 83.8 51C87 54 90.2 57 93.5 60L94 60.5C94.2 60.3 94.4 60.2 94.6 60C97.9 56.9 101.3 53.8 104.5 50.7C104.8 50.4 105.2 50.3 105.6 50.3H108.1V77.7C107.7 77.8 101.8 77.9 101.1 77.7V63.8L101 63.7C98.7 65.8 96.4 68 94.1 70.1C91.8 67.9 89.5 65.8 87.1 63.7L87 63.8V77.8H80C79.8 77.3 79.7 51.9 79.8 50.3ZM15.6 50.3H22.5C22.7 50.8 22.7 77.1 22.5 77.7H15.6C15.5 76 15.6 74.2 15.6 72.5V67.3H7V77.6C6.5 77.8 0.6 77.8 0 77.6V50.3H7V60C7.5 60.2 14.8 60.2 15.6 60V50.3ZM30.8 77.7V50.4C31.2 50.3 46.4 50.2 47.4 50.3V56.1C47.2 56.1 46.9 56.2 46.7 56.2H37.8V60.7H46.3V66.7H37.9C37.7 67.2 37.7 70.8 37.8 71.8C38 71.8 38.3 71.9 38.5 71.9H47.4V77.7H30.8ZM55.4 77.7C55.3 77 55.3 50.8 55.4 50.3H62.3V70.5C62.6 70.5 62.8 70.5 63.1 70.6H72V77.8L55.4 77.7Z" fill="#9C213B"/>
</svg>
