<svg width="122" height="118" viewBox="0 0 122 118" fill="none" xmlns="http://www.w3.org/2000/svg">
<path d="M53.2335 50.0398C53.6035 50.3098 54.0535 50.4698 54.5435 50.4698C55.7435 50.4698 56.7235 49.5198 56.7735 48.3398L56.8235 48.3098L57.5735 35.0498C56.6735 35.1598 55.7735 35.3098 54.8735 35.5098C49.9435 36.6298 45.6735 39.0598 42.3335 42.3398L53.2034 50.0498L53.2335 50.0398ZM51.7835 69.4698C51.6565 68.9078 51.3165 68.4178 50.8355 68.1028C50.3545 67.7878 49.7684 67.6718 49.2034 67.7798L49.1835 67.7498L36.1335 69.9598C38.0915 75.3818 41.7865 80.0048 46.6435 83.1098L51.7034 70.8898L51.6635 70.8398C51.8335 70.4198 51.8935 69.9498 51.7835 69.4698ZM47.4435 60.0598C47.8835 59.9398 48.2935 59.6798 48.6035 59.2998C49.3535 58.3598 49.2235 57.0098 48.3235 56.2298L48.3335 56.1798L38.4035 47.2998C35.3755 52.2298 34.0745 58.0278 34.7035 63.7798L47.4335 60.1098L47.4435 60.0598ZM57.0835 63.9598L60.7435 65.7198L64.4035 63.9698L65.3035 60.0198L62.7735 56.8598H58.7135L56.1735 60.0198L57.0835 63.9598ZM64.6835 48.2898C64.7035 48.7498 64.8635 49.1998 65.1735 49.5798C65.9235 50.5198 67.2735 50.6898 68.2335 49.9898L68.2735 50.0098L79.0735 42.3498C74.9935 38.3598 69.6735 35.7498 63.9235 35.0498L64.6735 48.2898H64.6835ZM72.2635 67.7198C72.0935 67.6898 71.9235 67.6698 71.7535 67.6798C71.4635 67.6898 71.1735 67.7698 70.9035 67.8998C70.3855 68.1488 69.9845 68.5888 69.7835 69.1278C69.5825 69.6658 69.5965 70.2618 69.8235 70.7898L69.8035 70.8098L74.9135 83.1498C79.8435 80.0098 83.5234 75.3198 85.4534 69.9098L72.2935 67.6798L72.2635 67.7198ZM62.7034 74.2598C62.5044 73.8948 62.2095 73.5928 61.8495 73.3858C61.4885 73.1798 61.0785 73.0768 60.6635 73.0898C59.8935 73.1198 59.1635 73.5498 58.7735 74.2698H58.7635L52.3435 85.8698C56.9405 87.4328 61.8815 87.6848 66.6135 86.5998C67.4935 86.3998 68.3535 86.1598 69.1835 85.8798L62.7535 74.2498H62.7034V74.2598Z" fill="#9C213B"/>
<path d="M121.294 71.7306L110.854 26.4006C110.582 25.2246 110.047 24.1256 109.29 23.1856C108.534 22.2446 107.574 21.4876 106.484 20.9706L64.2441 0.79062C63.0221 0.20962 61.6751 -0.0583784 60.3241 0.0106216C59.2491 0.0626216 58.1961 0.32862 57.2241 0.79062L14.9841 20.9706C13.8961 21.4906 12.9381 22.2486 12.1811 23.1886C11.4251 24.1276 10.8891 25.2256 10.6141 26.4006L0.204116 71.7406C-0.0378838 72.7846 -0.0648856 73.8676 0.124114 74.9236C0.313114 75.9786 0.715122 76.9846 1.30412 77.8806C1.44412 78.1006 1.60411 78.3106 1.76411 78.5206L31.0041 114.871C31.7651 115.814 32.7281 116.574 33.8211 117.095C34.9151 117.616 36.1121 117.884 37.3241 117.881L84.2141 117.871C86.6741 117.871 88.9941 116.761 90.5341 114.861L119.764 78.5006C120.512 77.5596 121.039 76.4626 121.304 75.2906C121.568 74.1176 121.565 72.9006 121.294 71.7306ZM105.224 71.1806C104.914 72.5306 103.464 73.3506 101.964 73.0306C101.954 73.0306 101.934 73.0306 101.924 73.0206C101.904 73.0206 101.894 73.0106 101.874 73.0006C101.664 72.9506 101.404 72.9106 101.224 72.8606C100.364 72.6306 99.7341 72.2806 98.9541 71.9806C97.2841 71.3806 95.8941 70.8806 94.5441 70.6806C93.8541 70.6306 93.5041 70.9506 93.1241 71.2006C92.9441 71.1606 92.3741 71.0606 92.0441 71.0106C89.6241 78.6206 84.4641 85.2206 77.4741 89.3406C77.5941 89.6306 77.8041 90.2506 77.8941 90.3606C77.7341 90.7906 77.4941 91.1906 77.7041 91.8506C78.1941 93.1206 78.9841 94.3706 79.9441 95.8606C80.4041 96.5506 80.8841 97.0806 81.3041 97.8806C81.4041 98.0706 81.5341 98.3606 81.6341 98.5606C82.2841 99.9506 81.8041 101.551 80.5541 102.151C79.2941 102.761 77.7341 102.121 77.0541 100.721C76.9541 100.521 76.8241 100.261 76.7441 100.071C76.3841 99.2506 76.2641 98.5506 76.0141 97.7506C75.4441 96.0706 74.9641 94.6806 74.2841 93.5006C73.8941 92.9306 73.4241 92.8606 72.9941 92.7206C72.9141 92.5806 72.6141 92.0306 72.4541 91.7506C71.0541 92.2806 69.6141 92.7206 68.1141 93.0606C61.5541 94.5506 54.9841 93.9506 49.1241 91.6906L48.5541 92.7306C48.1241 92.8406 47.7141 92.9606 47.4641 93.2606C46.5441 94.3606 46.1741 96.1206 45.5041 97.8006C45.2541 98.5906 45.1341 99.3006 44.7741 100.121C44.6941 100.311 44.5541 100.571 44.4641 100.761V100.771L44.4541 100.781C43.7841 102.171 42.2241 102.811 40.9641 102.211C39.7141 101.611 39.2441 100.011 39.8841 98.6206C39.9841 98.4206 40.1041 98.1306 40.2041 97.9406C40.6241 97.1506 41.0941 96.6106 41.5641 95.9206C42.5241 94.4206 43.3641 93.0806 43.8541 91.8106C43.9741 91.3906 43.7941 90.8106 43.6341 90.3806L44.0941 89.2806C37.3641 85.2906 32.0541 78.9406 29.5141 71.0706L28.4141 71.2606C28.1141 71.0906 27.5241 70.7006 26.9641 70.7506C25.6141 70.9506 24.2241 71.4506 22.5541 72.0506C21.7741 72.3506 21.1541 72.6906 20.2841 72.9206C20.1041 72.9706 19.8441 73.0206 19.6341 73.0706C19.6141 73.0706 19.6041 73.0806 19.5841 73.0906C19.5741 73.0906 19.5541 73.0906 19.5441 73.1006C18.0441 73.4206 16.5941 72.6006 16.2841 71.2506C15.9741 69.9006 16.9341 68.5306 18.4241 68.1706C18.4341 68.1706 18.4541 68.1606 18.4641 68.1606C18.4741 68.1606 18.4741 68.1606 18.4841 68.1506C18.6941 68.1006 18.9641 68.0306 19.1641 67.9906C20.0441 67.8206 20.7641 67.8606 21.5941 67.8006C23.3641 67.6106 24.8241 67.4606 26.1241 67.0506C26.5341 66.8806 26.9341 66.3106 27.2141 65.9506L28.2741 65.6406C27.0841 57.4206 29.0941 49.3606 33.4341 42.8306L32.6241 42.1106C32.5741 41.7906 32.5041 41.0706 32.1141 40.6506C31.1241 39.7206 29.8641 38.9406 28.3541 38.0106C27.6341 37.5906 26.9741 37.3206 26.2541 36.7806C26.1041 36.6706 25.8941 36.4906 25.7341 36.3606C25.7241 36.3506 25.7041 36.3406 25.6941 36.3306C24.4841 35.3606 24.2041 33.6906 25.0741 32.6006C25.5641 31.9906 26.3141 31.6806 27.0841 31.7106C27.6841 31.7306 28.3141 31.9506 28.8441 32.3706C29.0141 32.5106 29.2541 32.6906 29.4041 32.8206C30.0841 33.4006 30.4941 33.9806 31.0641 34.5906C32.3141 35.8606 33.3441 36.9106 34.4741 37.6706C35.0641 38.0206 35.5241 37.8806 35.9741 37.8206C36.1241 37.9306 36.6041 38.2806 36.8841 38.4706C41.1841 33.9006 46.8441 30.5206 53.4041 29.0306C54.9341 28.6806 56.4541 28.4506 57.9741 28.3306L58.0341 27.2606C58.3741 26.9306 58.7441 26.4706 58.8541 25.9506C58.9641 24.5906 58.7841 23.1306 58.5741 21.3606C58.4541 20.5406 58.2641 19.8506 58.2241 18.9606C58.2141 18.7806 58.2241 18.5206 58.2341 18.3106C58.2341 18.2906 58.2241 18.2606 58.2241 18.2406C58.2241 16.6906 59.3541 15.4306 60.7541 15.4306C62.1541 15.4306 63.2841 16.6906 63.2841 18.2406C63.2841 18.4606 63.2941 18.7606 63.2941 18.9606C63.2641 19.8506 63.0641 20.5406 62.9441 21.3606C62.7341 23.1206 62.5441 24.5906 62.6541 25.9506C62.7541 26.6306 63.1541 26.9006 63.4841 27.2106C63.4941 27.3906 63.5241 28.0006 63.5441 28.3406C71.5841 29.0506 79.0441 32.7306 84.5341 38.4806L85.4941 37.7906C85.8241 37.8106 86.5341 37.9106 87.0241 37.6206C88.1541 36.8606 89.1841 35.8006 90.4341 34.5406C91.0041 33.9306 91.4241 33.3606 92.1041 32.7706C92.2541 32.6406 92.4941 32.4606 92.6641 32.3206C93.8741 31.3506 95.5641 31.4606 96.4341 32.5506C97.3041 33.6406 97.0241 35.3106 95.8141 36.2806C95.6441 36.4206 95.4241 36.6106 95.2541 36.7306C94.5341 37.2606 93.8741 37.5306 93.1541 37.9606C91.6441 38.8906 90.3841 39.6706 89.3941 40.6006C88.9241 41.1006 88.9641 41.5806 88.9141 42.0306C88.7741 42.1606 88.2841 42.6006 88.0141 42.8306C90.2511 46.1596 91.8581 49.8706 92.7541 53.7806C93.6741 57.7706 93.8141 61.7506 93.2841 65.5806L94.3041 65.8806C94.4841 66.1406 94.8641 66.7706 95.3941 66.9806C96.6941 67.3906 98.1541 67.5406 99.9241 67.7306C100.754 67.8006 101.474 67.7606 102.354 67.9206C102.564 67.9606 102.874 68.0406 103.084 68.0906C104.584 68.4606 105.534 69.8306 105.224 71.1806Z" fill="#9C213B"/>
<path d="M83.024 47.2998L73.144 56.1398L73.154 56.1698C72.814 56.4698 72.554 56.8698 72.444 57.3498C72.174 58.5198 72.884 59.6798 74.024 59.9998L74.034 60.0498L86.824 63.7298C87.094 60.9698 86.934 58.1098 86.274 55.2498C85.614 52.3598 84.504 49.6898 83.024 47.2998Z" fill="#9C213B"/>
</svg>
