<svg width="140" height="131" viewBox="0 0 140 131" fill="none" xmlns="http://www.w3.org/2000/svg">
<path fill-rule="evenodd" clip-rule="evenodd" d="M21.7562 39.57L14.9492 69.3931H21.9542L27.6642 44.3743C26.5842 43.2783 25.4772 42.2267 24.3342 41.2492C24.0222 40.9831 23.7652 40.6582 23.5782 40.2931C22.9892 40.0669 22.3772 39.8245 21.7562 39.57ZM64.4732 12.6135L29.4323 29.4883C29.8793 30.1139 30.3062 30.734 30.7092 31.3296C31.1062 31.4294 31.4812 31.6065 31.8102 31.8508C32.9372 32.6838 34.1192 33.4715 35.3362 34.2264L64.5192 20.1731C64.6832 18.7642 64.8002 17.362 64.8492 15.9747C64.8632 15.5649 64.9583 15.1619 65.1273 14.7884C64.9083 14.0937 64.6862 13.3627 64.4732 12.6135ZM111.837 29.2739L77.2362 12.6113C77.0222 13.3612 76.8002 14.0931 76.5812 14.7884C76.7512 15.1619 76.8453 15.5649 76.8593 15.9747C76.9083 17.3614 77.0262 18.763 77.1902 20.1716L105.978 34.0345C107.198 33.2633 108.384 32.4591 109.512 31.6095C109.839 31.3625 110.212 31.1822 110.609 31.0787C110.996 30.4945 111.408 29.887 111.837 29.2739ZM126.763 69.3931L119.86 39.1456C119.164 39.4414 118.476 39.7204 117.817 39.9801C117.633 40.3465 117.38 40.6734 117.07 40.9424C115.998 41.8756 114.958 42.8746 113.944 43.9147L119.76 69.3931H126.763Z" fill="#CD4A77"/>
<path fill-rule="evenodd" clip-rule="evenodd" d="M87.7879 50.9807L88.6189 52.0068C89.0049 48.7262 91.726 45.5784 96.891 42.7563C102.276 39.8149 107.304 37.2051 111.403 34.1192L111.946 34.7895C115.15 29.7859 117.638 26.6363 119.411 25.3406C121.793 23.8907 123.995 24.3128 125.707 26.2227C127.22 28.2942 127.175 30.5354 125.261 32.5645C123.625 34.0293 120.027 35.8082 114.466 37.9012L115.009 38.5717C111.139 41.9407 107.54 46.3158 103.543 50.971C99.71 55.4369 96.0639 57.4439 92.7749 57.1397L93.6059 58.166L90.3739 60.7835L87.517 53.8864L85.3219 52.9773L87.7879 50.9807ZM47.9499 58.2665L48.772 57.2336C45.486 57.5668 41.823 55.5917 37.951 51.1594C33.914 46.539 30.2769 42.1953 26.3769 38.861L26.9139 38.1853C21.3359 36.1408 17.7219 34.3934 16.0729 32.9431C14.1419 30.9309 14.0779 28.69 15.5719 26.6054C17.2669 24.6806 19.464 24.2393 21.86 25.668C23.644 26.9488 26.1589 30.0768 29.4059 35.052L29.944 34.3764C34.07 37.4261 39.1209 39.9925 44.5299 42.8869C49.7209 45.663 52.4689 48.7877 52.8829 52.0647L53.7059 51.0311L56.191 53.0079L54.069 53.8863L51.188 60.8429L47.9499 58.2665ZM66.233 45.0494H67.5539C65.2469 42.685 64.5129 38.5888 65.5699 32.799C66.6729 26.7633 67.8089 21.2133 67.9909 16.0856H68.8539C66.9809 10.4468 66.0989 6.53089 66.2079 4.3379C66.5809 1.5742 68.294 0.12815 70.855 0C73.417 0.12815 75.1309 1.5742 75.5039 4.3379C75.6119 6.53088 74.7289 10.4468 72.8569 16.0856H73.7209C73.9029 21.2133 75.039 26.7633 76.141 32.799C77.199 38.5887 76.4639 42.685 74.1579 45.0494H75.4779V48.9008L70.7929 46.9603L66.233 48.8487V45.0494Z" fill="#9C213B"/>
<path fill-rule="evenodd" clip-rule="evenodd" d="M70.7919 49.7793L78.1559 52.8303L85.5219 55.8797L88.5718 63.2463L91.1188 69.3926H77.7769L77.1849 67.9626L76.0879 65.3139L73.4399 64.2175L70.7919 63.1207L68.1439 64.2175L65.4949 65.3139L64.3989 67.9626L63.8069 69.3926H50.4648L53.0118 63.2463L56.0619 55.8797L63.4279 52.8303L70.7919 49.7793Z" fill="#CD4A77"/>
<path fill-rule="evenodd" clip-rule="evenodd" d="M16.5388 95.5155C16.5388 95.8596 16.4718 96.2005 16.3408 96.5185C16.2088 96.8366 16.0168 97.1257 15.7728 97.3692C15.5298 97.6127 15.2408 97.8059 14.9238 97.9377C14.6058 98.0695 14.2647 98.1374 13.9207 98.1374C13.5767 98.1374 13.2357 98.0695 12.9177 97.9377C12.5997 97.8059 12.3108 97.6127 12.0678 97.3692C11.8248 97.1257 11.6317 96.8366 11.5007 96.5185C11.3697 96.2005 11.3017 95.8596 11.3027 95.5155V77.0027C11.3027 76.3084 11.5788 75.6426 12.0698 75.1516C12.5608 74.6607 13.2267 74.3848 13.9207 74.3848H126.762C127.457 74.3848 128.122 74.6606 128.613 75.1516C129.104 75.6426 129.38 76.3084 129.38 77.0027V95.5155C129.38 95.8596 129.314 96.2005 129.182 96.5185C129.051 96.8366 128.858 97.1257 128.615 97.3692C128.372 97.6127 128.083 97.8059 127.765 97.9377C127.447 98.0695 127.106 98.1374 126.762 98.1374C126.418 98.1374 126.077 98.0695 125.76 97.9377C125.442 97.8059 125.153 97.6127 124.91 97.3692C124.667 97.1257 124.474 96.8366 124.342 96.5185C124.211 96.2005 124.144 95.8596 124.144 95.5155V79.621H72.9588V95.5155C72.9598 95.8596 72.8918 96.2005 72.7608 96.5185C72.6298 96.8366 72.4367 97.1257 72.1937 97.3692C71.9507 97.6127 71.6618 97.8059 71.3438 97.9377C71.0258 98.0695 70.6848 98.1374 70.3408 98.1374C69.9968 98.1374 69.6558 98.0695 69.3378 97.9377C69.0208 97.8059 68.7318 97.6127 68.4888 97.3692C68.2448 97.1257 68.0527 96.8366 67.9207 96.5185C67.7897 96.2005 67.7227 95.8596 67.7227 95.5155V79.621H16.5388V95.5155Z" fill="#9C213B"/>
<path fill-rule="evenodd" clip-rule="evenodd" d="M67.5537 123.001C67.5857 123.045 67.6277 123.081 67.6767 123.106C67.7257 123.131 67.7796 123.144 67.8346 123.144H70.3417H72.8487C72.9007 123.144 72.9527 123.132 72.9997 123.11C73.0467 123.087 73.0877 123.054 73.1197 123.013L74.6827 121.053L76.2456 119.093C76.2776 119.052 76.3007 119.005 76.3127 118.954C76.3237 118.904 76.3237 118.852 76.3127 118.801L75.1977 113.916C75.1877 113.865 75.1646 113.816 75.1316 113.775C75.0996 113.733 75.0577 113.7 75.0097 113.677L70.4927 111.502C70.4457 111.479 70.3937 111.467 70.3417 111.467C70.2897 111.467 70.2377 111.479 70.1907 111.502L65.6737 113.677C65.6267 113.7 65.5857 113.733 65.5527 113.774C65.5207 113.814 65.4977 113.862 65.4867 113.913L64.3736 118.789C64.3596 118.841 64.3576 118.896 64.3736 118.948C64.3846 119.001 64.4077 119.051 64.4417 119.093L67.5537 123.001ZM64.0107 130.24C64.0837 130.341 64.1797 130.423 64.2907 130.479C64.4017 130.536 64.5247 130.565 64.6487 130.565H70.3426L76.0357 130.564C76.1537 130.564 76.2707 130.538 76.3777 130.486C76.4847 130.435 76.5777 130.36 76.6517 130.267L80.2016 125.816L83.7507 121.364C83.8237 121.272 83.8747 121.164 83.9007 121.05C83.9277 120.935 83.9277 120.816 83.9007 120.701L81.3686 109.609C81.3436 109.491 81.2927 109.381 81.2187 109.287C81.1447 109.192 81.0497 109.116 80.9407 109.065L70.6817 104.124C70.5757 104.073 70.4586 104.046 70.3396 104.046C70.2216 104.046 70.1047 104.073 69.9977 104.124L59.7397 109.065C59.6327 109.116 59.5387 109.191 59.4657 109.284C59.3917 109.377 59.3396 109.485 59.3136 109.6L56.7857 120.673C56.7547 120.791 56.7517 120.916 56.7757 121.036C56.8007 121.156 56.8536 121.269 56.9306 121.365L64.0107 130.24Z" fill="#CD4A77"/>
<path fill-rule="evenodd" clip-rule="evenodd" d="M10.7921 123.001C10.8241 123.045 10.8661 123.082 10.9151 123.107C10.9641 123.132 11.018 123.145 11.073 123.144H13.5801H16.0871C16.1391 123.144 16.1911 123.132 16.2381 123.11C16.2851 123.087 16.3261 123.054 16.3581 123.013L17.922 121.053L19.484 119.093C19.516 119.052 19.5391 119.005 19.5501 118.954C19.5621 118.904 19.5621 118.852 19.5511 118.801L18.4361 113.916C18.4251 113.865 18.403 113.816 18.37 113.775C18.337 113.733 18.2961 113.7 18.2481 113.677L13.7301 111.502C13.6831 111.479 13.6321 111.467 13.5801 111.467C13.5271 111.467 13.476 111.479 13.429 111.502L8.91208 113.677C8.86508 113.7 8.82405 113.733 8.79105 113.773C8.75905 113.814 8.73603 113.862 8.72403 113.913L7.61203 118.789C7.59803 118.841 7.59603 118.896 7.61203 118.948C7.62303 119.001 7.64706 119.051 7.68106 119.093L10.7921 123.001ZM7.24906 130.24C7.32206 130.341 7.41809 130.423 7.52909 130.479C7.64009 130.536 7.76306 130.565 7.88706 130.565H13.5801L19.2741 130.564C19.3921 130.564 19.5091 130.538 19.6161 130.486C19.7221 130.435 19.816 130.36 19.89 130.267L23.4391 125.816L26.9881 121.364C27.0611 121.272 27.1131 121.165 27.1391 121.05C27.1661 120.935 27.166 120.816 27.14 120.701L24.609 109.609C24.584 109.491 24.5331 109.381 24.4591 109.287C24.3851 109.192 24.2901 109.116 24.1811 109.065L13.922 104.124C13.816 104.073 13.6991 104.046 13.5801 104.046C13.4621 104.046 13.3451 104.073 13.2381 104.124L2.97904 109.065C2.87204 109.116 2.77905 109.191 2.70505 109.284C2.63205 109.377 2.58005 109.485 2.55405 109.6L0.0270721 120.673C-0.00492787 120.791 -0.00893763 120.916 0.0170624 121.036C0.0420624 121.156 0.0950306 121.269 0.172031 121.365L7.24906 130.24Z" fill="#CD4A77"/>
<path fill-rule="evenodd" clip-rule="evenodd" d="M123.632 123.001C123.664 123.045 123.706 123.082 123.755 123.107C123.804 123.132 123.858 123.145 123.913 123.144H126.42H128.927C128.979 123.144 129.03 123.132 129.077 123.11C129.124 123.087 129.166 123.054 129.198 123.013L130.761 121.053L132.324 119.093C132.356 119.052 132.379 119.005 132.39 118.955C132.402 118.904 132.402 118.852 132.391 118.801L131.276 113.916C131.265 113.865 131.243 113.816 131.21 113.775C131.177 113.733 131.135 113.7 131.088 113.677L126.57 111.502C126.523 111.479 126.472 111.467 126.42 111.467C126.367 111.467 126.316 111.479 126.269 111.502L121.752 113.677C121.705 113.7 121.664 113.733 121.631 113.774C121.599 113.814 121.576 113.862 121.564 113.913L120.451 118.789C120.437 118.841 120.436 118.896 120.451 118.948C120.462 119.001 120.486 119.051 120.519 119.093L123.632 123.001ZM120.089 130.24C120.162 130.341 120.258 130.423 120.369 130.479C120.48 130.536 120.603 130.565 120.727 130.565H126.42L132.113 130.564C132.232 130.564 132.349 130.538 132.456 130.486C132.562 130.435 132.656 130.36 132.73 130.267L136.279 125.816L139.828 121.364C139.901 121.272 139.953 121.165 139.979 121.05C140.005 120.935 140.005 120.816 139.98 120.701L137.449 109.609C137.424 109.491 137.373 109.381 137.299 109.287C137.224 109.192 137.129 109.116 137.021 109.065L126.762 104.124C126.655 104.073 126.538 104.046 126.42 104.046C126.301 104.046 126.184 104.073 126.078 104.124L115.819 109.065C115.712 109.116 115.619 109.191 115.545 109.284C115.471 109.377 115.42 109.485 115.393 109.6L112.866 120.673C112.835 120.791 112.831 120.916 112.856 121.036C112.881 121.156 112.934 121.269 113.01 121.365L120.089 130.24Z" fill="#CD4A77"/>
</svg>
