<svg width="123" height="122" viewBox="0 0 123 122" fill="none" xmlns="http://www.w3.org/2000/svg">
<path d="M61.152 1.3599e-06C94.629 0.00700136 122.109 27.296 122.066 60.5C122.023 94.203 94.656 121.117 60.453 121.093C27.012 121.07 -0.023984 93.75 1.59663e-05 60.007C0.022016 27.011 27.558 -0.00699864 61.152 1.3599e-06ZM42.648 21.25C43.414 25.027 42.672 28.55 41.535 32.015C40.75 34.414 39.664 36.726 39.015 39.16C37.945 43.168 36.735 47.199 36.289 51.296C35.649 57.191 37.965 62.382 41.929 67.546L23.707 63.711C23.738 64.285 23.707 64.503 23.769 64.687C25.496 69.761 28.535 74.035 31.941 78.066C32.301 78.492 33.121 78.71 33.731 78.71C51.898 78.746 70.066 78.742 88.234 78.718C88.797 78.718 89.551 78.613 89.894 78.25C93.789 74.156 96.765 69.492 98.629 63.62L79.339 67.398C80.613 64.902 82.062 62.71 82.899 60.3C85.754 52.058 84.57 44.09 80.472 36.574C77.183 30.543 74.148 24.539 75.789 17.269C72.316 20.703 70.98 25.069 70.133 29.569C69.301 34.003 68.808 38.499 68.163 42.999C68.07 42.863 67.953 42.761 67.933 42.644C67.852 42.1734 67.795 41.6987 67.765 41.222C67.371 33.855 65.933 26.757 62.895 19.976C61.109 15.988 59.137 11.906 60.98 7.144C59.734 7.80399 58.605 8.45699 57.797 9.38999C55.387 12.175 54.39 15.52 54.133 19.183C53.913 22.313 53.613 25.457 53.031 28.535C52.421 31.769 51.457 34.937 49.281 37.91C48.406 31.562 48.308 25.28 42.648 21.25ZM89.492 84.273H32.508V94.171H89.492V84.273ZM43.808 99.289C43.762 107.531 52.156 113.671 62.531 113.226C71.133 112.855 78.742 106.089 78.09 99.289H43.808Z" fill="#CD4A77"/>
</svg>
