<svg width="1464" height="354" viewBox="0 0 1464 354" fill="none" xmlns="http://www.w3.org/2000/svg">
<path d="M205.185 0.00178231C195.163 -0.0435288 185.188 0.771541 176.836 2.85585C166.555 5.42852 156.859 9.14151 147.746 13.9948C118.347 29.6725 96.5448 59.6387 89.7255 92.2023C89.6608 92.5151 89.3794 92.7384 89.0529 92.7377C67.8322 92.6471 46.5056 100.697 30.911 114.827C22.8809 122.107 16.165 130.753 10.7629 140.767C0.432019 159.934 -2.27178 182.62 1.83643 203.931C5.29013 221.87 13.469 237.286 26.3726 250.179C35.9382 259.735 47.8371 266.925 62.0698 271.748C68.7683 274.021 77.1129 274.949 84.3551 275.122C84.6841 275.125 84.9547 275.379 84.9746 275.703C85.405 281.375 89.7105 283.935 94.1887 286.654C116.361 300.121 151.531 321.902 199.702 351.993C203.176 354.163 206.837 354.047 210.683 351.645C221.875 344.647 252.379 325.615 302.196 294.546C309.552 289.96 315.063 286.282 318.728 283.513C321.59 281.354 322.36 279.102 323.327 275.892C323.446 275.503 323.784 275.224 324.187 275.183C353.563 272.223 379.542 253.638 394.012 228.204C400.325 217.117 404.856 203.689 406.472 191.372C410.898 157.796 396.873 124.018 370.827 102.458C354.943 89.3024 336.625 82.0187 315.872 80.609C315.393 80.5775 314.981 80.2589 314.831 79.8022C300.165 36.4092 262.692 5.17404 216.822 0.537197C213.545 0.204915 209.665 0.02693 205.185 0.00178231ZM206.511 22.855C220.432 23.1963 234.251 26.6318 247.165 33.2521C263.734 41.7404 277.388 55.968 286.609 72.2724C290.073 78.4046 292.563 84.6217 294.078 90.9249C295.06 95.018 295.885 97.5105 296.555 98.4016C300.474 103.62 303.525 103.567 310.692 103.635C328.545 103.801 344.323 109.88 358.027 121.873C363.726 126.867 368.509 132.529 372.375 138.857C373.01 139.899 374.453 142.639 376.703 147.074C382.737 158.946 384.995 172.086 383.87 185.415C381.34 215.516 360.949 241.562 331.867 250.201C329.284 250.972 326.604 251.524 323.825 251.856C323.635 251.874 323.47 251.729 323.477 251.546C323.498 209.226 323.505 175.04 323.499 148.992C323.499 144.612 323.319 139.454 320.185 135.904C318.911 134.464 317.253 133.109 315.209 131.841C278.411 108.969 245.172 88.2165 215.493 69.5836C211.853 67.2928 209.055 65.9666 207.096 65.6041C203.053 64.8489 199.026 65.7276 195.013 68.2399C158.08 91.3586 126.268 111.263 99.5797 127.953C95.6377 130.415 91.8094 132.755 88.547 135.798C85.0958 139.015 85.0277 146.348 85.0277 151.635C85.0277 216.264 85.023 249.476 85.0129 251.274C85.0133 251.508 84.8162 251.695 84.5822 251.682C61.1111 250.444 40.9782 238.337 30.5113 217.351C23.4579 203.214 20.9427 186.14 24.5524 170.749C27.2031 159.421 32.1125 147.602 39.5662 138.819C51.4905 124.757 70.8376 115.106 89.6266 115.582C91.2125 115.622 94.5432 115.809 99.6181 116.141C103.885 116.42 108.083 113.385 109.956 109.458C110.495 108.325 110.991 106.185 111.444 103.039C112.169 98.0144 112.79 94.6207 113.309 92.8586C121.895 63.8293 143.131 38.4557 172.153 28.3286C181.436 25.0889 190.985 23.2687 200.54 22.8978C202.531 22.8205 204.522 22.8062 206.511 22.855ZM204.496 89.2774C205.116 89.2448 205.718 89.3619 206.158 89.6373L292.441 143.578C293.322 144.129 293.215 145.081 292.199 145.725L206.143 200.195C205.127 200.839 203.588 200.927 202.713 200.368L116.689 145.433C115.814 144.873 115.91 143.923 116.931 143.286L202.727 89.8099C203.238 89.4917 203.876 89.31 204.496 89.2774ZM300.844 166.134C300.958 166.064 301.106 166.145 301.109 166.278L301.025 205.192L300.904 230.982C300.965 231.023 301.028 231.068 301.093 231.118C301.121 231.138 301.139 231.168 301.139 231.201V267.986C301.139 268.513 300.869 269.002 300.422 269.284L216.181 322.662C216.062 322.731 215.914 322.647 215.909 322.51L215.781 284.94L215.66 259.03L215.464 259.014C215.451 259.014 215.44 259.005 215.44 258.992V221.09C215.44 220.564 215.712 220.075 216.158 219.798L300.844 166.134ZM108.251 166.284C109.049 166.252 110.231 166.624 110.863 167.031L194.093 220.562C195.105 221.212 194.337 221.669 194.335 222.708L194.136 320.926C193.097 320.926 191.725 321.39 190.705 320.754L107.843 269.069C106.822 268.432 107.604 267.962 107.602 266.923L107.432 166.856C107.432 166.467 107.772 166.303 108.251 166.284Z" fill="#1a1a1a"/>
<path class="flag-stripe-side" d="M301.026 205.193L215.66 259.03C215.595 259.025 215.53 259.02 215.464 259.015C215.458 259.015 215.452 259.012 215.448 259.008C215.444 259.004 215.441 258.998 215.441 258.992V221.089C215.441 220.831 215.507 220.576 215.632 220.35C215.758 220.124 215.939 219.934 216.159 219.798L300.845 166.134C300.871 166.119 300.901 166.11 300.931 166.109C300.962 166.108 300.992 166.115 301.019 166.13C301.046 166.144 301.068 166.166 301.084 166.192C301.1 166.218 301.109 166.247 301.11 166.278L301.026 205.193Z" fill="#1a1a1a"/>
<path class="flag-stripe-center" d="M301.026 205.192L300.905 230.982L215.781 284.94L215.66 259.03L301.026 205.192Z" fill="white"/>
<path class="flag-stripe-side" d="M215.781 284.94L300.906 230.982C300.966 231.022 301.029 231.068 301.094 231.118C301.108 231.128 301.12 231.14 301.128 231.155C301.136 231.169 301.14 231.185 301.14 231.201V267.986C301.14 268.245 301.074 268.5 300.949 268.727C300.823 268.954 300.642 269.146 300.422 269.285L216.182 322.661C216.154 322.677 216.124 322.685 216.092 322.686C216.061 322.686 216.03 322.678 216.003 322.663C215.975 322.648 215.952 322.626 215.936 322.599C215.92 322.572 215.911 322.542 215.91 322.51L215.781 284.94Z" fill="#1a1a1a"/>
<path d="M520.925 73.2192C520.908 73.2107 519.472 72.0436 516.618 69.7179C502.945 58.5492 482.256 62.4979 473.401 77.7046C468.685 85.7936 468.123 97.1666 471.42 105.601C474.908 114.571 482.819 121.319 492.684 122.916C503.75 124.722 513.151 121.502 520.886 113.255C521.031 113.102 521.204 112.98 521.397 112.896C521.589 112.812 521.797 112.767 522.008 112.765C522.219 112.763 522.428 112.802 522.624 112.882C522.82 112.962 522.998 113.08 523.148 113.23L535.301 125.369C535.462 125.529 535.554 125.746 535.556 125.971C535.558 126.196 535.471 126.412 535.314 126.571C526.65 135.58 516.81 140.947 504.249 142.11C473.183 144.998 447.281 123.619 448.584 91.5951C449.479 69.4495 463.51 51.8404 484.774 46.2177C502.242 41.5918 522.765 45.3871 535.429 59.3798C535.546 59.5105 535.609 59.681 535.605 59.855C535.6 60.0291 535.528 60.1932 535.403 60.3126L522.458 73.0147C522.258 73.2081 522.001 73.3323 521.725 73.3691C521.449 73.4059 521.169 73.3534 520.925 73.2192Z" fill="#1a1a1a"/>
<path d="M714.528 89.6159C715.002 96.0744 714.167 102.566 712.07 108.719C709.973 114.872 706.656 120.566 702.307 125.477C697.959 130.388 692.664 134.419 686.726 137.34C680.787 140.261 674.321 142.015 667.697 142.501C661.073 142.988 654.42 142.197 648.118 140.175C641.817 138.153 635.99 134.939 630.971 130.716C625.951 126.493 621.838 121.344 618.865 115.563C615.891 109.782 614.117 103.483 613.643 97.0245C613.169 90.566 614.004 84.0749 616.1 77.9219C618.197 71.7688 621.515 66.0742 625.863 61.1634C630.212 56.2525 635.507 52.2216 641.445 49.3006C647.383 46.3796 653.849 44.6258 660.474 44.1393C667.098 43.6529 673.751 44.4432 680.052 46.4654C686.354 48.4875 692.18 51.7018 697.2 55.9247C702.219 60.1476 706.333 65.2964 709.306 71.0771C712.279 76.8579 714.053 83.1573 714.528 89.6159ZM663.768 63.1646C659.895 63.2119 656.07 64.0384 652.51 65.5969C648.951 67.1555 645.727 69.4155 643.023 72.248C640.318 75.0805 638.187 78.4299 636.749 82.1051C635.312 85.7804 634.597 89.7094 634.645 93.6678C634.743 101.662 637.944 109.291 643.543 114.876C649.143 120.462 656.683 123.546 664.505 123.45C668.378 123.403 672.203 122.576 675.762 121.018C679.322 119.459 682.546 117.199 685.25 114.367C687.955 111.534 690.086 108.185 691.524 104.51C692.961 100.834 693.676 96.9055 693.628 92.9471C693.53 84.9527 690.329 77.3237 684.729 71.7384C679.13 66.1531 671.59 63.069 663.768 63.1646Z" fill="#1a1a1a"/>
<path d="M1033.05 109.421C1033.1 109.488 1033.17 109.538 1033.25 109.564C1033.32 109.59 1033.41 109.59 1033.49 109.564C1033.57 109.539 1033.64 109.489 1033.69 109.422C1033.74 109.355 1033.76 109.274 1033.76 109.191V46.2558C1033.76 46.0524 1033.84 45.8574 1033.99 45.7136C1034.13 45.5698 1034.33 45.4891 1034.53 45.4891H1052.78C1053.05 45.4891 1053.32 45.5981 1053.51 45.7922C1053.7 45.9863 1053.81 46.2496 1053.81 46.5241V139.157C1053.81 139.323 1053.75 139.481 1053.64 139.6C1053.53 139.72 1053.37 139.79 1053.21 139.796C1045.99 140.18 1039.19 140.18 1032.82 139.796C1030.61 139.656 1029.37 137.624 1028.13 135.848C1026.33 133.301 1013 114.707 988.13 80.0684C988.1 80.029 988.058 80 988.01 79.9853C987.962 79.9706 987.911 79.9709 987.864 79.9863C987.816 80.0016 987.775 80.0312 987.745 80.0711C987.715 80.1109 987.698 80.1591 987.696 80.209V139.17C987.696 139.428 987.594 139.675 987.412 139.857C987.229 140.039 986.982 140.141 986.725 140.141H968.822C968.486 140.141 968.164 140.008 967.927 139.771C967.69 139.534 967.557 139.212 967.557 138.876V46.5752C967.557 46.277 967.675 45.9909 967.886 45.7801C968.097 45.5692 968.383 45.4507 968.681 45.4507H985.076C985.71 45.4508 986.333 45.6004 986.895 45.887C987.457 46.1736 987.942 46.5891 988.309 47.0992L1033.05 109.421Z" fill="#1a1a1a"/>
<path d="M1115.96 45.2593C1118.92 45.2678 1122.07 45.3061 1125.41 45.3742C1125.99 45.3855 1126.55 45.5689 1127.03 45.9009C1127.5 46.233 1127.87 46.699 1128.08 47.24L1164.35 139.273C1164.38 139.362 1164.4 139.459 1164.39 139.555C1164.38 139.65 1164.34 139.742 1164.29 139.821C1164.23 139.901 1164.16 139.966 1164.08 140.01C1163.99 140.055 1163.9 140.078 1163.8 140.078H1144.81C1144.28 140.077 1143.76 139.912 1143.32 139.606C1142.89 139.299 1142.56 138.866 1142.38 138.365L1136.54 122.162C1136.43 121.867 1136.25 121.608 1136 121.416C1135.75 121.224 1135.46 121.106 1135.15 121.076C1133.79 120.939 1127.37 120.867 1115.89 120.858C1104.42 120.85 1098 120.914 1096.63 121.05C1096.33 121.079 1096.03 121.195 1095.78 121.385C1095.54 121.575 1095.35 121.831 1095.24 122.124L1089.38 138.327C1089.19 138.825 1088.86 139.256 1088.43 139.56C1088 139.864 1087.48 140.027 1086.95 140.027L1067.96 140.001C1067.86 140.002 1067.77 139.978 1067.68 139.934C1067.6 139.889 1067.52 139.824 1067.47 139.745C1067.42 139.665 1067.38 139.574 1067.37 139.478C1067.36 139.382 1067.37 139.285 1067.41 139.196L1103.82 47.2272C1104.03 46.6862 1104.39 46.2202 1104.87 45.8882C1105.35 45.5561 1105.91 45.3728 1106.49 45.3615C1109.83 45.2934 1112.98 45.2593 1115.96 45.2593ZM1102.87 102.278C1102.84 102.347 1102.83 102.421 1102.84 102.494C1102.85 102.567 1102.87 102.637 1102.92 102.698C1102.96 102.758 1103.01 102.808 1103.08 102.842C1103.15 102.875 1103.22 102.893 1103.29 102.891L1128.63 103.019C1128.7 103.02 1128.77 103.002 1128.84 102.969C1128.9 102.936 1128.96 102.888 1129 102.829C1129.04 102.77 1129.07 102.702 1129.08 102.631C1129.09 102.559 1129.08 102.486 1129.05 102.419L1116.56 68.3505C1116.52 68.2675 1116.47 68.1963 1116.39 68.1462C1116.32 68.096 1116.23 68.0693 1116.14 68.0693C1116.05 68.0693 1115.96 68.096 1115.89 68.1462C1115.82 68.1963 1115.76 68.2675 1115.73 68.3505L1102.87 102.278Z" fill="#1a1a1a"/>
<path d="M768.704 123.273C777.176 123.247 783.821 119.848 786.837 113.127C788.396 109.651 789.099 103.283 788.945 94.0224C788.724 81.2521 788.651 65.398 788.728 46.4599C788.728 46.2463 788.814 46.0415 788.968 45.8906C789.121 45.7396 789.329 45.6548 789.546 45.6548H808.331C808.544 45.6548 808.749 45.7396 808.9 45.8906C809.051 46.0415 809.136 46.2463 809.136 46.4599C809.059 54.1782 809.106 68.073 809.276 88.1442C809.404 103.07 808.919 112.526 807.82 116.513C802.9 134.314 787.616 142.326 768.755 142.364C749.894 142.416 734.572 134.48 729.563 116.705C728.447 112.718 727.918 103.261 727.978 88.3358C728.046 68.2646 728.025 54.3699 727.914 46.6515C727.914 46.438 727.999 46.2333 728.15 46.0823C728.301 45.9313 728.506 45.8464 728.719 45.8464L747.504 45.757C747.611 45.757 747.718 45.7778 747.817 45.8183C747.916 45.8587 748.006 45.918 748.082 45.9927C748.158 46.0675 748.218 46.1563 748.26 46.2539C748.301 46.3516 748.322 46.4564 748.322 46.5621C748.492 65.5002 748.496 81.3544 748.335 94.1246C748.224 103.385 748.956 109.749 750.532 113.216C753.574 119.925 760.244 123.286 768.704 123.273Z" fill="#1a1a1a"/>
<path d="M828.828 46.5627C828.828 46.417 828.886 46.2772 828.989 46.1741C829.092 46.0711 829.232 46.0132 829.378 46.0132L867.906 45.9493C880.233 45.9283 892.065 50.662 900.797 59.1093C909.53 67.5566 914.448 79.0258 914.471 90.9944V94.7258C914.483 100.654 913.291 106.526 910.965 112.007C908.639 117.489 905.223 122.471 900.913 126.671C896.603 130.87 891.483 134.205 885.846 136.483C880.209 138.761 874.165 139.94 868.059 139.95L829.531 140.014C829.385 140.014 829.245 139.956 829.142 139.853C829.039 139.75 828.981 139.61 828.981 139.464L828.828 46.5627ZM849.223 64.913V121.319C849.223 121.444 849.273 121.564 849.361 121.653C849.45 121.741 849.57 121.791 849.696 121.791H865.644C873.035 121.791 880.124 119.033 885.351 114.122C890.578 109.212 893.514 102.552 893.514 95.6076V90.6239C893.514 83.6795 890.578 77.0196 885.351 72.1092C880.124 67.1988 873.035 64.4402 865.644 64.4402H849.696C849.634 64.4402 849.572 64.4524 849.515 64.4762C849.458 64.4999 849.405 64.5347 849.361 64.5786C849.318 64.6226 849.283 64.6747 849.259 64.7321C849.235 64.7894 849.223 64.8509 849.223 64.913Z" fill="#1a1a1a"/>
<path d="M548.525 139.068V46.9204C548.525 46.6832 548.62 46.4556 548.787 46.2879C548.955 46.1201 549.183 46.0259 549.42 46.0259H567.936C568.174 46.0259 568.401 46.1201 568.569 46.2879C568.737 46.4556 568.831 46.6832 568.831 46.9204V120.756C568.831 120.993 568.925 121.221 569.093 121.389C569.261 121.556 569.488 121.651 569.725 121.651H608.317C608.435 121.651 608.551 121.674 608.659 121.719C608.768 121.764 608.867 121.83 608.95 121.913C609.033 121.996 609.099 122.094 609.144 122.203C609.189 122.311 609.212 122.428 609.212 122.545V139.068C609.212 139.305 609.117 139.533 608.95 139.701C608.782 139.868 608.554 139.963 608.317 139.963H549.42C549.183 139.963 548.955 139.868 548.787 139.701C548.62 139.533 548.525 139.305 548.525 139.068Z" fill="#1a1a1a"/>
<path d="M1274.41 46.0127H1256.08C1255.53 46.0127 1255.09 46.459 1255.09 47.0095V139.17C1255.09 139.72 1255.53 140.167 1256.08 140.167H1274.41C1274.96 140.167 1275.41 139.72 1275.41 139.17V47.0095C1275.41 46.459 1274.96 46.0127 1274.41 46.0127Z" fill="#1a1a1a"/>
<path d="M1200.01 46.4733C1224.28 46.5074 1237.47 46.5628 1239.6 46.6394C1239.8 46.6461 1239.98 46.7284 1240.12 46.8691C1240.25 47.0097 1240.33 47.1977 1240.33 47.3934V63.7502C1240.33 64.0111 1240.23 64.2614 1240.05 64.446C1239.86 64.6305 1239.62 64.7342 1239.36 64.7342H1210.7C1210.51 64.7342 1210.32 64.8095 1210.19 64.9437C1210.06 65.0779 1209.98 65.26 1209.98 65.4498V139.004C1209.98 139.253 1209.88 139.493 1209.71 139.674C1209.54 139.854 1209.3 139.962 1209.05 139.976C1207.4 140.044 1204.34 140.074 1199.87 140.065C1195.4 140.056 1192.34 140.018 1190.7 139.95C1190.44 139.937 1190.2 139.827 1190.03 139.643C1189.86 139.46 1189.76 139.217 1189.76 138.966L1189.99 65.4242C1190 65.3291 1189.98 65.2347 1189.94 65.1464C1189.91 65.0581 1189.86 64.9777 1189.79 64.9099C1189.72 64.8421 1189.64 64.7882 1189.56 64.7515C1189.47 64.7147 1189.37 64.6958 1189.28 64.6958L1160.62 64.6064C1160.49 64.6064 1160.36 64.581 1160.24 64.5315C1160.13 64.4821 1160.02 64.4096 1159.93 64.3182C1159.84 64.2268 1159.77 64.1184 1159.72 63.999C1159.67 63.8796 1159.64 63.7516 1159.64 63.6224L1159.71 47.2656C1159.71 47.07 1159.78 46.882 1159.92 46.7413C1160.06 46.6006 1160.24 46.5182 1160.44 46.5116C1162.57 46.4435 1175.76 46.4307 1200.01 46.4733Z" fill="#1a1a1a"/>
<path d="M1337.87 117.255C1338.06 117.255 1338.21 117.098 1338.32 116.782C1345.12 97.8699 1353.5 74.8724 1363.48 47.7899C1363.61 47.4218 1363.86 47.1043 1364.18 46.8804C1364.5 46.6564 1364.89 46.5368 1365.28 46.5376H1385.62C1385.73 46.5391 1385.83 46.5657 1385.92 46.6153C1386.02 46.6649 1386.09 46.7359 1386.15 46.8224C1386.21 46.9088 1386.25 47.0082 1386.26 47.1121C1386.27 47.216 1386.26 47.3214 1386.22 47.4193L1350.58 138.685C1350.43 139.083 1350.16 139.427 1349.81 139.674C1349.47 139.922 1349.05 140.062 1348.63 140.078C1347.71 140.112 1344.14 140.134 1337.91 140.142C1331.68 140.151 1328.11 140.142 1327.19 140.116C1326.76 140.1 1326.35 139.96 1326 139.713C1325.66 139.465 1325.39 139.122 1325.23 138.724L1289.31 47.5727C1289.27 47.4741 1289.26 47.3673 1289.27 47.2617C1289.28 47.1561 1289.32 47.0548 1289.37 46.9666C1289.43 46.8784 1289.51 46.806 1289.61 46.7558C1289.7 46.7055 1289.8 46.6788 1289.91 46.6781L1310.25 46.6271C1310.65 46.6253 1311.03 46.7431 1311.35 46.9646C1311.67 47.1862 1311.92 47.5009 1312.06 47.8666C1322.12 74.9235 1330.57 97.8954 1337.42 116.782C1337.54 117.098 1337.69 117.255 1337.87 117.255Z" fill="#1a1a1a"/>
<path d="M1463.82 122.877V139.183C1463.82 139.301 1463.8 139.417 1463.75 139.525C1463.71 139.634 1463.64 139.733 1463.56 139.816C1463.47 139.899 1463.37 139.965 1463.27 140.01C1463.16 140.054 1463.04 140.078 1462.92 140.078H1400.81C1400.69 140.078 1400.57 140.054 1400.46 140.01C1400.36 139.965 1400.26 139.899 1400.17 139.816C1400.09 139.733 1400.03 139.634 1399.98 139.525C1399.94 139.417 1399.91 139.301 1399.91 139.183V47.521C1399.91 47.2838 1400.01 47.0562 1400.17 46.8885C1400.34 46.7207 1400.57 46.6265 1400.81 46.6265H1462.36C1462.6 46.6265 1462.83 46.7207 1462.99 46.8885C1463.16 47.0562 1463.26 47.2838 1463.26 47.521V63.6989C1463.26 63.9361 1463.16 64.1637 1462.99 64.3314C1462.83 64.4992 1462.6 64.5934 1462.36 64.5934H1420.89C1420.66 64.5934 1420.43 64.6876 1420.26 64.8554C1420.09 65.0232 1420 65.2507 1420 65.4879V83.6465C1420 83.8838 1420.09 84.1113 1420.26 84.2791C1420.43 84.4468 1420.66 84.5411 1420.89 84.5411H1457.1C1457.33 84.5411 1457.56 84.6353 1457.73 84.803C1457.9 84.9708 1457.99 85.1983 1457.99 85.4356V101.026C1457.99 101.263 1457.9 101.49 1457.73 101.658C1457.56 101.826 1457.33 101.92 1457.1 101.92H1420.96C1420.72 101.92 1420.49 102.014 1420.33 102.182C1420.16 102.35 1420.06 102.577 1420.06 102.815V121.088C1420.06 121.326 1420.16 121.553 1420.33 121.721C1420.49 121.889 1420.72 121.983 1420.96 121.983H1462.92C1463.16 121.983 1463.39 122.077 1463.56 122.245C1463.72 122.413 1463.82 122.64 1463.82 122.877Z" fill="#1a1a1a"/>
<path d="M1075.55 174.9H1105.94C1106.04 174.902 1106.14 174.927 1106.23 174.976C1106.31 175.024 1106.39 175.093 1106.45 175.177C1106.5 175.262 1106.54 175.358 1106.55 175.459C1106.56 175.56 1106.55 175.662 1106.51 175.757L1053.89 308.541C1053.84 308.656 1053.76 308.756 1053.66 308.826C1053.56 308.897 1053.44 308.935 1053.31 308.937H1019.77C1019.64 308.935 1019.52 308.897 1019.42 308.826C1019.32 308.756 1019.24 308.656 1019.19 308.541L966.889 175.795C966.852 175.699 966.838 175.596 966.85 175.494C966.861 175.392 966.898 175.295 966.956 175.21C967.014 175.126 967.092 175.057 967.183 175.01C967.274 174.962 967.375 174.938 967.477 174.939H998.721C998.849 174.939 998.974 174.978 999.079 175.051C999.185 175.124 999.265 175.228 999.309 175.348L1036.48 278.472C1036.53 278.593 1036.61 278.697 1036.71 278.77C1036.82 278.843 1036.94 278.883 1037.07 278.883C1037.2 278.883 1037.32 278.843 1037.43 278.77C1037.53 278.697 1037.61 278.593 1037.66 278.472L1074.96 175.309C1075 175.189 1075.08 175.086 1075.19 175.012C1075.29 174.939 1075.42 174.9 1075.55 174.9Z" fill="#1a1a1a"/>
<path d="M648.966 282.522H704.822C704.918 282.522 705.013 282.541 705.101 282.578C705.19 282.614 705.27 282.668 705.337 282.736C705.405 282.803 705.459 282.884 705.495 282.972C705.532 283.06 705.551 283.155 705.551 283.251V308.208C705.551 308.303 705.532 308.398 705.495 308.486C705.459 308.575 705.405 308.655 705.337 308.723C705.27 308.79 705.19 308.844 705.101 308.881C705.013 308.917 704.918 308.936 704.822 308.936H620.432C620.336 308.936 620.241 308.917 620.153 308.881C620.064 308.844 619.984 308.79 619.916 308.723C619.849 308.655 619.795 308.575 619.759 308.486C619.722 308.398 619.703 308.303 619.703 308.208V175.845C619.703 175.749 619.722 175.655 619.759 175.566C619.795 175.478 619.849 175.398 619.916 175.33C619.984 175.262 620.064 175.209 620.153 175.172C620.241 175.136 620.336 175.117 620.432 175.117H647.51C647.703 175.117 647.888 175.193 648.025 175.33C648.161 175.467 648.238 175.652 648.238 175.845V281.794C648.238 281.987 648.315 282.172 648.451 282.309C648.588 282.446 648.773 282.522 648.966 282.522Z" fill="#1a1a1a"/>
<path d="M901.298 175.002C923.329 174.993 940.755 174.976 953.576 174.951C953.762 174.951 953.941 175.025 954.073 175.157C954.205 175.288 954.279 175.467 954.279 175.654V199.665C954.279 199.865 954.199 200.057 954.058 200.198C953.916 200.339 953.725 200.419 953.525 200.419H916.428C916.329 200.419 916.231 200.438 916.14 200.476C916.048 200.514 915.965 200.57 915.895 200.64C915.825 200.71 915.769 200.793 915.731 200.884C915.694 200.976 915.674 201.074 915.674 201.173V308.08C915.674 308.195 915.651 308.309 915.607 308.415C915.562 308.522 915.497 308.618 915.415 308.699C915.333 308.78 915.236 308.844 915.129 308.886C915.022 308.929 914.908 308.951 914.792 308.949C913.319 308.923 908.842 308.911 901.362 308.911C893.891 308.919 889.418 308.936 887.944 308.962C887.829 308.963 887.715 308.942 887.608 308.899C887.501 308.856 887.404 308.793 887.321 308.712C887.239 308.631 887.174 308.534 887.13 308.428C887.085 308.322 887.062 308.208 887.062 308.093L886.96 201.186C886.96 200.986 886.881 200.794 886.739 200.652C886.598 200.511 886.406 200.432 886.206 200.432L849.11 200.47C848.91 200.47 848.718 200.39 848.576 200.249C848.435 200.108 848.356 199.916 848.356 199.716L848.33 175.705C848.33 175.518 848.404 175.339 848.536 175.208C848.668 175.076 848.846 175.002 849.033 175.002C861.854 175.01 879.276 175.01 901.298 175.002Z" fill="#1a1a1a"/>
<path d="M1153.67 174.925H1126.7C1126.34 174.925 1126.04 175.222 1126.04 175.589V308.31C1126.04 308.677 1126.34 308.974 1126.7 308.974H1153.67C1154.03 308.974 1154.33 308.677 1154.33 308.31V175.589C1154.33 175.222 1154.03 174.925 1153.67 174.925Z" fill="#1a1a1a"/>
<path d="M816.025 282.855H759.812C759.677 282.855 759.546 282.897 759.436 282.975C759.326 283.052 759.243 283.162 759.198 283.289L750.061 308.527C750.016 308.654 749.933 308.764 749.824 308.842C749.714 308.92 749.583 308.962 749.448 308.962H720.951C720.844 308.963 720.738 308.938 720.643 308.889C720.548 308.839 720.466 308.767 720.405 308.679C720.345 308.59 720.307 308.488 720.295 308.381C720.283 308.275 720.298 308.167 720.338 308.067L772.066 175.577C772.115 175.455 772.2 175.35 772.31 175.277C772.419 175.204 772.548 175.166 772.68 175.168H804.154C804.287 175.167 804.417 175.207 804.527 175.283C804.636 175.358 804.72 175.465 804.767 175.59L856.036 308.118C856.073 308.216 856.085 308.322 856.073 308.426C856.061 308.529 856.023 308.629 855.964 308.715C855.906 308.802 855.827 308.873 855.735 308.922C855.642 308.972 855.54 308.999 855.435 309H826.376C826.241 309 826.11 308.958 826 308.88C825.891 308.802 825.808 308.693 825.763 308.566L816.639 283.289C816.594 283.162 816.511 283.052 816.401 282.975C816.291 282.897 816.16 282.855 816.025 282.855ZM768.731 257.732C768.705 257.804 768.696 257.882 768.706 257.959C768.715 258.036 768.743 258.109 768.787 258.173C768.831 258.236 768.889 258.289 768.957 258.325C769.025 258.362 769.101 258.382 769.178 258.383L807.042 258.78C807.119 258.779 807.194 258.761 807.263 258.726C807.331 258.691 807.39 258.64 807.435 258.578C807.48 258.515 807.51 258.443 807.521 258.367C807.533 258.291 807.526 258.214 807.502 258.141L789.1 207.294C789.067 207.201 789.006 207.122 788.925 207.065C788.845 207.008 788.75 206.976 788.651 206.975C788.553 206.974 788.456 207.002 788.375 207.057C788.293 207.111 788.23 207.19 788.193 207.281L768.731 257.732Z" fill="#1a1a1a"/>
<path d="M1226.28 175.142H1258.58C1258.7 175.142 1258.82 175.18 1258.93 175.25C1259.03 175.321 1259.11 175.422 1259.15 175.538L1310.43 308.092C1310.47 308.185 1310.48 308.285 1310.47 308.384C1310.46 308.483 1310.42 308.577 1310.36 308.659C1310.31 308.741 1310.23 308.807 1310.14 308.853C1310.06 308.899 1309.96 308.923 1309.86 308.923H1280.36C1280.24 308.922 1280.12 308.883 1280.01 308.809C1279.91 308.736 1279.83 308.633 1279.79 308.514L1270.67 283.263C1270.62 283.144 1270.55 283.041 1270.44 282.968C1270.34 282.895 1270.22 282.855 1270.09 282.854H1213.6C1213.47 282.855 1213.35 282.895 1213.24 282.968C1213.14 283.041 1213.06 283.144 1213.02 283.263L1203.88 308.489C1203.84 308.608 1203.76 308.711 1203.66 308.784C1203.56 308.857 1203.43 308.897 1203.31 308.897H1174.52C1174.42 308.896 1174.32 308.87 1174.24 308.823C1174.15 308.776 1174.08 308.709 1174.02 308.628C1173.97 308.547 1173.93 308.453 1173.92 308.355C1173.91 308.258 1173.92 308.159 1173.96 308.067L1225.71 175.538C1225.75 175.422 1225.83 175.321 1225.94 175.25C1226.04 175.18 1226.16 175.142 1226.28 175.142ZM1222.6 257.552C1222.57 257.647 1222.56 257.749 1222.57 257.849C1222.58 257.949 1222.62 258.045 1222.68 258.128C1222.74 258.21 1222.81 258.278 1222.9 258.325C1222.99 258.372 1223.09 258.396 1223.19 258.396L1260.97 258.728C1261.07 258.73 1261.17 258.707 1261.26 258.662C1261.35 258.616 1261.43 258.548 1261.49 258.465C1261.55 258.382 1261.59 258.286 1261.6 258.184C1261.61 258.083 1261.6 257.98 1261.57 257.885L1243.11 207.408C1243.07 207.288 1242.99 207.183 1242.89 207.108C1242.78 207.034 1242.66 206.993 1242.53 206.992C1242.4 206.99 1242.28 207.028 1242.17 207.1C1242.07 207.173 1241.98 207.276 1241.94 207.396L1222.6 257.552Z" fill="#1a1a1a"/>
</svg>
